%TF.GenerationSoftware,KiCad,Pcbnew,7.0.9*%
%TF.CreationDate,2024-02-10T00:43:51-08:00*%
%TF.ProjectId,snes_controllers_to_usb,736e6573-5f63-46f6-9e74-726f6c6c6572,A*%
%TF.SameCoordinates,Original*%
%TF.FileFunction,Soldermask,Top*%
%TF.FilePolarity,Negative*%
%FSLAX46Y46*%
G04 Gerber Fmt 4.6, Leading zero omitted, Abs format (unit mm)*
G04 Created by KiCad (PCBNEW 7.0.9) date 2024-02-10 00:43:51*
%MOMM*%
%LPD*%
G01*
G04 APERTURE LIST*
G04 Aperture macros list*
%AMRoundRect*
0 Rectangle with rounded corners*
0 $1 Rounding radius*
0 $2 $3 $4 $5 $6 $7 $8 $9 X,Y pos of 4 corners*
0 Add a 4 corners polygon primitive as box body*
4,1,4,$2,$3,$4,$5,$6,$7,$8,$9,$2,$3,0*
0 Add four circle primitives for the rounded corners*
1,1,$1+$1,$2,$3*
1,1,$1+$1,$4,$5*
1,1,$1+$1,$6,$7*
1,1,$1+$1,$8,$9*
0 Add four rect primitives between the rounded corners*
20,1,$1+$1,$2,$3,$4,$5,0*
20,1,$1+$1,$4,$5,$6,$7,0*
20,1,$1+$1,$6,$7,$8,$9,0*
20,1,$1+$1,$8,$9,$2,$3,0*%
G04 Aperture macros list end*
%ADD10C,0.800000*%
%ADD11C,6.400000*%
%ADD12RoundRect,0.237500X0.237500X-0.250000X0.237500X0.250000X-0.237500X0.250000X-0.237500X-0.250000X0*%
%ADD13RoundRect,0.237500X0.250000X0.237500X-0.250000X0.237500X-0.250000X-0.237500X0.250000X-0.237500X0*%
%ADD14RoundRect,0.150000X0.587500X0.150000X-0.587500X0.150000X-0.587500X-0.150000X0.587500X-0.150000X0*%
%ADD15RoundRect,0.237500X-0.237500X0.250000X-0.237500X-0.250000X0.237500X-0.250000X0.237500X0.250000X0*%
%ADD16C,2.924000*%
%ADD17RoundRect,0.237500X0.237500X-0.287500X0.237500X0.287500X-0.237500X0.287500X-0.237500X-0.287500X0*%
%ADD18RoundRect,0.237500X-0.250000X-0.237500X0.250000X-0.237500X0.250000X0.237500X-0.250000X0.237500X0*%
%ADD19O,1.800000X1.800000*%
%ADD20O,1.500000X1.500000*%
%ADD21O,1.700000X1.700000*%
%ADD22R,1.700000X3.500000*%
%ADD23R,1.700000X1.700000*%
%ADD24RoundRect,0.375000X-0.625000X-0.375000X0.625000X-0.375000X0.625000X0.375000X-0.625000X0.375000X0*%
%ADD25RoundRect,0.150000X0.150000X-0.587500X0.150000X0.587500X-0.150000X0.587500X-0.150000X-0.587500X0*%
%ADD26RoundRect,0.237500X-0.287500X-0.237500X0.287500X-0.237500X0.287500X0.237500X-0.287500X0.237500X0*%
G04 APERTURE END LIST*
D10*
%TO.C,H4*%
X174892000Y-151892000D03*
X175594944Y-150194944D03*
X175594944Y-153589056D03*
X177292000Y-149492000D03*
D11*
X177292000Y-151892000D03*
D10*
X177292000Y-154292000D03*
X178989056Y-150194944D03*
X178989056Y-153589056D03*
X179692000Y-151892000D03*
%TD*%
%TO.C,H2*%
X92596000Y-69596000D03*
X93298944Y-67898944D03*
X93298944Y-71293056D03*
X94996000Y-67196000D03*
D11*
X94996000Y-69596000D03*
D10*
X94996000Y-71996000D03*
X96693056Y-67898944D03*
X96693056Y-71293056D03*
X97396000Y-69596000D03*
%TD*%
D12*
%TO.C,R9*%
X148844000Y-78025000D03*
X148844000Y-76200000D03*
%TD*%
D13*
%TO.C,R11*%
X102917000Y-96520000D03*
X101092000Y-96520000D03*
%TD*%
D14*
%TO.C,Q4*%
X97379000Y-142682000D03*
X97379000Y-140782000D03*
X95504000Y-141732000D03*
%TD*%
%TO.C,Q3*%
X97432500Y-96491500D03*
X97432500Y-94591500D03*
X95557500Y-95541500D03*
%TD*%
D13*
%TO.C,R2*%
X110029000Y-73660000D03*
X108204000Y-73660000D03*
%TD*%
%TO.C,R12*%
X102409000Y-142748000D03*
X100584000Y-142748000D03*
%TD*%
D15*
%TO.C,R5*%
X99060000Y-89408000D03*
X99060000Y-91233000D03*
%TD*%
%TO.C,R3*%
X146304000Y-73660000D03*
X146304000Y-75485000D03*
%TD*%
D16*
%TO.C,J1*%
X170070000Y-60960000D03*
X166070000Y-60960000D03*
X162070000Y-60960000D03*
X158070000Y-60960000D03*
X151510000Y-60960000D03*
X147510000Y-60960000D03*
X143510000Y-60960000D03*
%TD*%
D12*
%TO.C,R10*%
X103124000Y-78025000D03*
X103124000Y-76200000D03*
%TD*%
D10*
%TO.C,H3*%
X92596000Y-151892000D03*
X93298944Y-150194944D03*
X93298944Y-153589056D03*
X94996000Y-149492000D03*
D11*
X94996000Y-151892000D03*
D10*
X94996000Y-154292000D03*
X96693056Y-150194944D03*
X96693056Y-153589056D03*
X97396000Y-151892000D03*
%TD*%
D17*
%TO.C,D4*%
X95504000Y-136370000D03*
X95504000Y-134620000D03*
%TD*%
%TO.C,D3*%
X95504000Y-91158000D03*
X95504000Y-89408000D03*
%TD*%
D13*
%TO.C,R1*%
X155956000Y-73660000D03*
X154131000Y-73660000D03*
%TD*%
D18*
%TO.C,R8*%
X97536000Y-145796000D03*
X99361000Y-145796000D03*
%TD*%
D19*
%TO.C,U1*%
X179575000Y-105225000D03*
D20*
X176545000Y-105525000D03*
X176545000Y-110375000D03*
D19*
X179575000Y-110675000D03*
D21*
X179705000Y-99060000D03*
D22*
X179705000Y-98160000D03*
D21*
X177165000Y-99060000D03*
D22*
X177165000Y-98160000D03*
D23*
X174625000Y-99060000D03*
D22*
X174625000Y-98160000D03*
D21*
X172085000Y-99060000D03*
D22*
X172085000Y-98160000D03*
D21*
X169545000Y-99060000D03*
D22*
X169545000Y-98160000D03*
D21*
X167005000Y-99060000D03*
D22*
X167005000Y-98160000D03*
D21*
X164465000Y-99060000D03*
D22*
X164465000Y-98160000D03*
D23*
X161925000Y-99060000D03*
D22*
X161925000Y-98160000D03*
D21*
X159385000Y-99060000D03*
D22*
X159385000Y-98160000D03*
D21*
X156845000Y-99060000D03*
D22*
X156845000Y-98160000D03*
D21*
X154305000Y-99060000D03*
D22*
X154305000Y-98160000D03*
D21*
X151765000Y-99060000D03*
D22*
X151765000Y-98160000D03*
D23*
X149225000Y-99060000D03*
D22*
X149225000Y-98160000D03*
D21*
X146685000Y-99060000D03*
D22*
X146685000Y-98160000D03*
D21*
X144145000Y-99060000D03*
D22*
X144145000Y-98160000D03*
D21*
X141605000Y-99060000D03*
D22*
X141605000Y-98160000D03*
D21*
X139065000Y-99060000D03*
D22*
X139065000Y-98160000D03*
D23*
X136525000Y-99060000D03*
D22*
X136525000Y-98160000D03*
D21*
X133985000Y-99060000D03*
D22*
X133985000Y-98160000D03*
D21*
X131445000Y-99060000D03*
D22*
X131445000Y-98160000D03*
D21*
X131445000Y-116840000D03*
D22*
X131445000Y-117740000D03*
D21*
X133985000Y-116840000D03*
D22*
X133985000Y-117740000D03*
D23*
X136525000Y-116840000D03*
D22*
X136525000Y-117740000D03*
D21*
X139065000Y-116840000D03*
D22*
X139065000Y-117740000D03*
D21*
X141605000Y-116840000D03*
D22*
X141605000Y-117740000D03*
D21*
X144145000Y-116840000D03*
D22*
X144145000Y-117740000D03*
D21*
X146685000Y-116840000D03*
D22*
X146685000Y-117740000D03*
D23*
X149225000Y-116840000D03*
D22*
X149225000Y-117740000D03*
D21*
X151765000Y-116840000D03*
D22*
X151765000Y-117740000D03*
D21*
X154305000Y-116840000D03*
D22*
X154305000Y-117740000D03*
D21*
X156845000Y-116840000D03*
D22*
X156845000Y-117740000D03*
D21*
X159385000Y-116840000D03*
D22*
X159385000Y-117740000D03*
D23*
X161925000Y-116840000D03*
D22*
X161925000Y-117740000D03*
D21*
X164465000Y-116840000D03*
D22*
X164465000Y-117740000D03*
D21*
X167005000Y-116840000D03*
D22*
X167005000Y-117740000D03*
D21*
X169545000Y-116840000D03*
D22*
X169545000Y-117740000D03*
D21*
X172085000Y-116840000D03*
D22*
X172085000Y-117740000D03*
D23*
X174625000Y-116840000D03*
D22*
X174625000Y-117740000D03*
D21*
X177165000Y-116840000D03*
D22*
X177165000Y-117740000D03*
D21*
X179705000Y-116840000D03*
D22*
X179705000Y-117740000D03*
D21*
X149975000Y-108534100D03*
D23*
X149975000Y-111074100D03*
D21*
X149975000Y-113614100D03*
%TD*%
D24*
%TO.C,SW1*%
X146232000Y-131064000D03*
X154432000Y-131064000D03*
%TD*%
D18*
%TO.C,R7*%
X97536000Y-99568000D03*
X99361000Y-99568000D03*
%TD*%
D16*
%TO.C,J4*%
X86200000Y-120070000D03*
X86200000Y-124070000D03*
X86200000Y-128070000D03*
X86200000Y-132070000D03*
X86200000Y-138630000D03*
X86200000Y-142630000D03*
X86200000Y-146630000D03*
%TD*%
D25*
%TO.C,Q2*%
X103124000Y-73660000D03*
X105024000Y-73660000D03*
X104074000Y-71785000D03*
%TD*%
D26*
%TO.C,D2*%
X108204000Y-70104000D03*
X109954000Y-70104000D03*
%TD*%
D10*
%TO.C,H1*%
X174892000Y-69596000D03*
X175594944Y-67898944D03*
X175594944Y-71293056D03*
X177292000Y-67196000D03*
D11*
X177292000Y-69596000D03*
D10*
X177292000Y-71996000D03*
X178989056Y-67898944D03*
X178989056Y-71293056D03*
X179692000Y-69596000D03*
%TD*%
D16*
%TO.C,J3*%
X86360000Y-74295000D03*
X86360000Y-78295000D03*
X86360000Y-82295000D03*
X86360000Y-86295000D03*
X86360000Y-92855000D03*
X86360000Y-96855000D03*
X86360000Y-100855000D03*
%TD*%
D15*
%TO.C,R6*%
X99060000Y-134620000D03*
X99060000Y-136445000D03*
%TD*%
%TO.C,R4*%
X100584000Y-73660000D03*
X100584000Y-75485000D03*
%TD*%
D26*
%TO.C,D1*%
X154206000Y-70104000D03*
X155956000Y-70104000D03*
%TD*%
D16*
%TO.C,J2*%
X124405000Y-60800000D03*
X120405000Y-60800000D03*
X116405000Y-60800000D03*
X112405000Y-60800000D03*
X105845000Y-60800000D03*
X101845000Y-60800000D03*
X97845000Y-60800000D03*
%TD*%
D25*
%TO.C,Q1*%
X148844000Y-73660000D03*
X150744000Y-73660000D03*
X149794000Y-71785000D03*
%TD*%
M02*
