%TF.GenerationSoftware,KiCad,Pcbnew,7.0.9*%
%TF.CreationDate,2024-02-10T00:43:47-08:00*%
%TF.ProjectId,snes_controllers_to_usb,736e6573-5f63-46f6-9e74-726f6c6c6572,A*%
%TF.SameCoordinates,Original*%
%TF.FileFunction,Drillmap*%
%TF.FilePolarity,Positive*%
%FSLAX45Y45*%
G04 Gerber Fmt 4.5, Leading zero omitted, Abs format (unit mm)*
G04 Created by KiCad (PCBNEW 7.0.9) date 2024-02-10 00:43:47*
%MOMM*%
%LPD*%
G01*
G04 APERTURE LIST*
%ADD10C,0.100000*%
%ADD11C,0.200000*%
%ADD12C,0.150000*%
%ADD13C,0.180000*%
G04 APERTURE END LIST*
D10*
X8255000Y-5715000D02*
X18255000Y-5715000D01*
X18255000Y-15715000D01*
X8255000Y-15715000D01*
X8255000Y-5715000D01*
D11*
D12*
X17579500Y-10477500D02*
X17729500Y-10627500D01*
X17729500Y-10477500D02*
X17579500Y-10627500D01*
X17579500Y-10962500D02*
X17729500Y-11112500D01*
X17729500Y-10962500D02*
X17579500Y-11112500D01*
D13*
X18047500Y-10522500D02*
G75*
G03*
X18047500Y-10522500I-90000J0D01*
G01*
X18047500Y-11067500D02*
G75*
G03*
X18047500Y-11067500I-90000J0D01*
G01*
D11*
X8510777Y-16031484D02*
X8510777Y-15831484D01*
X8510777Y-15831484D02*
X8558396Y-15831484D01*
X8558396Y-15831484D02*
X8586967Y-15841008D01*
X8586967Y-15841008D02*
X8606015Y-15860055D01*
X8606015Y-15860055D02*
X8615539Y-15879103D01*
X8615539Y-15879103D02*
X8625063Y-15917198D01*
X8625063Y-15917198D02*
X8625063Y-15945769D01*
X8625063Y-15945769D02*
X8615539Y-15983865D01*
X8615539Y-15983865D02*
X8606015Y-16002912D01*
X8606015Y-16002912D02*
X8586967Y-16021960D01*
X8586967Y-16021960D02*
X8558396Y-16031484D01*
X8558396Y-16031484D02*
X8510777Y-16031484D01*
X8710777Y-16031484D02*
X8710777Y-15898150D01*
X8710777Y-15936246D02*
X8720301Y-15917198D01*
X8720301Y-15917198D02*
X8729824Y-15907674D01*
X8729824Y-15907674D02*
X8748872Y-15898150D01*
X8748872Y-15898150D02*
X8767920Y-15898150D01*
X8834586Y-16031484D02*
X8834586Y-15898150D01*
X8834586Y-15831484D02*
X8825063Y-15841008D01*
X8825063Y-15841008D02*
X8834586Y-15850531D01*
X8834586Y-15850531D02*
X8844110Y-15841008D01*
X8844110Y-15841008D02*
X8834586Y-15831484D01*
X8834586Y-15831484D02*
X8834586Y-15850531D01*
X8958396Y-16031484D02*
X8939348Y-16021960D01*
X8939348Y-16021960D02*
X8929824Y-16002912D01*
X8929824Y-16002912D02*
X8929824Y-15831484D01*
X9063158Y-16031484D02*
X9044110Y-16021960D01*
X9044110Y-16021960D02*
X9034586Y-16002912D01*
X9034586Y-16002912D02*
X9034586Y-15831484D01*
X9291729Y-16031484D02*
X9291729Y-15831484D01*
X9291729Y-15831484D02*
X9358396Y-15974341D01*
X9358396Y-15974341D02*
X9425063Y-15831484D01*
X9425063Y-15831484D02*
X9425063Y-16031484D01*
X9606015Y-16031484D02*
X9606015Y-15926722D01*
X9606015Y-15926722D02*
X9596491Y-15907674D01*
X9596491Y-15907674D02*
X9577444Y-15898150D01*
X9577444Y-15898150D02*
X9539348Y-15898150D01*
X9539348Y-15898150D02*
X9520301Y-15907674D01*
X9606015Y-16021960D02*
X9586967Y-16031484D01*
X9586967Y-16031484D02*
X9539348Y-16031484D01*
X9539348Y-16031484D02*
X9520301Y-16021960D01*
X9520301Y-16021960D02*
X9510777Y-16002912D01*
X9510777Y-16002912D02*
X9510777Y-15983865D01*
X9510777Y-15983865D02*
X9520301Y-15964817D01*
X9520301Y-15964817D02*
X9539348Y-15955293D01*
X9539348Y-15955293D02*
X9586967Y-15955293D01*
X9586967Y-15955293D02*
X9606015Y-15945769D01*
X9701253Y-15898150D02*
X9701253Y-16098150D01*
X9701253Y-15907674D02*
X9720301Y-15898150D01*
X9720301Y-15898150D02*
X9758396Y-15898150D01*
X9758396Y-15898150D02*
X9777444Y-15907674D01*
X9777444Y-15907674D02*
X9786967Y-15917198D01*
X9786967Y-15917198D02*
X9796491Y-15936246D01*
X9796491Y-15936246D02*
X9796491Y-15993388D01*
X9796491Y-15993388D02*
X9786967Y-16012436D01*
X9786967Y-16012436D02*
X9777444Y-16021960D01*
X9777444Y-16021960D02*
X9758396Y-16031484D01*
X9758396Y-16031484D02*
X9720301Y-16031484D01*
X9720301Y-16031484D02*
X9701253Y-16021960D01*
X9882205Y-16012436D02*
X9891729Y-16021960D01*
X9891729Y-16021960D02*
X9882205Y-16031484D01*
X9882205Y-16031484D02*
X9872682Y-16021960D01*
X9872682Y-16021960D02*
X9882205Y-16012436D01*
X9882205Y-16012436D02*
X9882205Y-16031484D01*
X9882205Y-15907674D02*
X9891729Y-15917198D01*
X9891729Y-15917198D02*
X9882205Y-15926722D01*
X9882205Y-15926722D02*
X9872682Y-15917198D01*
X9872682Y-15917198D02*
X9882205Y-15907674D01*
X9882205Y-15907674D02*
X9882205Y-15926722D01*
D12*
X8100000Y-16285000D02*
X8250000Y-16435000D01*
X8250000Y-16285000D02*
X8100000Y-16435000D01*
D11*
X8615539Y-16451484D02*
X8501253Y-16451484D01*
X8558396Y-16451484D02*
X8558396Y-16251484D01*
X8558396Y-16251484D02*
X8539348Y-16280055D01*
X8539348Y-16280055D02*
X8520301Y-16299103D01*
X8520301Y-16299103D02*
X8501253Y-16308627D01*
X8701253Y-16432436D02*
X8710777Y-16441960D01*
X8710777Y-16441960D02*
X8701253Y-16451484D01*
X8701253Y-16451484D02*
X8691729Y-16441960D01*
X8691729Y-16441960D02*
X8701253Y-16432436D01*
X8701253Y-16432436D02*
X8701253Y-16451484D01*
X8891729Y-16251484D02*
X8796491Y-16251484D01*
X8796491Y-16251484D02*
X8786967Y-16346722D01*
X8786967Y-16346722D02*
X8796491Y-16337198D01*
X8796491Y-16337198D02*
X8815539Y-16327674D01*
X8815539Y-16327674D02*
X8863158Y-16327674D01*
X8863158Y-16327674D02*
X8882205Y-16337198D01*
X8882205Y-16337198D02*
X8891729Y-16346722D01*
X8891729Y-16346722D02*
X8901253Y-16365769D01*
X8901253Y-16365769D02*
X8901253Y-16413388D01*
X8901253Y-16413388D02*
X8891729Y-16432436D01*
X8891729Y-16432436D02*
X8882205Y-16441960D01*
X8882205Y-16441960D02*
X8863158Y-16451484D01*
X8863158Y-16451484D02*
X8815539Y-16451484D01*
X8815539Y-16451484D02*
X8796491Y-16441960D01*
X8796491Y-16441960D02*
X8786967Y-16432436D01*
X9025063Y-16251484D02*
X9044110Y-16251484D01*
X9044110Y-16251484D02*
X9063158Y-16261008D01*
X9063158Y-16261008D02*
X9072682Y-16270531D01*
X9072682Y-16270531D02*
X9082205Y-16289579D01*
X9082205Y-16289579D02*
X9091729Y-16327674D01*
X9091729Y-16327674D02*
X9091729Y-16375293D01*
X9091729Y-16375293D02*
X9082205Y-16413388D01*
X9082205Y-16413388D02*
X9072682Y-16432436D01*
X9072682Y-16432436D02*
X9063158Y-16441960D01*
X9063158Y-16441960D02*
X9044110Y-16451484D01*
X9044110Y-16451484D02*
X9025063Y-16451484D01*
X9025063Y-16451484D02*
X9006015Y-16441960D01*
X9006015Y-16441960D02*
X8996491Y-16432436D01*
X8996491Y-16432436D02*
X8986967Y-16413388D01*
X8986967Y-16413388D02*
X8977444Y-16375293D01*
X8977444Y-16375293D02*
X8977444Y-16327674D01*
X8977444Y-16327674D02*
X8986967Y-16289579D01*
X8986967Y-16289579D02*
X8996491Y-16270531D01*
X8996491Y-16270531D02*
X9006015Y-16261008D01*
X9006015Y-16261008D02*
X9025063Y-16251484D01*
X9215539Y-16251484D02*
X9234586Y-16251484D01*
X9234586Y-16251484D02*
X9253634Y-16261008D01*
X9253634Y-16261008D02*
X9263158Y-16270531D01*
X9263158Y-16270531D02*
X9272682Y-16289579D01*
X9272682Y-16289579D02*
X9282205Y-16327674D01*
X9282205Y-16327674D02*
X9282205Y-16375293D01*
X9282205Y-16375293D02*
X9272682Y-16413388D01*
X9272682Y-16413388D02*
X9263158Y-16432436D01*
X9263158Y-16432436D02*
X9253634Y-16441960D01*
X9253634Y-16441960D02*
X9234586Y-16451484D01*
X9234586Y-16451484D02*
X9215539Y-16451484D01*
X9215539Y-16451484D02*
X9196491Y-16441960D01*
X9196491Y-16441960D02*
X9186967Y-16432436D01*
X9186967Y-16432436D02*
X9177444Y-16413388D01*
X9177444Y-16413388D02*
X9167920Y-16375293D01*
X9167920Y-16375293D02*
X9167920Y-16327674D01*
X9167920Y-16327674D02*
X9177444Y-16289579D01*
X9177444Y-16289579D02*
X9186967Y-16270531D01*
X9186967Y-16270531D02*
X9196491Y-16261008D01*
X9196491Y-16261008D02*
X9215539Y-16251484D01*
X9367920Y-16451484D02*
X9367920Y-16318150D01*
X9367920Y-16337198D02*
X9377444Y-16327674D01*
X9377444Y-16327674D02*
X9396491Y-16318150D01*
X9396491Y-16318150D02*
X9425063Y-16318150D01*
X9425063Y-16318150D02*
X9444110Y-16327674D01*
X9444110Y-16327674D02*
X9453634Y-16346722D01*
X9453634Y-16346722D02*
X9453634Y-16451484D01*
X9453634Y-16346722D02*
X9463158Y-16327674D01*
X9463158Y-16327674D02*
X9482205Y-16318150D01*
X9482205Y-16318150D02*
X9510777Y-16318150D01*
X9510777Y-16318150D02*
X9529825Y-16327674D01*
X9529825Y-16327674D02*
X9539348Y-16346722D01*
X9539348Y-16346722D02*
X9539348Y-16451484D01*
X9634586Y-16451484D02*
X9634586Y-16318150D01*
X9634586Y-16337198D02*
X9644110Y-16327674D01*
X9644110Y-16327674D02*
X9663158Y-16318150D01*
X9663158Y-16318150D02*
X9691729Y-16318150D01*
X9691729Y-16318150D02*
X9710777Y-16327674D01*
X9710777Y-16327674D02*
X9720301Y-16346722D01*
X9720301Y-16346722D02*
X9720301Y-16451484D01*
X9720301Y-16346722D02*
X9729825Y-16327674D01*
X9729825Y-16327674D02*
X9748872Y-16318150D01*
X9748872Y-16318150D02*
X9777444Y-16318150D01*
X9777444Y-16318150D02*
X9796491Y-16327674D01*
X9796491Y-16327674D02*
X9806015Y-16346722D01*
X9806015Y-16346722D02*
X9806015Y-16451484D01*
X10196491Y-16241960D02*
X10025063Y-16499103D01*
X10453634Y-16251484D02*
X10472682Y-16251484D01*
X10472682Y-16251484D02*
X10491729Y-16261008D01*
X10491729Y-16261008D02*
X10501253Y-16270531D01*
X10501253Y-16270531D02*
X10510777Y-16289579D01*
X10510777Y-16289579D02*
X10520301Y-16327674D01*
X10520301Y-16327674D02*
X10520301Y-16375293D01*
X10520301Y-16375293D02*
X10510777Y-16413388D01*
X10510777Y-16413388D02*
X10501253Y-16432436D01*
X10501253Y-16432436D02*
X10491729Y-16441960D01*
X10491729Y-16441960D02*
X10472682Y-16451484D01*
X10472682Y-16451484D02*
X10453634Y-16451484D01*
X10453634Y-16451484D02*
X10434587Y-16441960D01*
X10434587Y-16441960D02*
X10425063Y-16432436D01*
X10425063Y-16432436D02*
X10415539Y-16413388D01*
X10415539Y-16413388D02*
X10406015Y-16375293D01*
X10406015Y-16375293D02*
X10406015Y-16327674D01*
X10406015Y-16327674D02*
X10415539Y-16289579D01*
X10415539Y-16289579D02*
X10425063Y-16270531D01*
X10425063Y-16270531D02*
X10434587Y-16261008D01*
X10434587Y-16261008D02*
X10453634Y-16251484D01*
X10606015Y-16432436D02*
X10615539Y-16441960D01*
X10615539Y-16441960D02*
X10606015Y-16451484D01*
X10606015Y-16451484D02*
X10596491Y-16441960D01*
X10596491Y-16441960D02*
X10606015Y-16432436D01*
X10606015Y-16432436D02*
X10606015Y-16451484D01*
X10739348Y-16251484D02*
X10758396Y-16251484D01*
X10758396Y-16251484D02*
X10777444Y-16261008D01*
X10777444Y-16261008D02*
X10786968Y-16270531D01*
X10786968Y-16270531D02*
X10796491Y-16289579D01*
X10796491Y-16289579D02*
X10806015Y-16327674D01*
X10806015Y-16327674D02*
X10806015Y-16375293D01*
X10806015Y-16375293D02*
X10796491Y-16413388D01*
X10796491Y-16413388D02*
X10786968Y-16432436D01*
X10786968Y-16432436D02*
X10777444Y-16441960D01*
X10777444Y-16441960D02*
X10758396Y-16451484D01*
X10758396Y-16451484D02*
X10739348Y-16451484D01*
X10739348Y-16451484D02*
X10720301Y-16441960D01*
X10720301Y-16441960D02*
X10710777Y-16432436D01*
X10710777Y-16432436D02*
X10701253Y-16413388D01*
X10701253Y-16413388D02*
X10691729Y-16375293D01*
X10691729Y-16375293D02*
X10691729Y-16327674D01*
X10691729Y-16327674D02*
X10701253Y-16289579D01*
X10701253Y-16289579D02*
X10710777Y-16270531D01*
X10710777Y-16270531D02*
X10720301Y-16261008D01*
X10720301Y-16261008D02*
X10739348Y-16251484D01*
X10986968Y-16251484D02*
X10891729Y-16251484D01*
X10891729Y-16251484D02*
X10882206Y-16346722D01*
X10882206Y-16346722D02*
X10891729Y-16337198D01*
X10891729Y-16337198D02*
X10910777Y-16327674D01*
X10910777Y-16327674D02*
X10958396Y-16327674D01*
X10958396Y-16327674D02*
X10977444Y-16337198D01*
X10977444Y-16337198D02*
X10986968Y-16346722D01*
X10986968Y-16346722D02*
X10996491Y-16365769D01*
X10996491Y-16365769D02*
X10996491Y-16413388D01*
X10996491Y-16413388D02*
X10986968Y-16432436D01*
X10986968Y-16432436D02*
X10977444Y-16441960D01*
X10977444Y-16441960D02*
X10958396Y-16451484D01*
X10958396Y-16451484D02*
X10910777Y-16451484D01*
X10910777Y-16451484D02*
X10891729Y-16441960D01*
X10891729Y-16441960D02*
X10882206Y-16432436D01*
X11091729Y-16451484D02*
X11129825Y-16451484D01*
X11129825Y-16451484D02*
X11148872Y-16441960D01*
X11148872Y-16441960D02*
X11158396Y-16432436D01*
X11158396Y-16432436D02*
X11177444Y-16403865D01*
X11177444Y-16403865D02*
X11186967Y-16365769D01*
X11186967Y-16365769D02*
X11186967Y-16289579D01*
X11186967Y-16289579D02*
X11177444Y-16270531D01*
X11177444Y-16270531D02*
X11167920Y-16261008D01*
X11167920Y-16261008D02*
X11148872Y-16251484D01*
X11148872Y-16251484D02*
X11110777Y-16251484D01*
X11110777Y-16251484D02*
X11091729Y-16261008D01*
X11091729Y-16261008D02*
X11082206Y-16270531D01*
X11082206Y-16270531D02*
X11072682Y-16289579D01*
X11072682Y-16289579D02*
X11072682Y-16337198D01*
X11072682Y-16337198D02*
X11082206Y-16356246D01*
X11082206Y-16356246D02*
X11091729Y-16365769D01*
X11091729Y-16365769D02*
X11110777Y-16375293D01*
X11110777Y-16375293D02*
X11148872Y-16375293D01*
X11148872Y-16375293D02*
X11167920Y-16365769D01*
X11167920Y-16365769D02*
X11177444Y-16356246D01*
X11177444Y-16356246D02*
X11186967Y-16337198D01*
X11377444Y-16451484D02*
X11263158Y-16451484D01*
X11320301Y-16451484D02*
X11320301Y-16251484D01*
X11320301Y-16251484D02*
X11301253Y-16280055D01*
X11301253Y-16280055D02*
X11282206Y-16299103D01*
X11282206Y-16299103D02*
X11263158Y-16308627D01*
X11453634Y-16251484D02*
X11453634Y-16289579D01*
X11529825Y-16251484D02*
X11529825Y-16289579D01*
X11825063Y-16527674D02*
X11815539Y-16518150D01*
X11815539Y-16518150D02*
X11796491Y-16489579D01*
X11796491Y-16489579D02*
X11786968Y-16470531D01*
X11786968Y-16470531D02*
X11777444Y-16441960D01*
X11777444Y-16441960D02*
X11767920Y-16394341D01*
X11767920Y-16394341D02*
X11767920Y-16356246D01*
X11767920Y-16356246D02*
X11777444Y-16308627D01*
X11777444Y-16308627D02*
X11786968Y-16280055D01*
X11786968Y-16280055D02*
X11796491Y-16261008D01*
X11796491Y-16261008D02*
X11815539Y-16232436D01*
X11815539Y-16232436D02*
X11825063Y-16222912D01*
X11891729Y-16270531D02*
X11901253Y-16261008D01*
X11901253Y-16261008D02*
X11920301Y-16251484D01*
X11920301Y-16251484D02*
X11967920Y-16251484D01*
X11967920Y-16251484D02*
X11986968Y-16261008D01*
X11986968Y-16261008D02*
X11996491Y-16270531D01*
X11996491Y-16270531D02*
X12006015Y-16289579D01*
X12006015Y-16289579D02*
X12006015Y-16308627D01*
X12006015Y-16308627D02*
X11996491Y-16337198D01*
X11996491Y-16337198D02*
X11882206Y-16451484D01*
X11882206Y-16451484D02*
X12006015Y-16451484D01*
X12244110Y-16451484D02*
X12244110Y-16251484D01*
X12329825Y-16451484D02*
X12329825Y-16346722D01*
X12329825Y-16346722D02*
X12320301Y-16327674D01*
X12320301Y-16327674D02*
X12301253Y-16318150D01*
X12301253Y-16318150D02*
X12272682Y-16318150D01*
X12272682Y-16318150D02*
X12253634Y-16327674D01*
X12253634Y-16327674D02*
X12244110Y-16337198D01*
X12453634Y-16451484D02*
X12434587Y-16441960D01*
X12434587Y-16441960D02*
X12425063Y-16432436D01*
X12425063Y-16432436D02*
X12415539Y-16413388D01*
X12415539Y-16413388D02*
X12415539Y-16356246D01*
X12415539Y-16356246D02*
X12425063Y-16337198D01*
X12425063Y-16337198D02*
X12434587Y-16327674D01*
X12434587Y-16327674D02*
X12453634Y-16318150D01*
X12453634Y-16318150D02*
X12482206Y-16318150D01*
X12482206Y-16318150D02*
X12501253Y-16327674D01*
X12501253Y-16327674D02*
X12510777Y-16337198D01*
X12510777Y-16337198D02*
X12520301Y-16356246D01*
X12520301Y-16356246D02*
X12520301Y-16413388D01*
X12520301Y-16413388D02*
X12510777Y-16432436D01*
X12510777Y-16432436D02*
X12501253Y-16441960D01*
X12501253Y-16441960D02*
X12482206Y-16451484D01*
X12482206Y-16451484D02*
X12453634Y-16451484D01*
X12634587Y-16451484D02*
X12615539Y-16441960D01*
X12615539Y-16441960D02*
X12606015Y-16422912D01*
X12606015Y-16422912D02*
X12606015Y-16251484D01*
X12786968Y-16441960D02*
X12767920Y-16451484D01*
X12767920Y-16451484D02*
X12729825Y-16451484D01*
X12729825Y-16451484D02*
X12710777Y-16441960D01*
X12710777Y-16441960D02*
X12701253Y-16422912D01*
X12701253Y-16422912D02*
X12701253Y-16346722D01*
X12701253Y-16346722D02*
X12710777Y-16327674D01*
X12710777Y-16327674D02*
X12729825Y-16318150D01*
X12729825Y-16318150D02*
X12767920Y-16318150D01*
X12767920Y-16318150D02*
X12786968Y-16327674D01*
X12786968Y-16327674D02*
X12796491Y-16346722D01*
X12796491Y-16346722D02*
X12796491Y-16365769D01*
X12796491Y-16365769D02*
X12701253Y-16384817D01*
X12872682Y-16441960D02*
X12891730Y-16451484D01*
X12891730Y-16451484D02*
X12929825Y-16451484D01*
X12929825Y-16451484D02*
X12948872Y-16441960D01*
X12948872Y-16441960D02*
X12958396Y-16422912D01*
X12958396Y-16422912D02*
X12958396Y-16413388D01*
X12958396Y-16413388D02*
X12948872Y-16394341D01*
X12948872Y-16394341D02*
X12929825Y-16384817D01*
X12929825Y-16384817D02*
X12901253Y-16384817D01*
X12901253Y-16384817D02*
X12882206Y-16375293D01*
X12882206Y-16375293D02*
X12872682Y-16356246D01*
X12872682Y-16356246D02*
X12872682Y-16346722D01*
X12872682Y-16346722D02*
X12882206Y-16327674D01*
X12882206Y-16327674D02*
X12901253Y-16318150D01*
X12901253Y-16318150D02*
X12929825Y-16318150D01*
X12929825Y-16318150D02*
X12948872Y-16327674D01*
X13025063Y-16527674D02*
X13034587Y-16518150D01*
X13034587Y-16518150D02*
X13053634Y-16489579D01*
X13053634Y-16489579D02*
X13063158Y-16470531D01*
X13063158Y-16470531D02*
X13072682Y-16441960D01*
X13072682Y-16441960D02*
X13082206Y-16394341D01*
X13082206Y-16394341D02*
X13082206Y-16356246D01*
X13082206Y-16356246D02*
X13072682Y-16308627D01*
X13072682Y-16308627D02*
X13063158Y-16280055D01*
X13063158Y-16280055D02*
X13053634Y-16261008D01*
X13053634Y-16261008D02*
X13034587Y-16232436D01*
X13034587Y-16232436D02*
X13025063Y-16222912D01*
X13386968Y-16527674D02*
X13377444Y-16518150D01*
X13377444Y-16518150D02*
X13358396Y-16489579D01*
X13358396Y-16489579D02*
X13348872Y-16470531D01*
X13348872Y-16470531D02*
X13339349Y-16441960D01*
X13339349Y-16441960D02*
X13329825Y-16394341D01*
X13329825Y-16394341D02*
X13329825Y-16356246D01*
X13329825Y-16356246D02*
X13339349Y-16308627D01*
X13339349Y-16308627D02*
X13348872Y-16280055D01*
X13348872Y-16280055D02*
X13358396Y-16261008D01*
X13358396Y-16261008D02*
X13377444Y-16232436D01*
X13377444Y-16232436D02*
X13386968Y-16222912D01*
X13463158Y-16318150D02*
X13463158Y-16451484D01*
X13463158Y-16337198D02*
X13472682Y-16327674D01*
X13472682Y-16327674D02*
X13491730Y-16318150D01*
X13491730Y-16318150D02*
X13520301Y-16318150D01*
X13520301Y-16318150D02*
X13539349Y-16327674D01*
X13539349Y-16327674D02*
X13548872Y-16346722D01*
X13548872Y-16346722D02*
X13548872Y-16451484D01*
X13672682Y-16451484D02*
X13653634Y-16441960D01*
X13653634Y-16441960D02*
X13644111Y-16432436D01*
X13644111Y-16432436D02*
X13634587Y-16413388D01*
X13634587Y-16413388D02*
X13634587Y-16356246D01*
X13634587Y-16356246D02*
X13644111Y-16337198D01*
X13644111Y-16337198D02*
X13653634Y-16327674D01*
X13653634Y-16327674D02*
X13672682Y-16318150D01*
X13672682Y-16318150D02*
X13701253Y-16318150D01*
X13701253Y-16318150D02*
X13720301Y-16327674D01*
X13720301Y-16327674D02*
X13729825Y-16337198D01*
X13729825Y-16337198D02*
X13739349Y-16356246D01*
X13739349Y-16356246D02*
X13739349Y-16413388D01*
X13739349Y-16413388D02*
X13729825Y-16432436D01*
X13729825Y-16432436D02*
X13720301Y-16441960D01*
X13720301Y-16441960D02*
X13701253Y-16451484D01*
X13701253Y-16451484D02*
X13672682Y-16451484D01*
X13796492Y-16318150D02*
X13872682Y-16318150D01*
X13825063Y-16251484D02*
X13825063Y-16422912D01*
X13825063Y-16422912D02*
X13834587Y-16441960D01*
X13834587Y-16441960D02*
X13853634Y-16451484D01*
X13853634Y-16451484D02*
X13872682Y-16451484D01*
X14091730Y-16318150D02*
X14091730Y-16518150D01*
X14091730Y-16327674D02*
X14110777Y-16318150D01*
X14110777Y-16318150D02*
X14148873Y-16318150D01*
X14148873Y-16318150D02*
X14167920Y-16327674D01*
X14167920Y-16327674D02*
X14177444Y-16337198D01*
X14177444Y-16337198D02*
X14186968Y-16356246D01*
X14186968Y-16356246D02*
X14186968Y-16413388D01*
X14186968Y-16413388D02*
X14177444Y-16432436D01*
X14177444Y-16432436D02*
X14167920Y-16441960D01*
X14167920Y-16441960D02*
X14148873Y-16451484D01*
X14148873Y-16451484D02*
X14110777Y-16451484D01*
X14110777Y-16451484D02*
X14091730Y-16441960D01*
X14301253Y-16451484D02*
X14282206Y-16441960D01*
X14282206Y-16441960D02*
X14272682Y-16422912D01*
X14272682Y-16422912D02*
X14272682Y-16251484D01*
X14463158Y-16451484D02*
X14463158Y-16346722D01*
X14463158Y-16346722D02*
X14453634Y-16327674D01*
X14453634Y-16327674D02*
X14434587Y-16318150D01*
X14434587Y-16318150D02*
X14396492Y-16318150D01*
X14396492Y-16318150D02*
X14377444Y-16327674D01*
X14463158Y-16441960D02*
X14444111Y-16451484D01*
X14444111Y-16451484D02*
X14396492Y-16451484D01*
X14396492Y-16451484D02*
X14377444Y-16441960D01*
X14377444Y-16441960D02*
X14367920Y-16422912D01*
X14367920Y-16422912D02*
X14367920Y-16403865D01*
X14367920Y-16403865D02*
X14377444Y-16384817D01*
X14377444Y-16384817D02*
X14396492Y-16375293D01*
X14396492Y-16375293D02*
X14444111Y-16375293D01*
X14444111Y-16375293D02*
X14463158Y-16365769D01*
X14529825Y-16318150D02*
X14606015Y-16318150D01*
X14558396Y-16251484D02*
X14558396Y-16422912D01*
X14558396Y-16422912D02*
X14567920Y-16441960D01*
X14567920Y-16441960D02*
X14586968Y-16451484D01*
X14586968Y-16451484D02*
X14606015Y-16451484D01*
X14748873Y-16441960D02*
X14729825Y-16451484D01*
X14729825Y-16451484D02*
X14691730Y-16451484D01*
X14691730Y-16451484D02*
X14672682Y-16441960D01*
X14672682Y-16441960D02*
X14663158Y-16422912D01*
X14663158Y-16422912D02*
X14663158Y-16346722D01*
X14663158Y-16346722D02*
X14672682Y-16327674D01*
X14672682Y-16327674D02*
X14691730Y-16318150D01*
X14691730Y-16318150D02*
X14729825Y-16318150D01*
X14729825Y-16318150D02*
X14748873Y-16327674D01*
X14748873Y-16327674D02*
X14758396Y-16346722D01*
X14758396Y-16346722D02*
X14758396Y-16365769D01*
X14758396Y-16365769D02*
X14663158Y-16384817D01*
X14929825Y-16451484D02*
X14929825Y-16251484D01*
X14929825Y-16441960D02*
X14910777Y-16451484D01*
X14910777Y-16451484D02*
X14872682Y-16451484D01*
X14872682Y-16451484D02*
X14853634Y-16441960D01*
X14853634Y-16441960D02*
X14844111Y-16432436D01*
X14844111Y-16432436D02*
X14834587Y-16413388D01*
X14834587Y-16413388D02*
X14834587Y-16356246D01*
X14834587Y-16356246D02*
X14844111Y-16337198D01*
X14844111Y-16337198D02*
X14853634Y-16327674D01*
X14853634Y-16327674D02*
X14872682Y-16318150D01*
X14872682Y-16318150D02*
X14910777Y-16318150D01*
X14910777Y-16318150D02*
X14929825Y-16327674D01*
X15006015Y-16527674D02*
X15015539Y-16518150D01*
X15015539Y-16518150D02*
X15034587Y-16489579D01*
X15034587Y-16489579D02*
X15044111Y-16470531D01*
X15044111Y-16470531D02*
X15053634Y-16441960D01*
X15053634Y-16441960D02*
X15063158Y-16394341D01*
X15063158Y-16394341D02*
X15063158Y-16356246D01*
X15063158Y-16356246D02*
X15053634Y-16308627D01*
X15053634Y-16308627D02*
X15044111Y-16280055D01*
X15044111Y-16280055D02*
X15034587Y-16261008D01*
X15034587Y-16261008D02*
X15015539Y-16232436D01*
X15015539Y-16232436D02*
X15006015Y-16222912D01*
D13*
X8250000Y-16630000D02*
G75*
G03*
X8250000Y-16630000I-90000J0D01*
G01*
D11*
X8615539Y-16721484D02*
X8501253Y-16721484D01*
X8558396Y-16721484D02*
X8558396Y-16521484D01*
X8558396Y-16521484D02*
X8539348Y-16550055D01*
X8539348Y-16550055D02*
X8520301Y-16569103D01*
X8520301Y-16569103D02*
X8501253Y-16578627D01*
X8701253Y-16702436D02*
X8710777Y-16711960D01*
X8710777Y-16711960D02*
X8701253Y-16721484D01*
X8701253Y-16721484D02*
X8691729Y-16711960D01*
X8691729Y-16711960D02*
X8701253Y-16702436D01*
X8701253Y-16702436D02*
X8701253Y-16721484D01*
X8825063Y-16607198D02*
X8806015Y-16597674D01*
X8806015Y-16597674D02*
X8796491Y-16588150D01*
X8796491Y-16588150D02*
X8786967Y-16569103D01*
X8786967Y-16569103D02*
X8786967Y-16559579D01*
X8786967Y-16559579D02*
X8796491Y-16540531D01*
X8796491Y-16540531D02*
X8806015Y-16531008D01*
X8806015Y-16531008D02*
X8825063Y-16521484D01*
X8825063Y-16521484D02*
X8863158Y-16521484D01*
X8863158Y-16521484D02*
X8882205Y-16531008D01*
X8882205Y-16531008D02*
X8891729Y-16540531D01*
X8891729Y-16540531D02*
X8901253Y-16559579D01*
X8901253Y-16559579D02*
X8901253Y-16569103D01*
X8901253Y-16569103D02*
X8891729Y-16588150D01*
X8891729Y-16588150D02*
X8882205Y-16597674D01*
X8882205Y-16597674D02*
X8863158Y-16607198D01*
X8863158Y-16607198D02*
X8825063Y-16607198D01*
X8825063Y-16607198D02*
X8806015Y-16616722D01*
X8806015Y-16616722D02*
X8796491Y-16626246D01*
X8796491Y-16626246D02*
X8786967Y-16645293D01*
X8786967Y-16645293D02*
X8786967Y-16683388D01*
X8786967Y-16683388D02*
X8796491Y-16702436D01*
X8796491Y-16702436D02*
X8806015Y-16711960D01*
X8806015Y-16711960D02*
X8825063Y-16721484D01*
X8825063Y-16721484D02*
X8863158Y-16721484D01*
X8863158Y-16721484D02*
X8882205Y-16711960D01*
X8882205Y-16711960D02*
X8891729Y-16702436D01*
X8891729Y-16702436D02*
X8901253Y-16683388D01*
X8901253Y-16683388D02*
X8901253Y-16645293D01*
X8901253Y-16645293D02*
X8891729Y-16626246D01*
X8891729Y-16626246D02*
X8882205Y-16616722D01*
X8882205Y-16616722D02*
X8863158Y-16607198D01*
X9025063Y-16521484D02*
X9044110Y-16521484D01*
X9044110Y-16521484D02*
X9063158Y-16531008D01*
X9063158Y-16531008D02*
X9072682Y-16540531D01*
X9072682Y-16540531D02*
X9082205Y-16559579D01*
X9082205Y-16559579D02*
X9091729Y-16597674D01*
X9091729Y-16597674D02*
X9091729Y-16645293D01*
X9091729Y-16645293D02*
X9082205Y-16683388D01*
X9082205Y-16683388D02*
X9072682Y-16702436D01*
X9072682Y-16702436D02*
X9063158Y-16711960D01*
X9063158Y-16711960D02*
X9044110Y-16721484D01*
X9044110Y-16721484D02*
X9025063Y-16721484D01*
X9025063Y-16721484D02*
X9006015Y-16711960D01*
X9006015Y-16711960D02*
X8996491Y-16702436D01*
X8996491Y-16702436D02*
X8986967Y-16683388D01*
X8986967Y-16683388D02*
X8977444Y-16645293D01*
X8977444Y-16645293D02*
X8977444Y-16597674D01*
X8977444Y-16597674D02*
X8986967Y-16559579D01*
X8986967Y-16559579D02*
X8996491Y-16540531D01*
X8996491Y-16540531D02*
X9006015Y-16531008D01*
X9006015Y-16531008D02*
X9025063Y-16521484D01*
X9215539Y-16521484D02*
X9234586Y-16521484D01*
X9234586Y-16521484D02*
X9253634Y-16531008D01*
X9253634Y-16531008D02*
X9263158Y-16540531D01*
X9263158Y-16540531D02*
X9272682Y-16559579D01*
X9272682Y-16559579D02*
X9282205Y-16597674D01*
X9282205Y-16597674D02*
X9282205Y-16645293D01*
X9282205Y-16645293D02*
X9272682Y-16683388D01*
X9272682Y-16683388D02*
X9263158Y-16702436D01*
X9263158Y-16702436D02*
X9253634Y-16711960D01*
X9253634Y-16711960D02*
X9234586Y-16721484D01*
X9234586Y-16721484D02*
X9215539Y-16721484D01*
X9215539Y-16721484D02*
X9196491Y-16711960D01*
X9196491Y-16711960D02*
X9186967Y-16702436D01*
X9186967Y-16702436D02*
X9177444Y-16683388D01*
X9177444Y-16683388D02*
X9167920Y-16645293D01*
X9167920Y-16645293D02*
X9167920Y-16597674D01*
X9167920Y-16597674D02*
X9177444Y-16559579D01*
X9177444Y-16559579D02*
X9186967Y-16540531D01*
X9186967Y-16540531D02*
X9196491Y-16531008D01*
X9196491Y-16531008D02*
X9215539Y-16521484D01*
X9367920Y-16721484D02*
X9367920Y-16588150D01*
X9367920Y-16607198D02*
X9377444Y-16597674D01*
X9377444Y-16597674D02*
X9396491Y-16588150D01*
X9396491Y-16588150D02*
X9425063Y-16588150D01*
X9425063Y-16588150D02*
X9444110Y-16597674D01*
X9444110Y-16597674D02*
X9453634Y-16616722D01*
X9453634Y-16616722D02*
X9453634Y-16721484D01*
X9453634Y-16616722D02*
X9463158Y-16597674D01*
X9463158Y-16597674D02*
X9482205Y-16588150D01*
X9482205Y-16588150D02*
X9510777Y-16588150D01*
X9510777Y-16588150D02*
X9529825Y-16597674D01*
X9529825Y-16597674D02*
X9539348Y-16616722D01*
X9539348Y-16616722D02*
X9539348Y-16721484D01*
X9634586Y-16721484D02*
X9634586Y-16588150D01*
X9634586Y-16607198D02*
X9644110Y-16597674D01*
X9644110Y-16597674D02*
X9663158Y-16588150D01*
X9663158Y-16588150D02*
X9691729Y-16588150D01*
X9691729Y-16588150D02*
X9710777Y-16597674D01*
X9710777Y-16597674D02*
X9720301Y-16616722D01*
X9720301Y-16616722D02*
X9720301Y-16721484D01*
X9720301Y-16616722D02*
X9729825Y-16597674D01*
X9729825Y-16597674D02*
X9748872Y-16588150D01*
X9748872Y-16588150D02*
X9777444Y-16588150D01*
X9777444Y-16588150D02*
X9796491Y-16597674D01*
X9796491Y-16597674D02*
X9806015Y-16616722D01*
X9806015Y-16616722D02*
X9806015Y-16721484D01*
X10196491Y-16511960D02*
X10025063Y-16769103D01*
X10453634Y-16521484D02*
X10472682Y-16521484D01*
X10472682Y-16521484D02*
X10491729Y-16531008D01*
X10491729Y-16531008D02*
X10501253Y-16540531D01*
X10501253Y-16540531D02*
X10510777Y-16559579D01*
X10510777Y-16559579D02*
X10520301Y-16597674D01*
X10520301Y-16597674D02*
X10520301Y-16645293D01*
X10520301Y-16645293D02*
X10510777Y-16683388D01*
X10510777Y-16683388D02*
X10501253Y-16702436D01*
X10501253Y-16702436D02*
X10491729Y-16711960D01*
X10491729Y-16711960D02*
X10472682Y-16721484D01*
X10472682Y-16721484D02*
X10453634Y-16721484D01*
X10453634Y-16721484D02*
X10434587Y-16711960D01*
X10434587Y-16711960D02*
X10425063Y-16702436D01*
X10425063Y-16702436D02*
X10415539Y-16683388D01*
X10415539Y-16683388D02*
X10406015Y-16645293D01*
X10406015Y-16645293D02*
X10406015Y-16597674D01*
X10406015Y-16597674D02*
X10415539Y-16559579D01*
X10415539Y-16559579D02*
X10425063Y-16540531D01*
X10425063Y-16540531D02*
X10434587Y-16531008D01*
X10434587Y-16531008D02*
X10453634Y-16521484D01*
X10606015Y-16702436D02*
X10615539Y-16711960D01*
X10615539Y-16711960D02*
X10606015Y-16721484D01*
X10606015Y-16721484D02*
X10596491Y-16711960D01*
X10596491Y-16711960D02*
X10606015Y-16702436D01*
X10606015Y-16702436D02*
X10606015Y-16721484D01*
X10739348Y-16521484D02*
X10758396Y-16521484D01*
X10758396Y-16521484D02*
X10777444Y-16531008D01*
X10777444Y-16531008D02*
X10786968Y-16540531D01*
X10786968Y-16540531D02*
X10796491Y-16559579D01*
X10796491Y-16559579D02*
X10806015Y-16597674D01*
X10806015Y-16597674D02*
X10806015Y-16645293D01*
X10806015Y-16645293D02*
X10796491Y-16683388D01*
X10796491Y-16683388D02*
X10786968Y-16702436D01*
X10786968Y-16702436D02*
X10777444Y-16711960D01*
X10777444Y-16711960D02*
X10758396Y-16721484D01*
X10758396Y-16721484D02*
X10739348Y-16721484D01*
X10739348Y-16721484D02*
X10720301Y-16711960D01*
X10720301Y-16711960D02*
X10710777Y-16702436D01*
X10710777Y-16702436D02*
X10701253Y-16683388D01*
X10701253Y-16683388D02*
X10691729Y-16645293D01*
X10691729Y-16645293D02*
X10691729Y-16597674D01*
X10691729Y-16597674D02*
X10701253Y-16559579D01*
X10701253Y-16559579D02*
X10710777Y-16540531D01*
X10710777Y-16540531D02*
X10720301Y-16531008D01*
X10720301Y-16531008D02*
X10739348Y-16521484D01*
X10872682Y-16521484D02*
X11006015Y-16521484D01*
X11006015Y-16521484D02*
X10920301Y-16721484D01*
X11120301Y-16521484D02*
X11139349Y-16521484D01*
X11139349Y-16521484D02*
X11158396Y-16531008D01*
X11158396Y-16531008D02*
X11167920Y-16540531D01*
X11167920Y-16540531D02*
X11177444Y-16559579D01*
X11177444Y-16559579D02*
X11186967Y-16597674D01*
X11186967Y-16597674D02*
X11186967Y-16645293D01*
X11186967Y-16645293D02*
X11177444Y-16683388D01*
X11177444Y-16683388D02*
X11167920Y-16702436D01*
X11167920Y-16702436D02*
X11158396Y-16711960D01*
X11158396Y-16711960D02*
X11139349Y-16721484D01*
X11139349Y-16721484D02*
X11120301Y-16721484D01*
X11120301Y-16721484D02*
X11101253Y-16711960D01*
X11101253Y-16711960D02*
X11091729Y-16702436D01*
X11091729Y-16702436D02*
X11082206Y-16683388D01*
X11082206Y-16683388D02*
X11072682Y-16645293D01*
X11072682Y-16645293D02*
X11072682Y-16597674D01*
X11072682Y-16597674D02*
X11082206Y-16559579D01*
X11082206Y-16559579D02*
X11091729Y-16540531D01*
X11091729Y-16540531D02*
X11101253Y-16531008D01*
X11101253Y-16531008D02*
X11120301Y-16521484D01*
X11282206Y-16721484D02*
X11320301Y-16721484D01*
X11320301Y-16721484D02*
X11339348Y-16711960D01*
X11339348Y-16711960D02*
X11348872Y-16702436D01*
X11348872Y-16702436D02*
X11367920Y-16673865D01*
X11367920Y-16673865D02*
X11377444Y-16635769D01*
X11377444Y-16635769D02*
X11377444Y-16559579D01*
X11377444Y-16559579D02*
X11367920Y-16540531D01*
X11367920Y-16540531D02*
X11358396Y-16531008D01*
X11358396Y-16531008D02*
X11339348Y-16521484D01*
X11339348Y-16521484D02*
X11301253Y-16521484D01*
X11301253Y-16521484D02*
X11282206Y-16531008D01*
X11282206Y-16531008D02*
X11272682Y-16540531D01*
X11272682Y-16540531D02*
X11263158Y-16559579D01*
X11263158Y-16559579D02*
X11263158Y-16607198D01*
X11263158Y-16607198D02*
X11272682Y-16626246D01*
X11272682Y-16626246D02*
X11282206Y-16635769D01*
X11282206Y-16635769D02*
X11301253Y-16645293D01*
X11301253Y-16645293D02*
X11339348Y-16645293D01*
X11339348Y-16645293D02*
X11358396Y-16635769D01*
X11358396Y-16635769D02*
X11367920Y-16626246D01*
X11367920Y-16626246D02*
X11377444Y-16607198D01*
X11453634Y-16521484D02*
X11453634Y-16559579D01*
X11529825Y-16521484D02*
X11529825Y-16559579D01*
X11825063Y-16797674D02*
X11815539Y-16788150D01*
X11815539Y-16788150D02*
X11796491Y-16759579D01*
X11796491Y-16759579D02*
X11786968Y-16740531D01*
X11786968Y-16740531D02*
X11777444Y-16711960D01*
X11777444Y-16711960D02*
X11767920Y-16664341D01*
X11767920Y-16664341D02*
X11767920Y-16626246D01*
X11767920Y-16626246D02*
X11777444Y-16578627D01*
X11777444Y-16578627D02*
X11786968Y-16550055D01*
X11786968Y-16550055D02*
X11796491Y-16531008D01*
X11796491Y-16531008D02*
X11815539Y-16502436D01*
X11815539Y-16502436D02*
X11825063Y-16492912D01*
X11891729Y-16540531D02*
X11901253Y-16531008D01*
X11901253Y-16531008D02*
X11920301Y-16521484D01*
X11920301Y-16521484D02*
X11967920Y-16521484D01*
X11967920Y-16521484D02*
X11986968Y-16531008D01*
X11986968Y-16531008D02*
X11996491Y-16540531D01*
X11996491Y-16540531D02*
X12006015Y-16559579D01*
X12006015Y-16559579D02*
X12006015Y-16578627D01*
X12006015Y-16578627D02*
X11996491Y-16607198D01*
X11996491Y-16607198D02*
X11882206Y-16721484D01*
X11882206Y-16721484D02*
X12006015Y-16721484D01*
X12244110Y-16721484D02*
X12244110Y-16521484D01*
X12329825Y-16721484D02*
X12329825Y-16616722D01*
X12329825Y-16616722D02*
X12320301Y-16597674D01*
X12320301Y-16597674D02*
X12301253Y-16588150D01*
X12301253Y-16588150D02*
X12272682Y-16588150D01*
X12272682Y-16588150D02*
X12253634Y-16597674D01*
X12253634Y-16597674D02*
X12244110Y-16607198D01*
X12453634Y-16721484D02*
X12434587Y-16711960D01*
X12434587Y-16711960D02*
X12425063Y-16702436D01*
X12425063Y-16702436D02*
X12415539Y-16683388D01*
X12415539Y-16683388D02*
X12415539Y-16626246D01*
X12415539Y-16626246D02*
X12425063Y-16607198D01*
X12425063Y-16607198D02*
X12434587Y-16597674D01*
X12434587Y-16597674D02*
X12453634Y-16588150D01*
X12453634Y-16588150D02*
X12482206Y-16588150D01*
X12482206Y-16588150D02*
X12501253Y-16597674D01*
X12501253Y-16597674D02*
X12510777Y-16607198D01*
X12510777Y-16607198D02*
X12520301Y-16626246D01*
X12520301Y-16626246D02*
X12520301Y-16683388D01*
X12520301Y-16683388D02*
X12510777Y-16702436D01*
X12510777Y-16702436D02*
X12501253Y-16711960D01*
X12501253Y-16711960D02*
X12482206Y-16721484D01*
X12482206Y-16721484D02*
X12453634Y-16721484D01*
X12634587Y-16721484D02*
X12615539Y-16711960D01*
X12615539Y-16711960D02*
X12606015Y-16692912D01*
X12606015Y-16692912D02*
X12606015Y-16521484D01*
X12786968Y-16711960D02*
X12767920Y-16721484D01*
X12767920Y-16721484D02*
X12729825Y-16721484D01*
X12729825Y-16721484D02*
X12710777Y-16711960D01*
X12710777Y-16711960D02*
X12701253Y-16692912D01*
X12701253Y-16692912D02*
X12701253Y-16616722D01*
X12701253Y-16616722D02*
X12710777Y-16597674D01*
X12710777Y-16597674D02*
X12729825Y-16588150D01*
X12729825Y-16588150D02*
X12767920Y-16588150D01*
X12767920Y-16588150D02*
X12786968Y-16597674D01*
X12786968Y-16597674D02*
X12796491Y-16616722D01*
X12796491Y-16616722D02*
X12796491Y-16635769D01*
X12796491Y-16635769D02*
X12701253Y-16654817D01*
X12872682Y-16711960D02*
X12891730Y-16721484D01*
X12891730Y-16721484D02*
X12929825Y-16721484D01*
X12929825Y-16721484D02*
X12948872Y-16711960D01*
X12948872Y-16711960D02*
X12958396Y-16692912D01*
X12958396Y-16692912D02*
X12958396Y-16683388D01*
X12958396Y-16683388D02*
X12948872Y-16664341D01*
X12948872Y-16664341D02*
X12929825Y-16654817D01*
X12929825Y-16654817D02*
X12901253Y-16654817D01*
X12901253Y-16654817D02*
X12882206Y-16645293D01*
X12882206Y-16645293D02*
X12872682Y-16626246D01*
X12872682Y-16626246D02*
X12872682Y-16616722D01*
X12872682Y-16616722D02*
X12882206Y-16597674D01*
X12882206Y-16597674D02*
X12901253Y-16588150D01*
X12901253Y-16588150D02*
X12929825Y-16588150D01*
X12929825Y-16588150D02*
X12948872Y-16597674D01*
X13025063Y-16797674D02*
X13034587Y-16788150D01*
X13034587Y-16788150D02*
X13053634Y-16759579D01*
X13053634Y-16759579D02*
X13063158Y-16740531D01*
X13063158Y-16740531D02*
X13072682Y-16711960D01*
X13072682Y-16711960D02*
X13082206Y-16664341D01*
X13082206Y-16664341D02*
X13082206Y-16626246D01*
X13082206Y-16626246D02*
X13072682Y-16578627D01*
X13072682Y-16578627D02*
X13063158Y-16550055D01*
X13063158Y-16550055D02*
X13053634Y-16531008D01*
X13053634Y-16531008D02*
X13034587Y-16502436D01*
X13034587Y-16502436D02*
X13025063Y-16492912D01*
X13386968Y-16797674D02*
X13377444Y-16788150D01*
X13377444Y-16788150D02*
X13358396Y-16759579D01*
X13358396Y-16759579D02*
X13348872Y-16740531D01*
X13348872Y-16740531D02*
X13339349Y-16711960D01*
X13339349Y-16711960D02*
X13329825Y-16664341D01*
X13329825Y-16664341D02*
X13329825Y-16626246D01*
X13329825Y-16626246D02*
X13339349Y-16578627D01*
X13339349Y-16578627D02*
X13348872Y-16550055D01*
X13348872Y-16550055D02*
X13358396Y-16531008D01*
X13358396Y-16531008D02*
X13377444Y-16502436D01*
X13377444Y-16502436D02*
X13386968Y-16492912D01*
X13463158Y-16588150D02*
X13463158Y-16721484D01*
X13463158Y-16607198D02*
X13472682Y-16597674D01*
X13472682Y-16597674D02*
X13491730Y-16588150D01*
X13491730Y-16588150D02*
X13520301Y-16588150D01*
X13520301Y-16588150D02*
X13539349Y-16597674D01*
X13539349Y-16597674D02*
X13548872Y-16616722D01*
X13548872Y-16616722D02*
X13548872Y-16721484D01*
X13672682Y-16721484D02*
X13653634Y-16711960D01*
X13653634Y-16711960D02*
X13644111Y-16702436D01*
X13644111Y-16702436D02*
X13634587Y-16683388D01*
X13634587Y-16683388D02*
X13634587Y-16626246D01*
X13634587Y-16626246D02*
X13644111Y-16607198D01*
X13644111Y-16607198D02*
X13653634Y-16597674D01*
X13653634Y-16597674D02*
X13672682Y-16588150D01*
X13672682Y-16588150D02*
X13701253Y-16588150D01*
X13701253Y-16588150D02*
X13720301Y-16597674D01*
X13720301Y-16597674D02*
X13729825Y-16607198D01*
X13729825Y-16607198D02*
X13739349Y-16626246D01*
X13739349Y-16626246D02*
X13739349Y-16683388D01*
X13739349Y-16683388D02*
X13729825Y-16702436D01*
X13729825Y-16702436D02*
X13720301Y-16711960D01*
X13720301Y-16711960D02*
X13701253Y-16721484D01*
X13701253Y-16721484D02*
X13672682Y-16721484D01*
X13796492Y-16588150D02*
X13872682Y-16588150D01*
X13825063Y-16521484D02*
X13825063Y-16692912D01*
X13825063Y-16692912D02*
X13834587Y-16711960D01*
X13834587Y-16711960D02*
X13853634Y-16721484D01*
X13853634Y-16721484D02*
X13872682Y-16721484D01*
X14091730Y-16588150D02*
X14091730Y-16788150D01*
X14091730Y-16597674D02*
X14110777Y-16588150D01*
X14110777Y-16588150D02*
X14148873Y-16588150D01*
X14148873Y-16588150D02*
X14167920Y-16597674D01*
X14167920Y-16597674D02*
X14177444Y-16607198D01*
X14177444Y-16607198D02*
X14186968Y-16626246D01*
X14186968Y-16626246D02*
X14186968Y-16683388D01*
X14186968Y-16683388D02*
X14177444Y-16702436D01*
X14177444Y-16702436D02*
X14167920Y-16711960D01*
X14167920Y-16711960D02*
X14148873Y-16721484D01*
X14148873Y-16721484D02*
X14110777Y-16721484D01*
X14110777Y-16721484D02*
X14091730Y-16711960D01*
X14301253Y-16721484D02*
X14282206Y-16711960D01*
X14282206Y-16711960D02*
X14272682Y-16692912D01*
X14272682Y-16692912D02*
X14272682Y-16521484D01*
X14463158Y-16721484D02*
X14463158Y-16616722D01*
X14463158Y-16616722D02*
X14453634Y-16597674D01*
X14453634Y-16597674D02*
X14434587Y-16588150D01*
X14434587Y-16588150D02*
X14396492Y-16588150D01*
X14396492Y-16588150D02*
X14377444Y-16597674D01*
X14463158Y-16711960D02*
X14444111Y-16721484D01*
X14444111Y-16721484D02*
X14396492Y-16721484D01*
X14396492Y-16721484D02*
X14377444Y-16711960D01*
X14377444Y-16711960D02*
X14367920Y-16692912D01*
X14367920Y-16692912D02*
X14367920Y-16673865D01*
X14367920Y-16673865D02*
X14377444Y-16654817D01*
X14377444Y-16654817D02*
X14396492Y-16645293D01*
X14396492Y-16645293D02*
X14444111Y-16645293D01*
X14444111Y-16645293D02*
X14463158Y-16635769D01*
X14529825Y-16588150D02*
X14606015Y-16588150D01*
X14558396Y-16521484D02*
X14558396Y-16692912D01*
X14558396Y-16692912D02*
X14567920Y-16711960D01*
X14567920Y-16711960D02*
X14586968Y-16721484D01*
X14586968Y-16721484D02*
X14606015Y-16721484D01*
X14748873Y-16711960D02*
X14729825Y-16721484D01*
X14729825Y-16721484D02*
X14691730Y-16721484D01*
X14691730Y-16721484D02*
X14672682Y-16711960D01*
X14672682Y-16711960D02*
X14663158Y-16692912D01*
X14663158Y-16692912D02*
X14663158Y-16616722D01*
X14663158Y-16616722D02*
X14672682Y-16597674D01*
X14672682Y-16597674D02*
X14691730Y-16588150D01*
X14691730Y-16588150D02*
X14729825Y-16588150D01*
X14729825Y-16588150D02*
X14748873Y-16597674D01*
X14748873Y-16597674D02*
X14758396Y-16616722D01*
X14758396Y-16616722D02*
X14758396Y-16635769D01*
X14758396Y-16635769D02*
X14663158Y-16654817D01*
X14929825Y-16721484D02*
X14929825Y-16521484D01*
X14929825Y-16711960D02*
X14910777Y-16721484D01*
X14910777Y-16721484D02*
X14872682Y-16721484D01*
X14872682Y-16721484D02*
X14853634Y-16711960D01*
X14853634Y-16711960D02*
X14844111Y-16702436D01*
X14844111Y-16702436D02*
X14834587Y-16683388D01*
X14834587Y-16683388D02*
X14834587Y-16626246D01*
X14834587Y-16626246D02*
X14844111Y-16607198D01*
X14844111Y-16607198D02*
X14853634Y-16597674D01*
X14853634Y-16597674D02*
X14872682Y-16588150D01*
X14872682Y-16588150D02*
X14910777Y-16588150D01*
X14910777Y-16588150D02*
X14929825Y-16597674D01*
X15006015Y-16797674D02*
X15015539Y-16788150D01*
X15015539Y-16788150D02*
X15034587Y-16759579D01*
X15034587Y-16759579D02*
X15044111Y-16740531D01*
X15044111Y-16740531D02*
X15053634Y-16711960D01*
X15053634Y-16711960D02*
X15063158Y-16664341D01*
X15063158Y-16664341D02*
X15063158Y-16626246D01*
X15063158Y-16626246D02*
X15053634Y-16578627D01*
X15053634Y-16578627D02*
X15044111Y-16550055D01*
X15044111Y-16550055D02*
X15034587Y-16531008D01*
X15034587Y-16531008D02*
X15015539Y-16502436D01*
X15015539Y-16502436D02*
X15006015Y-16492912D01*
M02*
