M48
; DRILL file {KiCad 7.0.9} date Sat 10 Feb 2024 12:43:48 AM PST
; FORMAT={-:-/ absolute / metric / decimal}
; #@! TF.CreationDate,2024-02-10T00:43:48-08:00
; #@! TF.GenerationSoftware,Kicad,Pcbnew,7.0.9
; #@! TF.FileFunction,Plated,1,2,PTH
FMAT,2
METRIC
; #@! TA.AperFunction,Plated,PTH,ViaDrill
T1C0.400
; #@! TA.AperFunction,Plated,PTH,ComponentDrill
T2C0.500
; #@! TA.AperFunction,Plated,PTH,ComponentDrill
T3C1.020
; #@! TA.AperFunction,Plated,PTH,ComponentDrill
T4C1.400
; #@! TA.AperFunction,Plated,PTH,ComponentDrill
T5C3.200
%
G90
G05
T1
X90.424Y-78.232
X90.424Y-82.296
X91.44Y-85.852
X91.44Y-88.9
X91.44Y-110.744
X91.44Y-125.476
X91.44Y-129.54
X92.456Y-78.232
X92.456Y-85.852
X92.456Y-88.9
X93.472Y-82.296
X93.472Y-85.852
X93.472Y-88.9
X94.488Y-84.836
X94.488Y-110.744
X99.06Y-140.716
X99.465Y-94.591
X100.584Y-77.216
X100.584Y-85.852
X100.584Y-89.408
X100.584Y-145.796
X101.092Y-99.568
X103.124Y-80.264
X103.124Y-83.312
X103.124Y-85.852
X103.124Y-88.9
X105.156Y-75.692
X120.396Y-73.66
X120.396Y-81.28
X120.396Y-82.296
X120.396Y-92.964
X120.396Y-96.52
X120.396Y-110.744
X123.444Y-73.66
X123.444Y-81.28
X123.444Y-82.296
X123.444Y-92.964
X123.444Y-96.52
X123.952Y-110.744
X127.508Y-81.28
X127.508Y-82.296
X127.508Y-92.964
X127.508Y-122.936
X128.524Y-65.024
X128.524Y-68.072
X128.524Y-84.328
X128.524Y-90.424
X129.54Y-81.28
X129.54Y-82.296
X129.54Y-92.964
X129.54Y-122.936
X131.572Y-66.04
X131.572Y-68.072
X133.096Y-81.28
X133.985Y-84.328
X133.985Y-90.424
X134.112Y-122.936
X134.112Y-124.968
X135.128Y-81.28
X144.272Y-131.064
X144.78Y-80.264
X144.78Y-83.312
X146.304Y-77.216
X150.876Y-75.692
X154.432Y-122.936
X154.432Y-124.968
X155.956Y-65.024
X155.956Y-66.04
X155.956Y-67.056
X155.956Y-75.184
X155.956Y-81.28
X155.956Y-82.296
X159.004Y-65.024
X159.004Y-66.04
X159.004Y-67.056
X159.004Y-75.184
X159.004Y-81.28
X159.004Y-82.296
X162.052Y-64.008
X162.052Y-67.056
X166.116Y-64.008
X166.116Y-66.04
T2
X92.596Y-69.596
X92.596Y-151.892
X93.299Y-67.899
X93.299Y-71.293
X93.299Y-150.195
X93.299Y-153.589
X94.996Y-67.196
X94.996Y-71.996
X94.996Y-149.492
X94.996Y-154.292
X96.693Y-67.899
X96.693Y-71.293
X96.693Y-150.195
X96.693Y-153.589
X97.396Y-69.596
X97.396Y-151.892
X174.892Y-69.596
X174.892Y-151.892
X175.595Y-67.899
X175.595Y-71.293
X175.595Y-150.195
X175.595Y-153.589
X177.292Y-67.196
X177.292Y-71.996
X177.292Y-149.492
X177.292Y-154.292
X178.989Y-67.899
X178.989Y-71.293
X178.989Y-150.195
X178.989Y-153.589
X179.692Y-69.596
X179.692Y-151.892
T3
X131.445Y-99.06
X131.445Y-116.84
X133.985Y-99.06
X133.985Y-116.84
X136.525Y-99.06
X136.525Y-116.84
X139.065Y-99.06
X139.065Y-116.84
X141.605Y-99.06
X141.605Y-116.84
X144.145Y-99.06
X144.145Y-116.84
X146.685Y-99.06
X146.685Y-116.84
X149.225Y-99.06
X149.225Y-116.84
X149.975Y-108.534
X149.975Y-111.074
X149.975Y-113.614
X151.765Y-99.06
X151.765Y-116.84
X154.305Y-99.06
X154.305Y-116.84
X156.845Y-99.06
X156.845Y-116.84
X159.385Y-99.06
X159.385Y-116.84
X161.925Y-99.06
X161.925Y-116.84
X164.465Y-99.06
X164.465Y-116.84
X167.005Y-99.06
X167.005Y-116.84
X169.545Y-99.06
X169.545Y-116.84
X172.085Y-99.06
X172.085Y-116.84
X174.625Y-99.06
X174.625Y-116.84
X177.165Y-99.06
X177.165Y-116.84
X179.705Y-99.06
X179.705Y-116.84
T4
X86.2Y-120.07
X86.2Y-124.07
X86.2Y-128.07
X86.2Y-132.07
X86.2Y-138.63
X86.2Y-142.63
X86.2Y-146.63
X86.36Y-74.295
X86.36Y-78.295
X86.36Y-82.295
X86.36Y-86.295
X86.36Y-92.855
X86.36Y-96.855
X86.36Y-100.855
X97.845Y-60.8
X101.845Y-60.8
X105.845Y-60.8
X112.405Y-60.8
X116.405Y-60.8
X120.405Y-60.8
X124.405Y-60.8
X143.51Y-60.96
X147.51Y-60.96
X151.51Y-60.96
X158.07Y-60.96
X162.07Y-60.96
X166.07Y-60.96
X170.07Y-60.96
T5
X94.996Y-69.596
X94.996Y-151.892
X177.292Y-69.596
X177.292Y-151.892
T0
M30
