%TF.GenerationSoftware,KiCad,Pcbnew,7.0.9*%
%TF.CreationDate,2024-02-10T00:43:47-08:00*%
%TF.ProjectId,snes_controllers_to_usb,736e6573-5f63-46f6-9e74-726f6c6c6572,A*%
%TF.SameCoordinates,Original*%
%TF.FileFunction,Drillmap*%
%TF.FilePolarity,Positive*%
%FSLAX45Y45*%
G04 Gerber Fmt 4.5, Leading zero omitted, Abs format (unit mm)*
G04 Created by KiCad (PCBNEW 7.0.9) date 2024-02-10 00:43:47*
%MOMM*%
%LPD*%
G01*
G04 APERTURE LIST*
%ADD10C,0.100000*%
%ADD11C,0.200000*%
%ADD12C,0.102000*%
%ADD13C,0.140000*%
%ADD14C,0.320000*%
G04 APERTURE END LIST*
D10*
X8255000Y-5715000D02*
X18255000Y-5715000D01*
X18255000Y-15715000D01*
X8255000Y-15715000D01*
X8255000Y-5715000D01*
D11*
D10*
X9022400Y-7803200D02*
X9062400Y-7843200D01*
X9062400Y-7803200D02*
X9022400Y-7843200D01*
X9022400Y-8209600D02*
X9062400Y-8249600D01*
X9062400Y-8209600D02*
X9022400Y-8249600D01*
X9124000Y-8565200D02*
X9164000Y-8605200D01*
X9164000Y-8565200D02*
X9124000Y-8605200D01*
X9124000Y-8870000D02*
X9164000Y-8910000D01*
X9164000Y-8870000D02*
X9124000Y-8910000D01*
X9124000Y-11054400D02*
X9164000Y-11094400D01*
X9164000Y-11054400D02*
X9124000Y-11094400D01*
X9124000Y-12527600D02*
X9164000Y-12567600D01*
X9164000Y-12527600D02*
X9124000Y-12567600D01*
X9124000Y-12934000D02*
X9164000Y-12974000D01*
X9164000Y-12934000D02*
X9124000Y-12974000D01*
X9225600Y-7803200D02*
X9265600Y-7843200D01*
X9265600Y-7803200D02*
X9225600Y-7843200D01*
X9225600Y-8565200D02*
X9265600Y-8605200D01*
X9265600Y-8565200D02*
X9225600Y-8605200D01*
X9225600Y-8870000D02*
X9265600Y-8910000D01*
X9265600Y-8870000D02*
X9225600Y-8910000D01*
X9327200Y-8209600D02*
X9367200Y-8249600D01*
X9367200Y-8209600D02*
X9327200Y-8249600D01*
X9327200Y-8565200D02*
X9367200Y-8605200D01*
X9367200Y-8565200D02*
X9327200Y-8605200D01*
X9327200Y-8870000D02*
X9367200Y-8910000D01*
X9367200Y-8870000D02*
X9327200Y-8910000D01*
X9428800Y-8463600D02*
X9468800Y-8503600D01*
X9468800Y-8463600D02*
X9428800Y-8503600D01*
X9428800Y-11054400D02*
X9468800Y-11094400D01*
X9468800Y-11054400D02*
X9428800Y-11094400D01*
X9886000Y-14051600D02*
X9926000Y-14091600D01*
X9926000Y-14051600D02*
X9886000Y-14091600D01*
X9926450Y-9439150D02*
X9966450Y-9479150D01*
X9966450Y-9439150D02*
X9926450Y-9479150D01*
X10038400Y-7701600D02*
X10078400Y-7741600D01*
X10078400Y-7701600D02*
X10038400Y-7741600D01*
X10038400Y-8565200D02*
X10078400Y-8605200D01*
X10078400Y-8565200D02*
X10038400Y-8605200D01*
X10038400Y-8920800D02*
X10078400Y-8960800D01*
X10078400Y-8920800D02*
X10038400Y-8960800D01*
X10038400Y-14559600D02*
X10078400Y-14599600D01*
X10078400Y-14559600D02*
X10038400Y-14599600D01*
X10089200Y-9936800D02*
X10129200Y-9976800D01*
X10129200Y-9936800D02*
X10089200Y-9976800D01*
X10292400Y-8006400D02*
X10332400Y-8046400D01*
X10332400Y-8006400D02*
X10292400Y-8046400D01*
X10292400Y-8311200D02*
X10332400Y-8351200D01*
X10332400Y-8311200D02*
X10292400Y-8351200D01*
X10292400Y-8565200D02*
X10332400Y-8605200D01*
X10332400Y-8565200D02*
X10292400Y-8605200D01*
X10292400Y-8870000D02*
X10332400Y-8910000D01*
X10332400Y-8870000D02*
X10292400Y-8910000D01*
X10495600Y-7549200D02*
X10535600Y-7589200D01*
X10535600Y-7549200D02*
X10495600Y-7589200D01*
X12019600Y-7346000D02*
X12059600Y-7386000D01*
X12059600Y-7346000D02*
X12019600Y-7386000D01*
X12019600Y-8108000D02*
X12059600Y-8148000D01*
X12059600Y-8108000D02*
X12019600Y-8148000D01*
X12019600Y-8209600D02*
X12059600Y-8249600D01*
X12059600Y-8209600D02*
X12019600Y-8249600D01*
X12019600Y-9276400D02*
X12059600Y-9316400D01*
X12059600Y-9276400D02*
X12019600Y-9316400D01*
X12019600Y-9632000D02*
X12059600Y-9672000D01*
X12059600Y-9632000D02*
X12019600Y-9672000D01*
X12019600Y-11054400D02*
X12059600Y-11094400D01*
X12059600Y-11054400D02*
X12019600Y-11094400D01*
X12324400Y-7346000D02*
X12364400Y-7386000D01*
X12364400Y-7346000D02*
X12324400Y-7386000D01*
X12324400Y-8108000D02*
X12364400Y-8148000D01*
X12364400Y-8108000D02*
X12324400Y-8148000D01*
X12324400Y-8209600D02*
X12364400Y-8249600D01*
X12364400Y-8209600D02*
X12324400Y-8249600D01*
X12324400Y-9276400D02*
X12364400Y-9316400D01*
X12364400Y-9276400D02*
X12324400Y-9316400D01*
X12324400Y-9632000D02*
X12364400Y-9672000D01*
X12364400Y-9632000D02*
X12324400Y-9672000D01*
X12375200Y-11054400D02*
X12415200Y-11094400D01*
X12415200Y-11054400D02*
X12375200Y-11094400D01*
X12730800Y-8108000D02*
X12770800Y-8148000D01*
X12770800Y-8108000D02*
X12730800Y-8148000D01*
X12730800Y-8209600D02*
X12770800Y-8249600D01*
X12770800Y-8209600D02*
X12730800Y-8249600D01*
X12730800Y-9276400D02*
X12770800Y-9316400D01*
X12770800Y-9276400D02*
X12730800Y-9316400D01*
X12730800Y-12273600D02*
X12770800Y-12313600D01*
X12770800Y-12273600D02*
X12730800Y-12313600D01*
X12832400Y-6482400D02*
X12872400Y-6522400D01*
X12872400Y-6482400D02*
X12832400Y-6522400D01*
X12832400Y-6787200D02*
X12872400Y-6827200D01*
X12872400Y-6787200D02*
X12832400Y-6827200D01*
X12832400Y-8412800D02*
X12872400Y-8452800D01*
X12872400Y-8412800D02*
X12832400Y-8452800D01*
X12832400Y-9022400D02*
X12872400Y-9062400D01*
X12872400Y-9022400D02*
X12832400Y-9062400D01*
X12934000Y-8108000D02*
X12974000Y-8148000D01*
X12974000Y-8108000D02*
X12934000Y-8148000D01*
X12934000Y-8209600D02*
X12974000Y-8249600D01*
X12974000Y-8209600D02*
X12934000Y-8249600D01*
X12934000Y-9276400D02*
X12974000Y-9316400D01*
X12974000Y-9276400D02*
X12934000Y-9316400D01*
X12934000Y-12273600D02*
X12974000Y-12313600D01*
X12974000Y-12273600D02*
X12934000Y-12313600D01*
X13137200Y-6584000D02*
X13177200Y-6624000D01*
X13177200Y-6584000D02*
X13137200Y-6624000D01*
X13137200Y-6787200D02*
X13177200Y-6827200D01*
X13177200Y-6787200D02*
X13137200Y-6827200D01*
X13289600Y-8108000D02*
X13329600Y-8148000D01*
X13329600Y-8108000D02*
X13289600Y-8148000D01*
X13378500Y-8412800D02*
X13418500Y-8452800D01*
X13418500Y-8412800D02*
X13378500Y-8452800D01*
X13378500Y-9022400D02*
X13418500Y-9062400D01*
X13418500Y-9022400D02*
X13378500Y-9062400D01*
X13391200Y-12273600D02*
X13431200Y-12313600D01*
X13431200Y-12273600D02*
X13391200Y-12313600D01*
X13391200Y-12476800D02*
X13431200Y-12516800D01*
X13431200Y-12476800D02*
X13391200Y-12516800D01*
X13492800Y-8108000D02*
X13532800Y-8148000D01*
X13532800Y-8108000D02*
X13492800Y-8148000D01*
X14407200Y-13086400D02*
X14447200Y-13126400D01*
X14447200Y-13086400D02*
X14407200Y-13126400D01*
X14458000Y-8006400D02*
X14498000Y-8046400D01*
X14498000Y-8006400D02*
X14458000Y-8046400D01*
X14458000Y-8311200D02*
X14498000Y-8351200D01*
X14498000Y-8311200D02*
X14458000Y-8351200D01*
X14610400Y-7701600D02*
X14650400Y-7741600D01*
X14650400Y-7701600D02*
X14610400Y-7741600D01*
X15067600Y-7549200D02*
X15107600Y-7589200D01*
X15107600Y-7549200D02*
X15067600Y-7589200D01*
X15423200Y-12273600D02*
X15463200Y-12313600D01*
X15463200Y-12273600D02*
X15423200Y-12313600D01*
X15423200Y-12476800D02*
X15463200Y-12516800D01*
X15463200Y-12476800D02*
X15423200Y-12516800D01*
X15575600Y-6482400D02*
X15615600Y-6522400D01*
X15615600Y-6482400D02*
X15575600Y-6522400D01*
X15575600Y-6584000D02*
X15615600Y-6624000D01*
X15615600Y-6584000D02*
X15575600Y-6624000D01*
X15575600Y-6685600D02*
X15615600Y-6725600D01*
X15615600Y-6685600D02*
X15575600Y-6725600D01*
X15575600Y-7498400D02*
X15615600Y-7538400D01*
X15615600Y-7498400D02*
X15575600Y-7538400D01*
X15575600Y-8108000D02*
X15615600Y-8148000D01*
X15615600Y-8108000D02*
X15575600Y-8148000D01*
X15575600Y-8209600D02*
X15615600Y-8249600D01*
X15615600Y-8209600D02*
X15575600Y-8249600D01*
X15880400Y-6482400D02*
X15920400Y-6522400D01*
X15920400Y-6482400D02*
X15880400Y-6522400D01*
X15880400Y-6584000D02*
X15920400Y-6624000D01*
X15920400Y-6584000D02*
X15880400Y-6624000D01*
X15880400Y-6685600D02*
X15920400Y-6725600D01*
X15920400Y-6685600D02*
X15880400Y-6725600D01*
X15880400Y-7498400D02*
X15920400Y-7538400D01*
X15920400Y-7498400D02*
X15880400Y-7538400D01*
X15880400Y-8108000D02*
X15920400Y-8148000D01*
X15920400Y-8108000D02*
X15880400Y-8148000D01*
X15880400Y-8209600D02*
X15920400Y-8249600D01*
X15920400Y-8209600D02*
X15880400Y-8249600D01*
X16185200Y-6380800D02*
X16225200Y-6420800D01*
X16225200Y-6380800D02*
X16185200Y-6420800D01*
X16185200Y-6685600D02*
X16225200Y-6725600D01*
X16225200Y-6685600D02*
X16185200Y-6725600D01*
X16591600Y-6380800D02*
X16631600Y-6420800D01*
X16631600Y-6380800D02*
X16591600Y-6420800D01*
X16591600Y-6584000D02*
X16631600Y-6624000D01*
X16631600Y-6584000D02*
X16591600Y-6624000D01*
X9284600Y-6959600D02*
G75*
G03*
X9284600Y-6959600I-25000J0D01*
G01*
X9284600Y-15189200D02*
G75*
G03*
X9284600Y-15189200I-25000J0D01*
G01*
X9354894Y-6789894D02*
G75*
G03*
X9354894Y-6789894I-25000J0D01*
G01*
X9354894Y-7129306D02*
G75*
G03*
X9354894Y-7129306I-25000J0D01*
G01*
X9354894Y-15019494D02*
G75*
G03*
X9354894Y-15019494I-25000J0D01*
G01*
X9354894Y-15358906D02*
G75*
G03*
X9354894Y-15358906I-25000J0D01*
G01*
X9524600Y-6719600D02*
G75*
G03*
X9524600Y-6719600I-25000J0D01*
G01*
X9524600Y-7199600D02*
G75*
G03*
X9524600Y-7199600I-25000J0D01*
G01*
X9524600Y-14949200D02*
G75*
G03*
X9524600Y-14949200I-25000J0D01*
G01*
X9524600Y-15429200D02*
G75*
G03*
X9524600Y-15429200I-25000J0D01*
G01*
X9694306Y-6789894D02*
G75*
G03*
X9694306Y-6789894I-25000J0D01*
G01*
X9694306Y-7129306D02*
G75*
G03*
X9694306Y-7129306I-25000J0D01*
G01*
X9694306Y-15019494D02*
G75*
G03*
X9694306Y-15019494I-25000J0D01*
G01*
X9694306Y-15358906D02*
G75*
G03*
X9694306Y-15358906I-25000J0D01*
G01*
X9764600Y-6959600D02*
G75*
G03*
X9764600Y-6959600I-25000J0D01*
G01*
X9764600Y-15189200D02*
G75*
G03*
X9764600Y-15189200I-25000J0D01*
G01*
X17514200Y-6959600D02*
G75*
G03*
X17514200Y-6959600I-25000J0D01*
G01*
X17514200Y-15189200D02*
G75*
G03*
X17514200Y-15189200I-25000J0D01*
G01*
X17584494Y-6789894D02*
G75*
G03*
X17584494Y-6789894I-25000J0D01*
G01*
X17584494Y-7129306D02*
G75*
G03*
X17584494Y-7129306I-25000J0D01*
G01*
X17584494Y-15019494D02*
G75*
G03*
X17584494Y-15019494I-25000J0D01*
G01*
X17584494Y-15358906D02*
G75*
G03*
X17584494Y-15358906I-25000J0D01*
G01*
X17754200Y-6719600D02*
G75*
G03*
X17754200Y-6719600I-25000J0D01*
G01*
X17754200Y-7199600D02*
G75*
G03*
X17754200Y-7199600I-25000J0D01*
G01*
X17754200Y-14949200D02*
G75*
G03*
X17754200Y-14949200I-25000J0D01*
G01*
X17754200Y-15429200D02*
G75*
G03*
X17754200Y-15429200I-25000J0D01*
G01*
X17923906Y-6789894D02*
G75*
G03*
X17923906Y-6789894I-25000J0D01*
G01*
X17923906Y-7129306D02*
G75*
G03*
X17923906Y-7129306I-25000J0D01*
G01*
X17923906Y-15019494D02*
G75*
G03*
X17923906Y-15019494I-25000J0D01*
G01*
X17923906Y-15358906D02*
G75*
G03*
X17923906Y-15358906I-25000J0D01*
G01*
X17994200Y-6959600D02*
G75*
G03*
X17994200Y-6959600I-25000J0D01*
G01*
X17994200Y-15189200D02*
G75*
G03*
X17994200Y-15189200I-25000J0D01*
G01*
D12*
X13144500Y-9855000D02*
X13144500Y-9957000D01*
X13093500Y-9906000D02*
X13195500Y-9906000D01*
X13144500Y-11633000D02*
X13144500Y-11735000D01*
X13093500Y-11684000D02*
X13195500Y-11684000D01*
X13398500Y-9855000D02*
X13398500Y-9957000D01*
X13347500Y-9906000D02*
X13449500Y-9906000D01*
X13398500Y-11633000D02*
X13398500Y-11735000D01*
X13347500Y-11684000D02*
X13449500Y-11684000D01*
X13652500Y-9855000D02*
X13652500Y-9957000D01*
X13601500Y-9906000D02*
X13703500Y-9906000D01*
X13652500Y-11633000D02*
X13652500Y-11735000D01*
X13601500Y-11684000D02*
X13703500Y-11684000D01*
X13906500Y-9855000D02*
X13906500Y-9957000D01*
X13855500Y-9906000D02*
X13957500Y-9906000D01*
X13906500Y-11633000D02*
X13906500Y-11735000D01*
X13855500Y-11684000D02*
X13957500Y-11684000D01*
X14160500Y-9855000D02*
X14160500Y-9957000D01*
X14109500Y-9906000D02*
X14211500Y-9906000D01*
X14160500Y-11633000D02*
X14160500Y-11735000D01*
X14109500Y-11684000D02*
X14211500Y-11684000D01*
X14414500Y-9855000D02*
X14414500Y-9957000D01*
X14363500Y-9906000D02*
X14465500Y-9906000D01*
X14414500Y-11633000D02*
X14414500Y-11735000D01*
X14363500Y-11684000D02*
X14465500Y-11684000D01*
X14668500Y-9855000D02*
X14668500Y-9957000D01*
X14617500Y-9906000D02*
X14719500Y-9906000D01*
X14668500Y-11633000D02*
X14668500Y-11735000D01*
X14617500Y-11684000D02*
X14719500Y-11684000D01*
X14922500Y-9855000D02*
X14922500Y-9957000D01*
X14871500Y-9906000D02*
X14973500Y-9906000D01*
X14922500Y-11633000D02*
X14922500Y-11735000D01*
X14871500Y-11684000D02*
X14973500Y-11684000D01*
X14997500Y-10802410D02*
X14997500Y-10904410D01*
X14946500Y-10853410D02*
X15048500Y-10853410D01*
X14997500Y-11056410D02*
X14997500Y-11158410D01*
X14946500Y-11107410D02*
X15048500Y-11107410D01*
X14997500Y-11310410D02*
X14997500Y-11412410D01*
X14946500Y-11361410D02*
X15048500Y-11361410D01*
X15176500Y-9855000D02*
X15176500Y-9957000D01*
X15125500Y-9906000D02*
X15227500Y-9906000D01*
X15176500Y-11633000D02*
X15176500Y-11735000D01*
X15125500Y-11684000D02*
X15227500Y-11684000D01*
X15430500Y-9855000D02*
X15430500Y-9957000D01*
X15379500Y-9906000D02*
X15481500Y-9906000D01*
X15430500Y-11633000D02*
X15430500Y-11735000D01*
X15379500Y-11684000D02*
X15481500Y-11684000D01*
X15684500Y-9855000D02*
X15684500Y-9957000D01*
X15633500Y-9906000D02*
X15735500Y-9906000D01*
X15684500Y-11633000D02*
X15684500Y-11735000D01*
X15633500Y-11684000D02*
X15735500Y-11684000D01*
X15938500Y-9855000D02*
X15938500Y-9957000D01*
X15887500Y-9906000D02*
X15989500Y-9906000D01*
X15938500Y-11633000D02*
X15938500Y-11735000D01*
X15887500Y-11684000D02*
X15989500Y-11684000D01*
X16192500Y-9855000D02*
X16192500Y-9957000D01*
X16141500Y-9906000D02*
X16243500Y-9906000D01*
X16192500Y-11633000D02*
X16192500Y-11735000D01*
X16141500Y-11684000D02*
X16243500Y-11684000D01*
X16446500Y-9855000D02*
X16446500Y-9957000D01*
X16395500Y-9906000D02*
X16497500Y-9906000D01*
X16446500Y-11633000D02*
X16446500Y-11735000D01*
X16395500Y-11684000D02*
X16497500Y-11684000D01*
X16700500Y-9855000D02*
X16700500Y-9957000D01*
X16649500Y-9906000D02*
X16751500Y-9906000D01*
X16700500Y-11633000D02*
X16700500Y-11735000D01*
X16649500Y-11684000D02*
X16751500Y-11684000D01*
X16954500Y-9855000D02*
X16954500Y-9957000D01*
X16903500Y-9906000D02*
X17005500Y-9906000D01*
X16954500Y-11633000D02*
X16954500Y-11735000D01*
X16903500Y-11684000D02*
X17005500Y-11684000D01*
X17208500Y-9855000D02*
X17208500Y-9957000D01*
X17157500Y-9906000D02*
X17259500Y-9906000D01*
X17208500Y-11633000D02*
X17208500Y-11735000D01*
X17157500Y-11684000D02*
X17259500Y-11684000D01*
X17462500Y-9855000D02*
X17462500Y-9957000D01*
X17411500Y-9906000D02*
X17513500Y-9906000D01*
X17462500Y-11633000D02*
X17462500Y-11735000D01*
X17411500Y-11684000D02*
X17513500Y-11684000D01*
X17716500Y-9855000D02*
X17716500Y-9957000D01*
X17665500Y-9906000D02*
X17767500Y-9906000D01*
X17716500Y-11633000D02*
X17716500Y-11735000D01*
X17665500Y-11684000D02*
X17767500Y-11684000D01*
X17970500Y-9855000D02*
X17970500Y-9957000D01*
X17919500Y-9906000D02*
X18021500Y-9906000D01*
X17970500Y-11633000D02*
X17970500Y-11735000D01*
X17919500Y-11684000D02*
X18021500Y-11684000D01*
D13*
X8669498Y-12056498D02*
X8669498Y-11957502D01*
X8570502Y-11957502D01*
X8570502Y-12056498D01*
X8669498Y-12056498D01*
X8669498Y-12456498D02*
X8669498Y-12357502D01*
X8570502Y-12357502D01*
X8570502Y-12456498D01*
X8669498Y-12456498D01*
X8669498Y-12856498D02*
X8669498Y-12757502D01*
X8570502Y-12757502D01*
X8570502Y-12856498D01*
X8669498Y-12856498D01*
X8669498Y-13256498D02*
X8669498Y-13157502D01*
X8570502Y-13157502D01*
X8570502Y-13256498D01*
X8669498Y-13256498D01*
X8669498Y-13912498D02*
X8669498Y-13813502D01*
X8570502Y-13813502D01*
X8570502Y-13912498D01*
X8669498Y-13912498D01*
X8669498Y-14312498D02*
X8669498Y-14213502D01*
X8570502Y-14213502D01*
X8570502Y-14312498D01*
X8669498Y-14312498D01*
X8669498Y-14712498D02*
X8669498Y-14613502D01*
X8570502Y-14613502D01*
X8570502Y-14712498D01*
X8669498Y-14712498D01*
X8685498Y-7478998D02*
X8685498Y-7380002D01*
X8586502Y-7380002D01*
X8586502Y-7478998D01*
X8685498Y-7478998D01*
X8685498Y-7878998D02*
X8685498Y-7780002D01*
X8586502Y-7780002D01*
X8586502Y-7878998D01*
X8685498Y-7878998D01*
X8685498Y-8278998D02*
X8685498Y-8180002D01*
X8586502Y-8180002D01*
X8586502Y-8278998D01*
X8685498Y-8278998D01*
X8685498Y-8678998D02*
X8685498Y-8580002D01*
X8586502Y-8580002D01*
X8586502Y-8678998D01*
X8685498Y-8678998D01*
X8685498Y-9334998D02*
X8685498Y-9236002D01*
X8586502Y-9236002D01*
X8586502Y-9334998D01*
X8685498Y-9334998D01*
X8685498Y-9734998D02*
X8685498Y-9636002D01*
X8586502Y-9636002D01*
X8586502Y-9734998D01*
X8685498Y-9734998D01*
X8685498Y-10134998D02*
X8685498Y-10036002D01*
X8586502Y-10036002D01*
X8586502Y-10134998D01*
X8685498Y-10134998D01*
X9833998Y-6129498D02*
X9833998Y-6030502D01*
X9735002Y-6030502D01*
X9735002Y-6129498D01*
X9833998Y-6129498D01*
X10233998Y-6129498D02*
X10233998Y-6030502D01*
X10135002Y-6030502D01*
X10135002Y-6129498D01*
X10233998Y-6129498D01*
X10633998Y-6129498D02*
X10633998Y-6030502D01*
X10535002Y-6030502D01*
X10535002Y-6129498D01*
X10633998Y-6129498D01*
X11289998Y-6129498D02*
X11289998Y-6030502D01*
X11191002Y-6030502D01*
X11191002Y-6129498D01*
X11289998Y-6129498D01*
X11689998Y-6129498D02*
X11689998Y-6030502D01*
X11591002Y-6030502D01*
X11591002Y-6129498D01*
X11689998Y-6129498D01*
X12089998Y-6129498D02*
X12089998Y-6030502D01*
X11991002Y-6030502D01*
X11991002Y-6129498D01*
X12089998Y-6129498D01*
X12489998Y-6129498D02*
X12489998Y-6030502D01*
X12391002Y-6030502D01*
X12391002Y-6129498D01*
X12489998Y-6129498D01*
X14400498Y-6145498D02*
X14400498Y-6046502D01*
X14301502Y-6046502D01*
X14301502Y-6145498D01*
X14400498Y-6145498D01*
X14800498Y-6145498D02*
X14800498Y-6046502D01*
X14701502Y-6046502D01*
X14701502Y-6145498D01*
X14800498Y-6145498D01*
X15200498Y-6145498D02*
X15200498Y-6046502D01*
X15101502Y-6046502D01*
X15101502Y-6145498D01*
X15200498Y-6145498D01*
X15856498Y-6145498D02*
X15856498Y-6046502D01*
X15757502Y-6046502D01*
X15757502Y-6145498D01*
X15856498Y-6145498D01*
X16256498Y-6145498D02*
X16256498Y-6046502D01*
X16157502Y-6046502D01*
X16157502Y-6145498D01*
X16256498Y-6145498D01*
X16656498Y-6145498D02*
X16656498Y-6046502D01*
X16557502Y-6046502D01*
X16557502Y-6145498D01*
X16656498Y-6145498D01*
X17056498Y-6145498D02*
X17056498Y-6046502D01*
X16957502Y-6046502D01*
X16957502Y-6145498D01*
X17056498Y-6145498D01*
D14*
X9499600Y-7119600D02*
X9659600Y-6959600D01*
X9499600Y-6799600D01*
X9339600Y-6959600D01*
X9499600Y-7119600D01*
X9499600Y-15349200D02*
X9659600Y-15189200D01*
X9499600Y-15029200D01*
X9339600Y-15189200D01*
X9499600Y-15349200D01*
X17729200Y-7119600D02*
X17889200Y-6959600D01*
X17729200Y-6799600D01*
X17569200Y-6959600D01*
X17729200Y-7119600D01*
X17729200Y-15349200D02*
X17889200Y-15189200D01*
X17729200Y-15029200D01*
X17569200Y-15189200D01*
X17729200Y-15349200D01*
D11*
X8510777Y-16031484D02*
X8510777Y-15831484D01*
X8510777Y-15831484D02*
X8558396Y-15831484D01*
X8558396Y-15831484D02*
X8586967Y-15841008D01*
X8586967Y-15841008D02*
X8606015Y-15860055D01*
X8606015Y-15860055D02*
X8615539Y-15879103D01*
X8615539Y-15879103D02*
X8625063Y-15917198D01*
X8625063Y-15917198D02*
X8625063Y-15945769D01*
X8625063Y-15945769D02*
X8615539Y-15983865D01*
X8615539Y-15983865D02*
X8606015Y-16002912D01*
X8606015Y-16002912D02*
X8586967Y-16021960D01*
X8586967Y-16021960D02*
X8558396Y-16031484D01*
X8558396Y-16031484D02*
X8510777Y-16031484D01*
X8710777Y-16031484D02*
X8710777Y-15898150D01*
X8710777Y-15936246D02*
X8720301Y-15917198D01*
X8720301Y-15917198D02*
X8729824Y-15907674D01*
X8729824Y-15907674D02*
X8748872Y-15898150D01*
X8748872Y-15898150D02*
X8767920Y-15898150D01*
X8834586Y-16031484D02*
X8834586Y-15898150D01*
X8834586Y-15831484D02*
X8825063Y-15841008D01*
X8825063Y-15841008D02*
X8834586Y-15850531D01*
X8834586Y-15850531D02*
X8844110Y-15841008D01*
X8844110Y-15841008D02*
X8834586Y-15831484D01*
X8834586Y-15831484D02*
X8834586Y-15850531D01*
X8958396Y-16031484D02*
X8939348Y-16021960D01*
X8939348Y-16021960D02*
X8929824Y-16002912D01*
X8929824Y-16002912D02*
X8929824Y-15831484D01*
X9063158Y-16031484D02*
X9044110Y-16021960D01*
X9044110Y-16021960D02*
X9034586Y-16002912D01*
X9034586Y-16002912D02*
X9034586Y-15831484D01*
X9291729Y-16031484D02*
X9291729Y-15831484D01*
X9291729Y-15831484D02*
X9358396Y-15974341D01*
X9358396Y-15974341D02*
X9425063Y-15831484D01*
X9425063Y-15831484D02*
X9425063Y-16031484D01*
X9606015Y-16031484D02*
X9606015Y-15926722D01*
X9606015Y-15926722D02*
X9596491Y-15907674D01*
X9596491Y-15907674D02*
X9577444Y-15898150D01*
X9577444Y-15898150D02*
X9539348Y-15898150D01*
X9539348Y-15898150D02*
X9520301Y-15907674D01*
X9606015Y-16021960D02*
X9586967Y-16031484D01*
X9586967Y-16031484D02*
X9539348Y-16031484D01*
X9539348Y-16031484D02*
X9520301Y-16021960D01*
X9520301Y-16021960D02*
X9510777Y-16002912D01*
X9510777Y-16002912D02*
X9510777Y-15983865D01*
X9510777Y-15983865D02*
X9520301Y-15964817D01*
X9520301Y-15964817D02*
X9539348Y-15955293D01*
X9539348Y-15955293D02*
X9586967Y-15955293D01*
X9586967Y-15955293D02*
X9606015Y-15945769D01*
X9701253Y-15898150D02*
X9701253Y-16098150D01*
X9701253Y-15907674D02*
X9720301Y-15898150D01*
X9720301Y-15898150D02*
X9758396Y-15898150D01*
X9758396Y-15898150D02*
X9777444Y-15907674D01*
X9777444Y-15907674D02*
X9786967Y-15917198D01*
X9786967Y-15917198D02*
X9796491Y-15936246D01*
X9796491Y-15936246D02*
X9796491Y-15993388D01*
X9796491Y-15993388D02*
X9786967Y-16012436D01*
X9786967Y-16012436D02*
X9777444Y-16021960D01*
X9777444Y-16021960D02*
X9758396Y-16031484D01*
X9758396Y-16031484D02*
X9720301Y-16031484D01*
X9720301Y-16031484D02*
X9701253Y-16021960D01*
X9882205Y-16012436D02*
X9891729Y-16021960D01*
X9891729Y-16021960D02*
X9882205Y-16031484D01*
X9882205Y-16031484D02*
X9872682Y-16021960D01*
X9872682Y-16021960D02*
X9882205Y-16012436D01*
X9882205Y-16012436D02*
X9882205Y-16031484D01*
X9882205Y-15907674D02*
X9891729Y-15917198D01*
X9891729Y-15917198D02*
X9882205Y-15926722D01*
X9882205Y-15926722D02*
X9872682Y-15917198D01*
X9872682Y-15917198D02*
X9882205Y-15907674D01*
X9882205Y-15907674D02*
X9882205Y-15926722D01*
D10*
X8210000Y-16340000D02*
X8250000Y-16380000D01*
X8250000Y-16340000D02*
X8210000Y-16380000D01*
D11*
X8548872Y-16251484D02*
X8567920Y-16251484D01*
X8567920Y-16251484D02*
X8586967Y-16261008D01*
X8586967Y-16261008D02*
X8596491Y-16270531D01*
X8596491Y-16270531D02*
X8606015Y-16289579D01*
X8606015Y-16289579D02*
X8615539Y-16327674D01*
X8615539Y-16327674D02*
X8615539Y-16375293D01*
X8615539Y-16375293D02*
X8606015Y-16413388D01*
X8606015Y-16413388D02*
X8596491Y-16432436D01*
X8596491Y-16432436D02*
X8586967Y-16441960D01*
X8586967Y-16441960D02*
X8567920Y-16451484D01*
X8567920Y-16451484D02*
X8548872Y-16451484D01*
X8548872Y-16451484D02*
X8529824Y-16441960D01*
X8529824Y-16441960D02*
X8520301Y-16432436D01*
X8520301Y-16432436D02*
X8510777Y-16413388D01*
X8510777Y-16413388D02*
X8501253Y-16375293D01*
X8501253Y-16375293D02*
X8501253Y-16327674D01*
X8501253Y-16327674D02*
X8510777Y-16289579D01*
X8510777Y-16289579D02*
X8520301Y-16270531D01*
X8520301Y-16270531D02*
X8529824Y-16261008D01*
X8529824Y-16261008D02*
X8548872Y-16251484D01*
X8701253Y-16432436D02*
X8710777Y-16441960D01*
X8710777Y-16441960D02*
X8701253Y-16451484D01*
X8701253Y-16451484D02*
X8691729Y-16441960D01*
X8691729Y-16441960D02*
X8701253Y-16432436D01*
X8701253Y-16432436D02*
X8701253Y-16451484D01*
X8882205Y-16318150D02*
X8882205Y-16451484D01*
X8834586Y-16241960D02*
X8786967Y-16384817D01*
X8786967Y-16384817D02*
X8910777Y-16384817D01*
X9025063Y-16251484D02*
X9044110Y-16251484D01*
X9044110Y-16251484D02*
X9063158Y-16261008D01*
X9063158Y-16261008D02*
X9072682Y-16270531D01*
X9072682Y-16270531D02*
X9082205Y-16289579D01*
X9082205Y-16289579D02*
X9091729Y-16327674D01*
X9091729Y-16327674D02*
X9091729Y-16375293D01*
X9091729Y-16375293D02*
X9082205Y-16413388D01*
X9082205Y-16413388D02*
X9072682Y-16432436D01*
X9072682Y-16432436D02*
X9063158Y-16441960D01*
X9063158Y-16441960D02*
X9044110Y-16451484D01*
X9044110Y-16451484D02*
X9025063Y-16451484D01*
X9025063Y-16451484D02*
X9006015Y-16441960D01*
X9006015Y-16441960D02*
X8996491Y-16432436D01*
X8996491Y-16432436D02*
X8986967Y-16413388D01*
X8986967Y-16413388D02*
X8977444Y-16375293D01*
X8977444Y-16375293D02*
X8977444Y-16327674D01*
X8977444Y-16327674D02*
X8986967Y-16289579D01*
X8986967Y-16289579D02*
X8996491Y-16270531D01*
X8996491Y-16270531D02*
X9006015Y-16261008D01*
X9006015Y-16261008D02*
X9025063Y-16251484D01*
X9215539Y-16251484D02*
X9234586Y-16251484D01*
X9234586Y-16251484D02*
X9253634Y-16261008D01*
X9253634Y-16261008D02*
X9263158Y-16270531D01*
X9263158Y-16270531D02*
X9272682Y-16289579D01*
X9272682Y-16289579D02*
X9282205Y-16327674D01*
X9282205Y-16327674D02*
X9282205Y-16375293D01*
X9282205Y-16375293D02*
X9272682Y-16413388D01*
X9272682Y-16413388D02*
X9263158Y-16432436D01*
X9263158Y-16432436D02*
X9253634Y-16441960D01*
X9253634Y-16441960D02*
X9234586Y-16451484D01*
X9234586Y-16451484D02*
X9215539Y-16451484D01*
X9215539Y-16451484D02*
X9196491Y-16441960D01*
X9196491Y-16441960D02*
X9186967Y-16432436D01*
X9186967Y-16432436D02*
X9177444Y-16413388D01*
X9177444Y-16413388D02*
X9167920Y-16375293D01*
X9167920Y-16375293D02*
X9167920Y-16327674D01*
X9167920Y-16327674D02*
X9177444Y-16289579D01*
X9177444Y-16289579D02*
X9186967Y-16270531D01*
X9186967Y-16270531D02*
X9196491Y-16261008D01*
X9196491Y-16261008D02*
X9215539Y-16251484D01*
X9367920Y-16451484D02*
X9367920Y-16318150D01*
X9367920Y-16337198D02*
X9377444Y-16327674D01*
X9377444Y-16327674D02*
X9396491Y-16318150D01*
X9396491Y-16318150D02*
X9425063Y-16318150D01*
X9425063Y-16318150D02*
X9444110Y-16327674D01*
X9444110Y-16327674D02*
X9453634Y-16346722D01*
X9453634Y-16346722D02*
X9453634Y-16451484D01*
X9453634Y-16346722D02*
X9463158Y-16327674D01*
X9463158Y-16327674D02*
X9482205Y-16318150D01*
X9482205Y-16318150D02*
X9510777Y-16318150D01*
X9510777Y-16318150D02*
X9529825Y-16327674D01*
X9529825Y-16327674D02*
X9539348Y-16346722D01*
X9539348Y-16346722D02*
X9539348Y-16451484D01*
X9634586Y-16451484D02*
X9634586Y-16318150D01*
X9634586Y-16337198D02*
X9644110Y-16327674D01*
X9644110Y-16327674D02*
X9663158Y-16318150D01*
X9663158Y-16318150D02*
X9691729Y-16318150D01*
X9691729Y-16318150D02*
X9710777Y-16327674D01*
X9710777Y-16327674D02*
X9720301Y-16346722D01*
X9720301Y-16346722D02*
X9720301Y-16451484D01*
X9720301Y-16346722D02*
X9729825Y-16327674D01*
X9729825Y-16327674D02*
X9748872Y-16318150D01*
X9748872Y-16318150D02*
X9777444Y-16318150D01*
X9777444Y-16318150D02*
X9796491Y-16327674D01*
X9796491Y-16327674D02*
X9806015Y-16346722D01*
X9806015Y-16346722D02*
X9806015Y-16451484D01*
X10196491Y-16241960D02*
X10025063Y-16499103D01*
X10453634Y-16251484D02*
X10472682Y-16251484D01*
X10472682Y-16251484D02*
X10491729Y-16261008D01*
X10491729Y-16261008D02*
X10501253Y-16270531D01*
X10501253Y-16270531D02*
X10510777Y-16289579D01*
X10510777Y-16289579D02*
X10520301Y-16327674D01*
X10520301Y-16327674D02*
X10520301Y-16375293D01*
X10520301Y-16375293D02*
X10510777Y-16413388D01*
X10510777Y-16413388D02*
X10501253Y-16432436D01*
X10501253Y-16432436D02*
X10491729Y-16441960D01*
X10491729Y-16441960D02*
X10472682Y-16451484D01*
X10472682Y-16451484D02*
X10453634Y-16451484D01*
X10453634Y-16451484D02*
X10434587Y-16441960D01*
X10434587Y-16441960D02*
X10425063Y-16432436D01*
X10425063Y-16432436D02*
X10415539Y-16413388D01*
X10415539Y-16413388D02*
X10406015Y-16375293D01*
X10406015Y-16375293D02*
X10406015Y-16327674D01*
X10406015Y-16327674D02*
X10415539Y-16289579D01*
X10415539Y-16289579D02*
X10425063Y-16270531D01*
X10425063Y-16270531D02*
X10434587Y-16261008D01*
X10434587Y-16261008D02*
X10453634Y-16251484D01*
X10606015Y-16432436D02*
X10615539Y-16441960D01*
X10615539Y-16441960D02*
X10606015Y-16451484D01*
X10606015Y-16451484D02*
X10596491Y-16441960D01*
X10596491Y-16441960D02*
X10606015Y-16432436D01*
X10606015Y-16432436D02*
X10606015Y-16451484D01*
X10739348Y-16251484D02*
X10758396Y-16251484D01*
X10758396Y-16251484D02*
X10777444Y-16261008D01*
X10777444Y-16261008D02*
X10786968Y-16270531D01*
X10786968Y-16270531D02*
X10796491Y-16289579D01*
X10796491Y-16289579D02*
X10806015Y-16327674D01*
X10806015Y-16327674D02*
X10806015Y-16375293D01*
X10806015Y-16375293D02*
X10796491Y-16413388D01*
X10796491Y-16413388D02*
X10786968Y-16432436D01*
X10786968Y-16432436D02*
X10777444Y-16441960D01*
X10777444Y-16441960D02*
X10758396Y-16451484D01*
X10758396Y-16451484D02*
X10739348Y-16451484D01*
X10739348Y-16451484D02*
X10720301Y-16441960D01*
X10720301Y-16441960D02*
X10710777Y-16432436D01*
X10710777Y-16432436D02*
X10701253Y-16413388D01*
X10701253Y-16413388D02*
X10691729Y-16375293D01*
X10691729Y-16375293D02*
X10691729Y-16327674D01*
X10691729Y-16327674D02*
X10701253Y-16289579D01*
X10701253Y-16289579D02*
X10710777Y-16270531D01*
X10710777Y-16270531D02*
X10720301Y-16261008D01*
X10720301Y-16261008D02*
X10739348Y-16251484D01*
X10996491Y-16451484D02*
X10882206Y-16451484D01*
X10939348Y-16451484D02*
X10939348Y-16251484D01*
X10939348Y-16251484D02*
X10920301Y-16280055D01*
X10920301Y-16280055D02*
X10901253Y-16299103D01*
X10901253Y-16299103D02*
X10882206Y-16308627D01*
X11177444Y-16251484D02*
X11082206Y-16251484D01*
X11082206Y-16251484D02*
X11072682Y-16346722D01*
X11072682Y-16346722D02*
X11082206Y-16337198D01*
X11082206Y-16337198D02*
X11101253Y-16327674D01*
X11101253Y-16327674D02*
X11148872Y-16327674D01*
X11148872Y-16327674D02*
X11167920Y-16337198D01*
X11167920Y-16337198D02*
X11177444Y-16346722D01*
X11177444Y-16346722D02*
X11186967Y-16365769D01*
X11186967Y-16365769D02*
X11186967Y-16413388D01*
X11186967Y-16413388D02*
X11177444Y-16432436D01*
X11177444Y-16432436D02*
X11167920Y-16441960D01*
X11167920Y-16441960D02*
X11148872Y-16451484D01*
X11148872Y-16451484D02*
X11101253Y-16451484D01*
X11101253Y-16451484D02*
X11082206Y-16441960D01*
X11082206Y-16441960D02*
X11072682Y-16432436D01*
X11253634Y-16251484D02*
X11386967Y-16251484D01*
X11386967Y-16251484D02*
X11301253Y-16451484D01*
X11453634Y-16251484D02*
X11453634Y-16289579D01*
X11529825Y-16251484D02*
X11529825Y-16289579D01*
X11825063Y-16527674D02*
X11815539Y-16518150D01*
X11815539Y-16518150D02*
X11796491Y-16489579D01*
X11796491Y-16489579D02*
X11786968Y-16470531D01*
X11786968Y-16470531D02*
X11777444Y-16441960D01*
X11777444Y-16441960D02*
X11767920Y-16394341D01*
X11767920Y-16394341D02*
X11767920Y-16356246D01*
X11767920Y-16356246D02*
X11777444Y-16308627D01*
X11777444Y-16308627D02*
X11786968Y-16280055D01*
X11786968Y-16280055D02*
X11796491Y-16261008D01*
X11796491Y-16261008D02*
X11815539Y-16232436D01*
X11815539Y-16232436D02*
X11825063Y-16222912D01*
X11929825Y-16337198D02*
X11910777Y-16327674D01*
X11910777Y-16327674D02*
X11901253Y-16318150D01*
X11901253Y-16318150D02*
X11891729Y-16299103D01*
X11891729Y-16299103D02*
X11891729Y-16289579D01*
X11891729Y-16289579D02*
X11901253Y-16270531D01*
X11901253Y-16270531D02*
X11910777Y-16261008D01*
X11910777Y-16261008D02*
X11929825Y-16251484D01*
X11929825Y-16251484D02*
X11967920Y-16251484D01*
X11967920Y-16251484D02*
X11986968Y-16261008D01*
X11986968Y-16261008D02*
X11996491Y-16270531D01*
X11996491Y-16270531D02*
X12006015Y-16289579D01*
X12006015Y-16289579D02*
X12006015Y-16299103D01*
X12006015Y-16299103D02*
X11996491Y-16318150D01*
X11996491Y-16318150D02*
X11986968Y-16327674D01*
X11986968Y-16327674D02*
X11967920Y-16337198D01*
X11967920Y-16337198D02*
X11929825Y-16337198D01*
X11929825Y-16337198D02*
X11910777Y-16346722D01*
X11910777Y-16346722D02*
X11901253Y-16356246D01*
X11901253Y-16356246D02*
X11891729Y-16375293D01*
X11891729Y-16375293D02*
X11891729Y-16413388D01*
X11891729Y-16413388D02*
X11901253Y-16432436D01*
X11901253Y-16432436D02*
X11910777Y-16441960D01*
X11910777Y-16441960D02*
X11929825Y-16451484D01*
X11929825Y-16451484D02*
X11967920Y-16451484D01*
X11967920Y-16451484D02*
X11986968Y-16441960D01*
X11986968Y-16441960D02*
X11996491Y-16432436D01*
X11996491Y-16432436D02*
X12006015Y-16413388D01*
X12006015Y-16413388D02*
X12006015Y-16375293D01*
X12006015Y-16375293D02*
X11996491Y-16356246D01*
X11996491Y-16356246D02*
X11986968Y-16346722D01*
X11986968Y-16346722D02*
X11967920Y-16337198D01*
X12082206Y-16270531D02*
X12091729Y-16261008D01*
X12091729Y-16261008D02*
X12110777Y-16251484D01*
X12110777Y-16251484D02*
X12158396Y-16251484D01*
X12158396Y-16251484D02*
X12177444Y-16261008D01*
X12177444Y-16261008D02*
X12186968Y-16270531D01*
X12186968Y-16270531D02*
X12196491Y-16289579D01*
X12196491Y-16289579D02*
X12196491Y-16308627D01*
X12196491Y-16308627D02*
X12186968Y-16337198D01*
X12186968Y-16337198D02*
X12072682Y-16451484D01*
X12072682Y-16451484D02*
X12196491Y-16451484D01*
X12434587Y-16451484D02*
X12434587Y-16251484D01*
X12520301Y-16451484D02*
X12520301Y-16346722D01*
X12520301Y-16346722D02*
X12510777Y-16327674D01*
X12510777Y-16327674D02*
X12491730Y-16318150D01*
X12491730Y-16318150D02*
X12463158Y-16318150D01*
X12463158Y-16318150D02*
X12444110Y-16327674D01*
X12444110Y-16327674D02*
X12434587Y-16337198D01*
X12644110Y-16451484D02*
X12625063Y-16441960D01*
X12625063Y-16441960D02*
X12615539Y-16432436D01*
X12615539Y-16432436D02*
X12606015Y-16413388D01*
X12606015Y-16413388D02*
X12606015Y-16356246D01*
X12606015Y-16356246D02*
X12615539Y-16337198D01*
X12615539Y-16337198D02*
X12625063Y-16327674D01*
X12625063Y-16327674D02*
X12644110Y-16318150D01*
X12644110Y-16318150D02*
X12672682Y-16318150D01*
X12672682Y-16318150D02*
X12691730Y-16327674D01*
X12691730Y-16327674D02*
X12701253Y-16337198D01*
X12701253Y-16337198D02*
X12710777Y-16356246D01*
X12710777Y-16356246D02*
X12710777Y-16413388D01*
X12710777Y-16413388D02*
X12701253Y-16432436D01*
X12701253Y-16432436D02*
X12691730Y-16441960D01*
X12691730Y-16441960D02*
X12672682Y-16451484D01*
X12672682Y-16451484D02*
X12644110Y-16451484D01*
X12825063Y-16451484D02*
X12806015Y-16441960D01*
X12806015Y-16441960D02*
X12796491Y-16422912D01*
X12796491Y-16422912D02*
X12796491Y-16251484D01*
X12977444Y-16441960D02*
X12958396Y-16451484D01*
X12958396Y-16451484D02*
X12920301Y-16451484D01*
X12920301Y-16451484D02*
X12901253Y-16441960D01*
X12901253Y-16441960D02*
X12891730Y-16422912D01*
X12891730Y-16422912D02*
X12891730Y-16346722D01*
X12891730Y-16346722D02*
X12901253Y-16327674D01*
X12901253Y-16327674D02*
X12920301Y-16318150D01*
X12920301Y-16318150D02*
X12958396Y-16318150D01*
X12958396Y-16318150D02*
X12977444Y-16327674D01*
X12977444Y-16327674D02*
X12986968Y-16346722D01*
X12986968Y-16346722D02*
X12986968Y-16365769D01*
X12986968Y-16365769D02*
X12891730Y-16384817D01*
X13063158Y-16441960D02*
X13082206Y-16451484D01*
X13082206Y-16451484D02*
X13120301Y-16451484D01*
X13120301Y-16451484D02*
X13139349Y-16441960D01*
X13139349Y-16441960D02*
X13148872Y-16422912D01*
X13148872Y-16422912D02*
X13148872Y-16413388D01*
X13148872Y-16413388D02*
X13139349Y-16394341D01*
X13139349Y-16394341D02*
X13120301Y-16384817D01*
X13120301Y-16384817D02*
X13091730Y-16384817D01*
X13091730Y-16384817D02*
X13072682Y-16375293D01*
X13072682Y-16375293D02*
X13063158Y-16356246D01*
X13063158Y-16356246D02*
X13063158Y-16346722D01*
X13063158Y-16346722D02*
X13072682Y-16327674D01*
X13072682Y-16327674D02*
X13091730Y-16318150D01*
X13091730Y-16318150D02*
X13120301Y-16318150D01*
X13120301Y-16318150D02*
X13139349Y-16327674D01*
X13215539Y-16527674D02*
X13225063Y-16518150D01*
X13225063Y-16518150D02*
X13244111Y-16489579D01*
X13244111Y-16489579D02*
X13253634Y-16470531D01*
X13253634Y-16470531D02*
X13263158Y-16441960D01*
X13263158Y-16441960D02*
X13272682Y-16394341D01*
X13272682Y-16394341D02*
X13272682Y-16356246D01*
X13272682Y-16356246D02*
X13263158Y-16308627D01*
X13263158Y-16308627D02*
X13253634Y-16280055D01*
X13253634Y-16280055D02*
X13244111Y-16261008D01*
X13244111Y-16261008D02*
X13225063Y-16232436D01*
X13225063Y-16232436D02*
X13215539Y-16222912D01*
D10*
X8250000Y-16624000D02*
G75*
G03*
X8250000Y-16624000I-25000J0D01*
G01*
D11*
X8548872Y-16515484D02*
X8567920Y-16515484D01*
X8567920Y-16515484D02*
X8586967Y-16525008D01*
X8586967Y-16525008D02*
X8596491Y-16534531D01*
X8596491Y-16534531D02*
X8606015Y-16553579D01*
X8606015Y-16553579D02*
X8615539Y-16591674D01*
X8615539Y-16591674D02*
X8615539Y-16639293D01*
X8615539Y-16639293D02*
X8606015Y-16677388D01*
X8606015Y-16677388D02*
X8596491Y-16696436D01*
X8596491Y-16696436D02*
X8586967Y-16705960D01*
X8586967Y-16705960D02*
X8567920Y-16715484D01*
X8567920Y-16715484D02*
X8548872Y-16715484D01*
X8548872Y-16715484D02*
X8529824Y-16705960D01*
X8529824Y-16705960D02*
X8520301Y-16696436D01*
X8520301Y-16696436D02*
X8510777Y-16677388D01*
X8510777Y-16677388D02*
X8501253Y-16639293D01*
X8501253Y-16639293D02*
X8501253Y-16591674D01*
X8501253Y-16591674D02*
X8510777Y-16553579D01*
X8510777Y-16553579D02*
X8520301Y-16534531D01*
X8520301Y-16534531D02*
X8529824Y-16525008D01*
X8529824Y-16525008D02*
X8548872Y-16515484D01*
X8701253Y-16696436D02*
X8710777Y-16705960D01*
X8710777Y-16705960D02*
X8701253Y-16715484D01*
X8701253Y-16715484D02*
X8691729Y-16705960D01*
X8691729Y-16705960D02*
X8701253Y-16696436D01*
X8701253Y-16696436D02*
X8701253Y-16715484D01*
X8891729Y-16515484D02*
X8796491Y-16515484D01*
X8796491Y-16515484D02*
X8786967Y-16610722D01*
X8786967Y-16610722D02*
X8796491Y-16601198D01*
X8796491Y-16601198D02*
X8815539Y-16591674D01*
X8815539Y-16591674D02*
X8863158Y-16591674D01*
X8863158Y-16591674D02*
X8882205Y-16601198D01*
X8882205Y-16601198D02*
X8891729Y-16610722D01*
X8891729Y-16610722D02*
X8901253Y-16629769D01*
X8901253Y-16629769D02*
X8901253Y-16677388D01*
X8901253Y-16677388D02*
X8891729Y-16696436D01*
X8891729Y-16696436D02*
X8882205Y-16705960D01*
X8882205Y-16705960D02*
X8863158Y-16715484D01*
X8863158Y-16715484D02*
X8815539Y-16715484D01*
X8815539Y-16715484D02*
X8796491Y-16705960D01*
X8796491Y-16705960D02*
X8786967Y-16696436D01*
X9025063Y-16515484D02*
X9044110Y-16515484D01*
X9044110Y-16515484D02*
X9063158Y-16525008D01*
X9063158Y-16525008D02*
X9072682Y-16534531D01*
X9072682Y-16534531D02*
X9082205Y-16553579D01*
X9082205Y-16553579D02*
X9091729Y-16591674D01*
X9091729Y-16591674D02*
X9091729Y-16639293D01*
X9091729Y-16639293D02*
X9082205Y-16677388D01*
X9082205Y-16677388D02*
X9072682Y-16696436D01*
X9072682Y-16696436D02*
X9063158Y-16705960D01*
X9063158Y-16705960D02*
X9044110Y-16715484D01*
X9044110Y-16715484D02*
X9025063Y-16715484D01*
X9025063Y-16715484D02*
X9006015Y-16705960D01*
X9006015Y-16705960D02*
X8996491Y-16696436D01*
X8996491Y-16696436D02*
X8986967Y-16677388D01*
X8986967Y-16677388D02*
X8977444Y-16639293D01*
X8977444Y-16639293D02*
X8977444Y-16591674D01*
X8977444Y-16591674D02*
X8986967Y-16553579D01*
X8986967Y-16553579D02*
X8996491Y-16534531D01*
X8996491Y-16534531D02*
X9006015Y-16525008D01*
X9006015Y-16525008D02*
X9025063Y-16515484D01*
X9215539Y-16515484D02*
X9234586Y-16515484D01*
X9234586Y-16515484D02*
X9253634Y-16525008D01*
X9253634Y-16525008D02*
X9263158Y-16534531D01*
X9263158Y-16534531D02*
X9272682Y-16553579D01*
X9272682Y-16553579D02*
X9282205Y-16591674D01*
X9282205Y-16591674D02*
X9282205Y-16639293D01*
X9282205Y-16639293D02*
X9272682Y-16677388D01*
X9272682Y-16677388D02*
X9263158Y-16696436D01*
X9263158Y-16696436D02*
X9253634Y-16705960D01*
X9253634Y-16705960D02*
X9234586Y-16715484D01*
X9234586Y-16715484D02*
X9215539Y-16715484D01*
X9215539Y-16715484D02*
X9196491Y-16705960D01*
X9196491Y-16705960D02*
X9186967Y-16696436D01*
X9186967Y-16696436D02*
X9177444Y-16677388D01*
X9177444Y-16677388D02*
X9167920Y-16639293D01*
X9167920Y-16639293D02*
X9167920Y-16591674D01*
X9167920Y-16591674D02*
X9177444Y-16553579D01*
X9177444Y-16553579D02*
X9186967Y-16534531D01*
X9186967Y-16534531D02*
X9196491Y-16525008D01*
X9196491Y-16525008D02*
X9215539Y-16515484D01*
X9367920Y-16715484D02*
X9367920Y-16582150D01*
X9367920Y-16601198D02*
X9377444Y-16591674D01*
X9377444Y-16591674D02*
X9396491Y-16582150D01*
X9396491Y-16582150D02*
X9425063Y-16582150D01*
X9425063Y-16582150D02*
X9444110Y-16591674D01*
X9444110Y-16591674D02*
X9453634Y-16610722D01*
X9453634Y-16610722D02*
X9453634Y-16715484D01*
X9453634Y-16610722D02*
X9463158Y-16591674D01*
X9463158Y-16591674D02*
X9482205Y-16582150D01*
X9482205Y-16582150D02*
X9510777Y-16582150D01*
X9510777Y-16582150D02*
X9529825Y-16591674D01*
X9529825Y-16591674D02*
X9539348Y-16610722D01*
X9539348Y-16610722D02*
X9539348Y-16715484D01*
X9634586Y-16715484D02*
X9634586Y-16582150D01*
X9634586Y-16601198D02*
X9644110Y-16591674D01*
X9644110Y-16591674D02*
X9663158Y-16582150D01*
X9663158Y-16582150D02*
X9691729Y-16582150D01*
X9691729Y-16582150D02*
X9710777Y-16591674D01*
X9710777Y-16591674D02*
X9720301Y-16610722D01*
X9720301Y-16610722D02*
X9720301Y-16715484D01*
X9720301Y-16610722D02*
X9729825Y-16591674D01*
X9729825Y-16591674D02*
X9748872Y-16582150D01*
X9748872Y-16582150D02*
X9777444Y-16582150D01*
X9777444Y-16582150D02*
X9796491Y-16591674D01*
X9796491Y-16591674D02*
X9806015Y-16610722D01*
X9806015Y-16610722D02*
X9806015Y-16715484D01*
X10196491Y-16505960D02*
X10025063Y-16763103D01*
X10453634Y-16515484D02*
X10472682Y-16515484D01*
X10472682Y-16515484D02*
X10491729Y-16525008D01*
X10491729Y-16525008D02*
X10501253Y-16534531D01*
X10501253Y-16534531D02*
X10510777Y-16553579D01*
X10510777Y-16553579D02*
X10520301Y-16591674D01*
X10520301Y-16591674D02*
X10520301Y-16639293D01*
X10520301Y-16639293D02*
X10510777Y-16677388D01*
X10510777Y-16677388D02*
X10501253Y-16696436D01*
X10501253Y-16696436D02*
X10491729Y-16705960D01*
X10491729Y-16705960D02*
X10472682Y-16715484D01*
X10472682Y-16715484D02*
X10453634Y-16715484D01*
X10453634Y-16715484D02*
X10434587Y-16705960D01*
X10434587Y-16705960D02*
X10425063Y-16696436D01*
X10425063Y-16696436D02*
X10415539Y-16677388D01*
X10415539Y-16677388D02*
X10406015Y-16639293D01*
X10406015Y-16639293D02*
X10406015Y-16591674D01*
X10406015Y-16591674D02*
X10415539Y-16553579D01*
X10415539Y-16553579D02*
X10425063Y-16534531D01*
X10425063Y-16534531D02*
X10434587Y-16525008D01*
X10434587Y-16525008D02*
X10453634Y-16515484D01*
X10606015Y-16696436D02*
X10615539Y-16705960D01*
X10615539Y-16705960D02*
X10606015Y-16715484D01*
X10606015Y-16715484D02*
X10596491Y-16705960D01*
X10596491Y-16705960D02*
X10606015Y-16696436D01*
X10606015Y-16696436D02*
X10606015Y-16715484D01*
X10739348Y-16515484D02*
X10758396Y-16515484D01*
X10758396Y-16515484D02*
X10777444Y-16525008D01*
X10777444Y-16525008D02*
X10786968Y-16534531D01*
X10786968Y-16534531D02*
X10796491Y-16553579D01*
X10796491Y-16553579D02*
X10806015Y-16591674D01*
X10806015Y-16591674D02*
X10806015Y-16639293D01*
X10806015Y-16639293D02*
X10796491Y-16677388D01*
X10796491Y-16677388D02*
X10786968Y-16696436D01*
X10786968Y-16696436D02*
X10777444Y-16705960D01*
X10777444Y-16705960D02*
X10758396Y-16715484D01*
X10758396Y-16715484D02*
X10739348Y-16715484D01*
X10739348Y-16715484D02*
X10720301Y-16705960D01*
X10720301Y-16705960D02*
X10710777Y-16696436D01*
X10710777Y-16696436D02*
X10701253Y-16677388D01*
X10701253Y-16677388D02*
X10691729Y-16639293D01*
X10691729Y-16639293D02*
X10691729Y-16591674D01*
X10691729Y-16591674D02*
X10701253Y-16553579D01*
X10701253Y-16553579D02*
X10710777Y-16534531D01*
X10710777Y-16534531D02*
X10720301Y-16525008D01*
X10720301Y-16525008D02*
X10739348Y-16515484D01*
X10996491Y-16715484D02*
X10882206Y-16715484D01*
X10939348Y-16715484D02*
X10939348Y-16515484D01*
X10939348Y-16515484D02*
X10920301Y-16544055D01*
X10920301Y-16544055D02*
X10901253Y-16563103D01*
X10901253Y-16563103D02*
X10882206Y-16572627D01*
X11091729Y-16715484D02*
X11129825Y-16715484D01*
X11129825Y-16715484D02*
X11148872Y-16705960D01*
X11148872Y-16705960D02*
X11158396Y-16696436D01*
X11158396Y-16696436D02*
X11177444Y-16667865D01*
X11177444Y-16667865D02*
X11186967Y-16629769D01*
X11186967Y-16629769D02*
X11186967Y-16553579D01*
X11186967Y-16553579D02*
X11177444Y-16534531D01*
X11177444Y-16534531D02*
X11167920Y-16525008D01*
X11167920Y-16525008D02*
X11148872Y-16515484D01*
X11148872Y-16515484D02*
X11110777Y-16515484D01*
X11110777Y-16515484D02*
X11091729Y-16525008D01*
X11091729Y-16525008D02*
X11082206Y-16534531D01*
X11082206Y-16534531D02*
X11072682Y-16553579D01*
X11072682Y-16553579D02*
X11072682Y-16601198D01*
X11072682Y-16601198D02*
X11082206Y-16620246D01*
X11082206Y-16620246D02*
X11091729Y-16629769D01*
X11091729Y-16629769D02*
X11110777Y-16639293D01*
X11110777Y-16639293D02*
X11148872Y-16639293D01*
X11148872Y-16639293D02*
X11167920Y-16629769D01*
X11167920Y-16629769D02*
X11177444Y-16620246D01*
X11177444Y-16620246D02*
X11186967Y-16601198D01*
X11253634Y-16515484D02*
X11386967Y-16515484D01*
X11386967Y-16515484D02*
X11301253Y-16715484D01*
X11453634Y-16515484D02*
X11453634Y-16553579D01*
X11529825Y-16515484D02*
X11529825Y-16553579D01*
X11825063Y-16791674D02*
X11815539Y-16782150D01*
X11815539Y-16782150D02*
X11796491Y-16753579D01*
X11796491Y-16753579D02*
X11786968Y-16734531D01*
X11786968Y-16734531D02*
X11777444Y-16705960D01*
X11777444Y-16705960D02*
X11767920Y-16658341D01*
X11767920Y-16658341D02*
X11767920Y-16620246D01*
X11767920Y-16620246D02*
X11777444Y-16572627D01*
X11777444Y-16572627D02*
X11786968Y-16544055D01*
X11786968Y-16544055D02*
X11796491Y-16525008D01*
X11796491Y-16525008D02*
X11815539Y-16496436D01*
X11815539Y-16496436D02*
X11825063Y-16486912D01*
X11882206Y-16515484D02*
X12006015Y-16515484D01*
X12006015Y-16515484D02*
X11939348Y-16591674D01*
X11939348Y-16591674D02*
X11967920Y-16591674D01*
X11967920Y-16591674D02*
X11986968Y-16601198D01*
X11986968Y-16601198D02*
X11996491Y-16610722D01*
X11996491Y-16610722D02*
X12006015Y-16629769D01*
X12006015Y-16629769D02*
X12006015Y-16677388D01*
X12006015Y-16677388D02*
X11996491Y-16696436D01*
X11996491Y-16696436D02*
X11986968Y-16705960D01*
X11986968Y-16705960D02*
X11967920Y-16715484D01*
X11967920Y-16715484D02*
X11910777Y-16715484D01*
X11910777Y-16715484D02*
X11891729Y-16705960D01*
X11891729Y-16705960D02*
X11882206Y-16696436D01*
X12082206Y-16534531D02*
X12091729Y-16525008D01*
X12091729Y-16525008D02*
X12110777Y-16515484D01*
X12110777Y-16515484D02*
X12158396Y-16515484D01*
X12158396Y-16515484D02*
X12177444Y-16525008D01*
X12177444Y-16525008D02*
X12186968Y-16534531D01*
X12186968Y-16534531D02*
X12196491Y-16553579D01*
X12196491Y-16553579D02*
X12196491Y-16572627D01*
X12196491Y-16572627D02*
X12186968Y-16601198D01*
X12186968Y-16601198D02*
X12072682Y-16715484D01*
X12072682Y-16715484D02*
X12196491Y-16715484D01*
X12434587Y-16715484D02*
X12434587Y-16515484D01*
X12520301Y-16715484D02*
X12520301Y-16610722D01*
X12520301Y-16610722D02*
X12510777Y-16591674D01*
X12510777Y-16591674D02*
X12491730Y-16582150D01*
X12491730Y-16582150D02*
X12463158Y-16582150D01*
X12463158Y-16582150D02*
X12444110Y-16591674D01*
X12444110Y-16591674D02*
X12434587Y-16601198D01*
X12644110Y-16715484D02*
X12625063Y-16705960D01*
X12625063Y-16705960D02*
X12615539Y-16696436D01*
X12615539Y-16696436D02*
X12606015Y-16677388D01*
X12606015Y-16677388D02*
X12606015Y-16620246D01*
X12606015Y-16620246D02*
X12615539Y-16601198D01*
X12615539Y-16601198D02*
X12625063Y-16591674D01*
X12625063Y-16591674D02*
X12644110Y-16582150D01*
X12644110Y-16582150D02*
X12672682Y-16582150D01*
X12672682Y-16582150D02*
X12691730Y-16591674D01*
X12691730Y-16591674D02*
X12701253Y-16601198D01*
X12701253Y-16601198D02*
X12710777Y-16620246D01*
X12710777Y-16620246D02*
X12710777Y-16677388D01*
X12710777Y-16677388D02*
X12701253Y-16696436D01*
X12701253Y-16696436D02*
X12691730Y-16705960D01*
X12691730Y-16705960D02*
X12672682Y-16715484D01*
X12672682Y-16715484D02*
X12644110Y-16715484D01*
X12825063Y-16715484D02*
X12806015Y-16705960D01*
X12806015Y-16705960D02*
X12796491Y-16686912D01*
X12796491Y-16686912D02*
X12796491Y-16515484D01*
X12977444Y-16705960D02*
X12958396Y-16715484D01*
X12958396Y-16715484D02*
X12920301Y-16715484D01*
X12920301Y-16715484D02*
X12901253Y-16705960D01*
X12901253Y-16705960D02*
X12891730Y-16686912D01*
X12891730Y-16686912D02*
X12891730Y-16610722D01*
X12891730Y-16610722D02*
X12901253Y-16591674D01*
X12901253Y-16591674D02*
X12920301Y-16582150D01*
X12920301Y-16582150D02*
X12958396Y-16582150D01*
X12958396Y-16582150D02*
X12977444Y-16591674D01*
X12977444Y-16591674D02*
X12986968Y-16610722D01*
X12986968Y-16610722D02*
X12986968Y-16629769D01*
X12986968Y-16629769D02*
X12891730Y-16648817D01*
X13063158Y-16705960D02*
X13082206Y-16715484D01*
X13082206Y-16715484D02*
X13120301Y-16715484D01*
X13120301Y-16715484D02*
X13139349Y-16705960D01*
X13139349Y-16705960D02*
X13148872Y-16686912D01*
X13148872Y-16686912D02*
X13148872Y-16677388D01*
X13148872Y-16677388D02*
X13139349Y-16658341D01*
X13139349Y-16658341D02*
X13120301Y-16648817D01*
X13120301Y-16648817D02*
X13091730Y-16648817D01*
X13091730Y-16648817D02*
X13072682Y-16639293D01*
X13072682Y-16639293D02*
X13063158Y-16620246D01*
X13063158Y-16620246D02*
X13063158Y-16610722D01*
X13063158Y-16610722D02*
X13072682Y-16591674D01*
X13072682Y-16591674D02*
X13091730Y-16582150D01*
X13091730Y-16582150D02*
X13120301Y-16582150D01*
X13120301Y-16582150D02*
X13139349Y-16591674D01*
X13215539Y-16791674D02*
X13225063Y-16782150D01*
X13225063Y-16782150D02*
X13244111Y-16753579D01*
X13244111Y-16753579D02*
X13253634Y-16734531D01*
X13253634Y-16734531D02*
X13263158Y-16705960D01*
X13263158Y-16705960D02*
X13272682Y-16658341D01*
X13272682Y-16658341D02*
X13272682Y-16620246D01*
X13272682Y-16620246D02*
X13263158Y-16572627D01*
X13263158Y-16572627D02*
X13253634Y-16544055D01*
X13253634Y-16544055D02*
X13244111Y-16525008D01*
X13244111Y-16525008D02*
X13225063Y-16496436D01*
X13225063Y-16496436D02*
X13215539Y-16486912D01*
D12*
X8199000Y-16837000D02*
X8199000Y-16939000D01*
X8148000Y-16888000D02*
X8250000Y-16888000D01*
D11*
X8615539Y-16979484D02*
X8501253Y-16979484D01*
X8558396Y-16979484D02*
X8558396Y-16779484D01*
X8558396Y-16779484D02*
X8539348Y-16808055D01*
X8539348Y-16808055D02*
X8520301Y-16827103D01*
X8520301Y-16827103D02*
X8501253Y-16836627D01*
X8701253Y-16960436D02*
X8710777Y-16969960D01*
X8710777Y-16969960D02*
X8701253Y-16979484D01*
X8701253Y-16979484D02*
X8691729Y-16969960D01*
X8691729Y-16969960D02*
X8701253Y-16960436D01*
X8701253Y-16960436D02*
X8701253Y-16979484D01*
X8834586Y-16779484D02*
X8853634Y-16779484D01*
X8853634Y-16779484D02*
X8872682Y-16789008D01*
X8872682Y-16789008D02*
X8882205Y-16798531D01*
X8882205Y-16798531D02*
X8891729Y-16817579D01*
X8891729Y-16817579D02*
X8901253Y-16855674D01*
X8901253Y-16855674D02*
X8901253Y-16903293D01*
X8901253Y-16903293D02*
X8891729Y-16941389D01*
X8891729Y-16941389D02*
X8882205Y-16960436D01*
X8882205Y-16960436D02*
X8872682Y-16969960D01*
X8872682Y-16969960D02*
X8853634Y-16979484D01*
X8853634Y-16979484D02*
X8834586Y-16979484D01*
X8834586Y-16979484D02*
X8815539Y-16969960D01*
X8815539Y-16969960D02*
X8806015Y-16960436D01*
X8806015Y-16960436D02*
X8796491Y-16941389D01*
X8796491Y-16941389D02*
X8786967Y-16903293D01*
X8786967Y-16903293D02*
X8786967Y-16855674D01*
X8786967Y-16855674D02*
X8796491Y-16817579D01*
X8796491Y-16817579D02*
X8806015Y-16798531D01*
X8806015Y-16798531D02*
X8815539Y-16789008D01*
X8815539Y-16789008D02*
X8834586Y-16779484D01*
X8977444Y-16798531D02*
X8986967Y-16789008D01*
X8986967Y-16789008D02*
X9006015Y-16779484D01*
X9006015Y-16779484D02*
X9053634Y-16779484D01*
X9053634Y-16779484D02*
X9072682Y-16789008D01*
X9072682Y-16789008D02*
X9082205Y-16798531D01*
X9082205Y-16798531D02*
X9091729Y-16817579D01*
X9091729Y-16817579D02*
X9091729Y-16836627D01*
X9091729Y-16836627D02*
X9082205Y-16865198D01*
X9082205Y-16865198D02*
X8967920Y-16979484D01*
X8967920Y-16979484D02*
X9091729Y-16979484D01*
X9215539Y-16779484D02*
X9234586Y-16779484D01*
X9234586Y-16779484D02*
X9253634Y-16789008D01*
X9253634Y-16789008D02*
X9263158Y-16798531D01*
X9263158Y-16798531D02*
X9272682Y-16817579D01*
X9272682Y-16817579D02*
X9282205Y-16855674D01*
X9282205Y-16855674D02*
X9282205Y-16903293D01*
X9282205Y-16903293D02*
X9272682Y-16941389D01*
X9272682Y-16941389D02*
X9263158Y-16960436D01*
X9263158Y-16960436D02*
X9253634Y-16969960D01*
X9253634Y-16969960D02*
X9234586Y-16979484D01*
X9234586Y-16979484D02*
X9215539Y-16979484D01*
X9215539Y-16979484D02*
X9196491Y-16969960D01*
X9196491Y-16969960D02*
X9186967Y-16960436D01*
X9186967Y-16960436D02*
X9177444Y-16941389D01*
X9177444Y-16941389D02*
X9167920Y-16903293D01*
X9167920Y-16903293D02*
X9167920Y-16855674D01*
X9167920Y-16855674D02*
X9177444Y-16817579D01*
X9177444Y-16817579D02*
X9186967Y-16798531D01*
X9186967Y-16798531D02*
X9196491Y-16789008D01*
X9196491Y-16789008D02*
X9215539Y-16779484D01*
X9367920Y-16979484D02*
X9367920Y-16846150D01*
X9367920Y-16865198D02*
X9377444Y-16855674D01*
X9377444Y-16855674D02*
X9396491Y-16846150D01*
X9396491Y-16846150D02*
X9425063Y-16846150D01*
X9425063Y-16846150D02*
X9444110Y-16855674D01*
X9444110Y-16855674D02*
X9453634Y-16874722D01*
X9453634Y-16874722D02*
X9453634Y-16979484D01*
X9453634Y-16874722D02*
X9463158Y-16855674D01*
X9463158Y-16855674D02*
X9482205Y-16846150D01*
X9482205Y-16846150D02*
X9510777Y-16846150D01*
X9510777Y-16846150D02*
X9529825Y-16855674D01*
X9529825Y-16855674D02*
X9539348Y-16874722D01*
X9539348Y-16874722D02*
X9539348Y-16979484D01*
X9634586Y-16979484D02*
X9634586Y-16846150D01*
X9634586Y-16865198D02*
X9644110Y-16855674D01*
X9644110Y-16855674D02*
X9663158Y-16846150D01*
X9663158Y-16846150D02*
X9691729Y-16846150D01*
X9691729Y-16846150D02*
X9710777Y-16855674D01*
X9710777Y-16855674D02*
X9720301Y-16874722D01*
X9720301Y-16874722D02*
X9720301Y-16979484D01*
X9720301Y-16874722D02*
X9729825Y-16855674D01*
X9729825Y-16855674D02*
X9748872Y-16846150D01*
X9748872Y-16846150D02*
X9777444Y-16846150D01*
X9777444Y-16846150D02*
X9796491Y-16855674D01*
X9796491Y-16855674D02*
X9806015Y-16874722D01*
X9806015Y-16874722D02*
X9806015Y-16979484D01*
X10196491Y-16769960D02*
X10025063Y-17027103D01*
X10453634Y-16779484D02*
X10472682Y-16779484D01*
X10472682Y-16779484D02*
X10491729Y-16789008D01*
X10491729Y-16789008D02*
X10501253Y-16798531D01*
X10501253Y-16798531D02*
X10510777Y-16817579D01*
X10510777Y-16817579D02*
X10520301Y-16855674D01*
X10520301Y-16855674D02*
X10520301Y-16903293D01*
X10520301Y-16903293D02*
X10510777Y-16941389D01*
X10510777Y-16941389D02*
X10501253Y-16960436D01*
X10501253Y-16960436D02*
X10491729Y-16969960D01*
X10491729Y-16969960D02*
X10472682Y-16979484D01*
X10472682Y-16979484D02*
X10453634Y-16979484D01*
X10453634Y-16979484D02*
X10434587Y-16969960D01*
X10434587Y-16969960D02*
X10425063Y-16960436D01*
X10425063Y-16960436D02*
X10415539Y-16941389D01*
X10415539Y-16941389D02*
X10406015Y-16903293D01*
X10406015Y-16903293D02*
X10406015Y-16855674D01*
X10406015Y-16855674D02*
X10415539Y-16817579D01*
X10415539Y-16817579D02*
X10425063Y-16798531D01*
X10425063Y-16798531D02*
X10434587Y-16789008D01*
X10434587Y-16789008D02*
X10453634Y-16779484D01*
X10606015Y-16960436D02*
X10615539Y-16969960D01*
X10615539Y-16969960D02*
X10606015Y-16979484D01*
X10606015Y-16979484D02*
X10596491Y-16969960D01*
X10596491Y-16969960D02*
X10606015Y-16960436D01*
X10606015Y-16960436D02*
X10606015Y-16979484D01*
X10739348Y-16779484D02*
X10758396Y-16779484D01*
X10758396Y-16779484D02*
X10777444Y-16789008D01*
X10777444Y-16789008D02*
X10786968Y-16798531D01*
X10786968Y-16798531D02*
X10796491Y-16817579D01*
X10796491Y-16817579D02*
X10806015Y-16855674D01*
X10806015Y-16855674D02*
X10806015Y-16903293D01*
X10806015Y-16903293D02*
X10796491Y-16941389D01*
X10796491Y-16941389D02*
X10786968Y-16960436D01*
X10786968Y-16960436D02*
X10777444Y-16969960D01*
X10777444Y-16969960D02*
X10758396Y-16979484D01*
X10758396Y-16979484D02*
X10739348Y-16979484D01*
X10739348Y-16979484D02*
X10720301Y-16969960D01*
X10720301Y-16969960D02*
X10710777Y-16960436D01*
X10710777Y-16960436D02*
X10701253Y-16941389D01*
X10701253Y-16941389D02*
X10691729Y-16903293D01*
X10691729Y-16903293D02*
X10691729Y-16855674D01*
X10691729Y-16855674D02*
X10701253Y-16817579D01*
X10701253Y-16817579D02*
X10710777Y-16798531D01*
X10710777Y-16798531D02*
X10720301Y-16789008D01*
X10720301Y-16789008D02*
X10739348Y-16779484D01*
X10977444Y-16846150D02*
X10977444Y-16979484D01*
X10929825Y-16769960D02*
X10882206Y-16912817D01*
X10882206Y-16912817D02*
X11006015Y-16912817D01*
X11120301Y-16779484D02*
X11139349Y-16779484D01*
X11139349Y-16779484D02*
X11158396Y-16789008D01*
X11158396Y-16789008D02*
X11167920Y-16798531D01*
X11167920Y-16798531D02*
X11177444Y-16817579D01*
X11177444Y-16817579D02*
X11186967Y-16855674D01*
X11186967Y-16855674D02*
X11186967Y-16903293D01*
X11186967Y-16903293D02*
X11177444Y-16941389D01*
X11177444Y-16941389D02*
X11167920Y-16960436D01*
X11167920Y-16960436D02*
X11158396Y-16969960D01*
X11158396Y-16969960D02*
X11139349Y-16979484D01*
X11139349Y-16979484D02*
X11120301Y-16979484D01*
X11120301Y-16979484D02*
X11101253Y-16969960D01*
X11101253Y-16969960D02*
X11091729Y-16960436D01*
X11091729Y-16960436D02*
X11082206Y-16941389D01*
X11082206Y-16941389D02*
X11072682Y-16903293D01*
X11072682Y-16903293D02*
X11072682Y-16855674D01*
X11072682Y-16855674D02*
X11082206Y-16817579D01*
X11082206Y-16817579D02*
X11091729Y-16798531D01*
X11091729Y-16798531D02*
X11101253Y-16789008D01*
X11101253Y-16789008D02*
X11120301Y-16779484D01*
X11263158Y-16798531D02*
X11272682Y-16789008D01*
X11272682Y-16789008D02*
X11291729Y-16779484D01*
X11291729Y-16779484D02*
X11339348Y-16779484D01*
X11339348Y-16779484D02*
X11358396Y-16789008D01*
X11358396Y-16789008D02*
X11367920Y-16798531D01*
X11367920Y-16798531D02*
X11377444Y-16817579D01*
X11377444Y-16817579D02*
X11377444Y-16836627D01*
X11377444Y-16836627D02*
X11367920Y-16865198D01*
X11367920Y-16865198D02*
X11253634Y-16979484D01*
X11253634Y-16979484D02*
X11377444Y-16979484D01*
X11453634Y-16779484D02*
X11453634Y-16817579D01*
X11529825Y-16779484D02*
X11529825Y-16817579D01*
X11825063Y-17055674D02*
X11815539Y-17046150D01*
X11815539Y-17046150D02*
X11796491Y-17017579D01*
X11796491Y-17017579D02*
X11786968Y-16998531D01*
X11786968Y-16998531D02*
X11777444Y-16969960D01*
X11777444Y-16969960D02*
X11767920Y-16922341D01*
X11767920Y-16922341D02*
X11767920Y-16884246D01*
X11767920Y-16884246D02*
X11777444Y-16836627D01*
X11777444Y-16836627D02*
X11786968Y-16808055D01*
X11786968Y-16808055D02*
X11796491Y-16789008D01*
X11796491Y-16789008D02*
X11815539Y-16760436D01*
X11815539Y-16760436D02*
X11825063Y-16750912D01*
X11986968Y-16846150D02*
X11986968Y-16979484D01*
X11939348Y-16769960D02*
X11891729Y-16912817D01*
X11891729Y-16912817D02*
X12015539Y-16912817D01*
X12072682Y-16779484D02*
X12196491Y-16779484D01*
X12196491Y-16779484D02*
X12129825Y-16855674D01*
X12129825Y-16855674D02*
X12158396Y-16855674D01*
X12158396Y-16855674D02*
X12177444Y-16865198D01*
X12177444Y-16865198D02*
X12186968Y-16874722D01*
X12186968Y-16874722D02*
X12196491Y-16893770D01*
X12196491Y-16893770D02*
X12196491Y-16941389D01*
X12196491Y-16941389D02*
X12186968Y-16960436D01*
X12186968Y-16960436D02*
X12177444Y-16969960D01*
X12177444Y-16969960D02*
X12158396Y-16979484D01*
X12158396Y-16979484D02*
X12101253Y-16979484D01*
X12101253Y-16979484D02*
X12082206Y-16969960D01*
X12082206Y-16969960D02*
X12072682Y-16960436D01*
X12434587Y-16979484D02*
X12434587Y-16779484D01*
X12520301Y-16979484D02*
X12520301Y-16874722D01*
X12520301Y-16874722D02*
X12510777Y-16855674D01*
X12510777Y-16855674D02*
X12491730Y-16846150D01*
X12491730Y-16846150D02*
X12463158Y-16846150D01*
X12463158Y-16846150D02*
X12444110Y-16855674D01*
X12444110Y-16855674D02*
X12434587Y-16865198D01*
X12644110Y-16979484D02*
X12625063Y-16969960D01*
X12625063Y-16969960D02*
X12615539Y-16960436D01*
X12615539Y-16960436D02*
X12606015Y-16941389D01*
X12606015Y-16941389D02*
X12606015Y-16884246D01*
X12606015Y-16884246D02*
X12615539Y-16865198D01*
X12615539Y-16865198D02*
X12625063Y-16855674D01*
X12625063Y-16855674D02*
X12644110Y-16846150D01*
X12644110Y-16846150D02*
X12672682Y-16846150D01*
X12672682Y-16846150D02*
X12691730Y-16855674D01*
X12691730Y-16855674D02*
X12701253Y-16865198D01*
X12701253Y-16865198D02*
X12710777Y-16884246D01*
X12710777Y-16884246D02*
X12710777Y-16941389D01*
X12710777Y-16941389D02*
X12701253Y-16960436D01*
X12701253Y-16960436D02*
X12691730Y-16969960D01*
X12691730Y-16969960D02*
X12672682Y-16979484D01*
X12672682Y-16979484D02*
X12644110Y-16979484D01*
X12825063Y-16979484D02*
X12806015Y-16969960D01*
X12806015Y-16969960D02*
X12796491Y-16950912D01*
X12796491Y-16950912D02*
X12796491Y-16779484D01*
X12977444Y-16969960D02*
X12958396Y-16979484D01*
X12958396Y-16979484D02*
X12920301Y-16979484D01*
X12920301Y-16979484D02*
X12901253Y-16969960D01*
X12901253Y-16969960D02*
X12891730Y-16950912D01*
X12891730Y-16950912D02*
X12891730Y-16874722D01*
X12891730Y-16874722D02*
X12901253Y-16855674D01*
X12901253Y-16855674D02*
X12920301Y-16846150D01*
X12920301Y-16846150D02*
X12958396Y-16846150D01*
X12958396Y-16846150D02*
X12977444Y-16855674D01*
X12977444Y-16855674D02*
X12986968Y-16874722D01*
X12986968Y-16874722D02*
X12986968Y-16893770D01*
X12986968Y-16893770D02*
X12891730Y-16912817D01*
X13063158Y-16969960D02*
X13082206Y-16979484D01*
X13082206Y-16979484D02*
X13120301Y-16979484D01*
X13120301Y-16979484D02*
X13139349Y-16969960D01*
X13139349Y-16969960D02*
X13148872Y-16950912D01*
X13148872Y-16950912D02*
X13148872Y-16941389D01*
X13148872Y-16941389D02*
X13139349Y-16922341D01*
X13139349Y-16922341D02*
X13120301Y-16912817D01*
X13120301Y-16912817D02*
X13091730Y-16912817D01*
X13091730Y-16912817D02*
X13072682Y-16903293D01*
X13072682Y-16903293D02*
X13063158Y-16884246D01*
X13063158Y-16884246D02*
X13063158Y-16874722D01*
X13063158Y-16874722D02*
X13072682Y-16855674D01*
X13072682Y-16855674D02*
X13091730Y-16846150D01*
X13091730Y-16846150D02*
X13120301Y-16846150D01*
X13120301Y-16846150D02*
X13139349Y-16855674D01*
X13215539Y-17055674D02*
X13225063Y-17046150D01*
X13225063Y-17046150D02*
X13244111Y-17017579D01*
X13244111Y-17017579D02*
X13253634Y-16998531D01*
X13253634Y-16998531D02*
X13263158Y-16969960D01*
X13263158Y-16969960D02*
X13272682Y-16922341D01*
X13272682Y-16922341D02*
X13272682Y-16884246D01*
X13272682Y-16884246D02*
X13263158Y-16836627D01*
X13263158Y-16836627D02*
X13253634Y-16808055D01*
X13253634Y-16808055D02*
X13244111Y-16789008D01*
X13244111Y-16789008D02*
X13225063Y-16760436D01*
X13225063Y-16760436D02*
X13215539Y-16750912D01*
D13*
X8229498Y-17201498D02*
X8229498Y-17102502D01*
X8130502Y-17102502D01*
X8130502Y-17201498D01*
X8229498Y-17201498D01*
D11*
X8615539Y-17243484D02*
X8501253Y-17243484D01*
X8558396Y-17243484D02*
X8558396Y-17043484D01*
X8558396Y-17043484D02*
X8539348Y-17072055D01*
X8539348Y-17072055D02*
X8520301Y-17091103D01*
X8520301Y-17091103D02*
X8501253Y-17100627D01*
X8701253Y-17224436D02*
X8710777Y-17233960D01*
X8710777Y-17233960D02*
X8701253Y-17243484D01*
X8701253Y-17243484D02*
X8691729Y-17233960D01*
X8691729Y-17233960D02*
X8701253Y-17224436D01*
X8701253Y-17224436D02*
X8701253Y-17243484D01*
X8882205Y-17110150D02*
X8882205Y-17243484D01*
X8834586Y-17033960D02*
X8786967Y-17176817D01*
X8786967Y-17176817D02*
X8910777Y-17176817D01*
X9025063Y-17043484D02*
X9044110Y-17043484D01*
X9044110Y-17043484D02*
X9063158Y-17053008D01*
X9063158Y-17053008D02*
X9072682Y-17062531D01*
X9072682Y-17062531D02*
X9082205Y-17081579D01*
X9082205Y-17081579D02*
X9091729Y-17119674D01*
X9091729Y-17119674D02*
X9091729Y-17167293D01*
X9091729Y-17167293D02*
X9082205Y-17205389D01*
X9082205Y-17205389D02*
X9072682Y-17224436D01*
X9072682Y-17224436D02*
X9063158Y-17233960D01*
X9063158Y-17233960D02*
X9044110Y-17243484D01*
X9044110Y-17243484D02*
X9025063Y-17243484D01*
X9025063Y-17243484D02*
X9006015Y-17233960D01*
X9006015Y-17233960D02*
X8996491Y-17224436D01*
X8996491Y-17224436D02*
X8986967Y-17205389D01*
X8986967Y-17205389D02*
X8977444Y-17167293D01*
X8977444Y-17167293D02*
X8977444Y-17119674D01*
X8977444Y-17119674D02*
X8986967Y-17081579D01*
X8986967Y-17081579D02*
X8996491Y-17062531D01*
X8996491Y-17062531D02*
X9006015Y-17053008D01*
X9006015Y-17053008D02*
X9025063Y-17043484D01*
X9215539Y-17043484D02*
X9234586Y-17043484D01*
X9234586Y-17043484D02*
X9253634Y-17053008D01*
X9253634Y-17053008D02*
X9263158Y-17062531D01*
X9263158Y-17062531D02*
X9272682Y-17081579D01*
X9272682Y-17081579D02*
X9282205Y-17119674D01*
X9282205Y-17119674D02*
X9282205Y-17167293D01*
X9282205Y-17167293D02*
X9272682Y-17205389D01*
X9272682Y-17205389D02*
X9263158Y-17224436D01*
X9263158Y-17224436D02*
X9253634Y-17233960D01*
X9253634Y-17233960D02*
X9234586Y-17243484D01*
X9234586Y-17243484D02*
X9215539Y-17243484D01*
X9215539Y-17243484D02*
X9196491Y-17233960D01*
X9196491Y-17233960D02*
X9186967Y-17224436D01*
X9186967Y-17224436D02*
X9177444Y-17205389D01*
X9177444Y-17205389D02*
X9167920Y-17167293D01*
X9167920Y-17167293D02*
X9167920Y-17119674D01*
X9167920Y-17119674D02*
X9177444Y-17081579D01*
X9177444Y-17081579D02*
X9186967Y-17062531D01*
X9186967Y-17062531D02*
X9196491Y-17053008D01*
X9196491Y-17053008D02*
X9215539Y-17043484D01*
X9367920Y-17243484D02*
X9367920Y-17110150D01*
X9367920Y-17129198D02*
X9377444Y-17119674D01*
X9377444Y-17119674D02*
X9396491Y-17110150D01*
X9396491Y-17110150D02*
X9425063Y-17110150D01*
X9425063Y-17110150D02*
X9444110Y-17119674D01*
X9444110Y-17119674D02*
X9453634Y-17138722D01*
X9453634Y-17138722D02*
X9453634Y-17243484D01*
X9453634Y-17138722D02*
X9463158Y-17119674D01*
X9463158Y-17119674D02*
X9482205Y-17110150D01*
X9482205Y-17110150D02*
X9510777Y-17110150D01*
X9510777Y-17110150D02*
X9529825Y-17119674D01*
X9529825Y-17119674D02*
X9539348Y-17138722D01*
X9539348Y-17138722D02*
X9539348Y-17243484D01*
X9634586Y-17243484D02*
X9634586Y-17110150D01*
X9634586Y-17129198D02*
X9644110Y-17119674D01*
X9644110Y-17119674D02*
X9663158Y-17110150D01*
X9663158Y-17110150D02*
X9691729Y-17110150D01*
X9691729Y-17110150D02*
X9710777Y-17119674D01*
X9710777Y-17119674D02*
X9720301Y-17138722D01*
X9720301Y-17138722D02*
X9720301Y-17243484D01*
X9720301Y-17138722D02*
X9729825Y-17119674D01*
X9729825Y-17119674D02*
X9748872Y-17110150D01*
X9748872Y-17110150D02*
X9777444Y-17110150D01*
X9777444Y-17110150D02*
X9796491Y-17119674D01*
X9796491Y-17119674D02*
X9806015Y-17138722D01*
X9806015Y-17138722D02*
X9806015Y-17243484D01*
X10196491Y-17033960D02*
X10025063Y-17291103D01*
X10453634Y-17043484D02*
X10472682Y-17043484D01*
X10472682Y-17043484D02*
X10491729Y-17053008D01*
X10491729Y-17053008D02*
X10501253Y-17062531D01*
X10501253Y-17062531D02*
X10510777Y-17081579D01*
X10510777Y-17081579D02*
X10520301Y-17119674D01*
X10520301Y-17119674D02*
X10520301Y-17167293D01*
X10520301Y-17167293D02*
X10510777Y-17205389D01*
X10510777Y-17205389D02*
X10501253Y-17224436D01*
X10501253Y-17224436D02*
X10491729Y-17233960D01*
X10491729Y-17233960D02*
X10472682Y-17243484D01*
X10472682Y-17243484D02*
X10453634Y-17243484D01*
X10453634Y-17243484D02*
X10434587Y-17233960D01*
X10434587Y-17233960D02*
X10425063Y-17224436D01*
X10425063Y-17224436D02*
X10415539Y-17205389D01*
X10415539Y-17205389D02*
X10406015Y-17167293D01*
X10406015Y-17167293D02*
X10406015Y-17119674D01*
X10406015Y-17119674D02*
X10415539Y-17081579D01*
X10415539Y-17081579D02*
X10425063Y-17062531D01*
X10425063Y-17062531D02*
X10434587Y-17053008D01*
X10434587Y-17053008D02*
X10453634Y-17043484D01*
X10606015Y-17224436D02*
X10615539Y-17233960D01*
X10615539Y-17233960D02*
X10606015Y-17243484D01*
X10606015Y-17243484D02*
X10596491Y-17233960D01*
X10596491Y-17233960D02*
X10606015Y-17224436D01*
X10606015Y-17224436D02*
X10606015Y-17243484D01*
X10739348Y-17043484D02*
X10758396Y-17043484D01*
X10758396Y-17043484D02*
X10777444Y-17053008D01*
X10777444Y-17053008D02*
X10786968Y-17062531D01*
X10786968Y-17062531D02*
X10796491Y-17081579D01*
X10796491Y-17081579D02*
X10806015Y-17119674D01*
X10806015Y-17119674D02*
X10806015Y-17167293D01*
X10806015Y-17167293D02*
X10796491Y-17205389D01*
X10796491Y-17205389D02*
X10786968Y-17224436D01*
X10786968Y-17224436D02*
X10777444Y-17233960D01*
X10777444Y-17233960D02*
X10758396Y-17243484D01*
X10758396Y-17243484D02*
X10739348Y-17243484D01*
X10739348Y-17243484D02*
X10720301Y-17233960D01*
X10720301Y-17233960D02*
X10710777Y-17224436D01*
X10710777Y-17224436D02*
X10701253Y-17205389D01*
X10701253Y-17205389D02*
X10691729Y-17167293D01*
X10691729Y-17167293D02*
X10691729Y-17119674D01*
X10691729Y-17119674D02*
X10701253Y-17081579D01*
X10701253Y-17081579D02*
X10710777Y-17062531D01*
X10710777Y-17062531D02*
X10720301Y-17053008D01*
X10720301Y-17053008D02*
X10739348Y-17043484D01*
X10986968Y-17043484D02*
X10891729Y-17043484D01*
X10891729Y-17043484D02*
X10882206Y-17138722D01*
X10882206Y-17138722D02*
X10891729Y-17129198D01*
X10891729Y-17129198D02*
X10910777Y-17119674D01*
X10910777Y-17119674D02*
X10958396Y-17119674D01*
X10958396Y-17119674D02*
X10977444Y-17129198D01*
X10977444Y-17129198D02*
X10986968Y-17138722D01*
X10986968Y-17138722D02*
X10996491Y-17157770D01*
X10996491Y-17157770D02*
X10996491Y-17205389D01*
X10996491Y-17205389D02*
X10986968Y-17224436D01*
X10986968Y-17224436D02*
X10977444Y-17233960D01*
X10977444Y-17233960D02*
X10958396Y-17243484D01*
X10958396Y-17243484D02*
X10910777Y-17243484D01*
X10910777Y-17243484D02*
X10891729Y-17233960D01*
X10891729Y-17233960D02*
X10882206Y-17224436D01*
X11177444Y-17043484D02*
X11082206Y-17043484D01*
X11082206Y-17043484D02*
X11072682Y-17138722D01*
X11072682Y-17138722D02*
X11082206Y-17129198D01*
X11082206Y-17129198D02*
X11101253Y-17119674D01*
X11101253Y-17119674D02*
X11148872Y-17119674D01*
X11148872Y-17119674D02*
X11167920Y-17129198D01*
X11167920Y-17129198D02*
X11177444Y-17138722D01*
X11177444Y-17138722D02*
X11186967Y-17157770D01*
X11186967Y-17157770D02*
X11186967Y-17205389D01*
X11186967Y-17205389D02*
X11177444Y-17224436D01*
X11177444Y-17224436D02*
X11167920Y-17233960D01*
X11167920Y-17233960D02*
X11148872Y-17243484D01*
X11148872Y-17243484D02*
X11101253Y-17243484D01*
X11101253Y-17243484D02*
X11082206Y-17233960D01*
X11082206Y-17233960D02*
X11072682Y-17224436D01*
X11377444Y-17243484D02*
X11263158Y-17243484D01*
X11320301Y-17243484D02*
X11320301Y-17043484D01*
X11320301Y-17043484D02*
X11301253Y-17072055D01*
X11301253Y-17072055D02*
X11282206Y-17091103D01*
X11282206Y-17091103D02*
X11263158Y-17100627D01*
X11453634Y-17043484D02*
X11453634Y-17081579D01*
X11529825Y-17043484D02*
X11529825Y-17081579D01*
X11825063Y-17319674D02*
X11815539Y-17310150D01*
X11815539Y-17310150D02*
X11796491Y-17281579D01*
X11796491Y-17281579D02*
X11786968Y-17262531D01*
X11786968Y-17262531D02*
X11777444Y-17233960D01*
X11777444Y-17233960D02*
X11767920Y-17186341D01*
X11767920Y-17186341D02*
X11767920Y-17148246D01*
X11767920Y-17148246D02*
X11777444Y-17100627D01*
X11777444Y-17100627D02*
X11786968Y-17072055D01*
X11786968Y-17072055D02*
X11796491Y-17053008D01*
X11796491Y-17053008D02*
X11815539Y-17024436D01*
X11815539Y-17024436D02*
X11825063Y-17014912D01*
X11891729Y-17062531D02*
X11901253Y-17053008D01*
X11901253Y-17053008D02*
X11920301Y-17043484D01*
X11920301Y-17043484D02*
X11967920Y-17043484D01*
X11967920Y-17043484D02*
X11986968Y-17053008D01*
X11986968Y-17053008D02*
X11996491Y-17062531D01*
X11996491Y-17062531D02*
X12006015Y-17081579D01*
X12006015Y-17081579D02*
X12006015Y-17100627D01*
X12006015Y-17100627D02*
X11996491Y-17129198D01*
X11996491Y-17129198D02*
X11882206Y-17243484D01*
X11882206Y-17243484D02*
X12006015Y-17243484D01*
X12120301Y-17129198D02*
X12101253Y-17119674D01*
X12101253Y-17119674D02*
X12091729Y-17110150D01*
X12091729Y-17110150D02*
X12082206Y-17091103D01*
X12082206Y-17091103D02*
X12082206Y-17081579D01*
X12082206Y-17081579D02*
X12091729Y-17062531D01*
X12091729Y-17062531D02*
X12101253Y-17053008D01*
X12101253Y-17053008D02*
X12120301Y-17043484D01*
X12120301Y-17043484D02*
X12158396Y-17043484D01*
X12158396Y-17043484D02*
X12177444Y-17053008D01*
X12177444Y-17053008D02*
X12186968Y-17062531D01*
X12186968Y-17062531D02*
X12196491Y-17081579D01*
X12196491Y-17081579D02*
X12196491Y-17091103D01*
X12196491Y-17091103D02*
X12186968Y-17110150D01*
X12186968Y-17110150D02*
X12177444Y-17119674D01*
X12177444Y-17119674D02*
X12158396Y-17129198D01*
X12158396Y-17129198D02*
X12120301Y-17129198D01*
X12120301Y-17129198D02*
X12101253Y-17138722D01*
X12101253Y-17138722D02*
X12091729Y-17148246D01*
X12091729Y-17148246D02*
X12082206Y-17167293D01*
X12082206Y-17167293D02*
X12082206Y-17205389D01*
X12082206Y-17205389D02*
X12091729Y-17224436D01*
X12091729Y-17224436D02*
X12101253Y-17233960D01*
X12101253Y-17233960D02*
X12120301Y-17243484D01*
X12120301Y-17243484D02*
X12158396Y-17243484D01*
X12158396Y-17243484D02*
X12177444Y-17233960D01*
X12177444Y-17233960D02*
X12186968Y-17224436D01*
X12186968Y-17224436D02*
X12196491Y-17205389D01*
X12196491Y-17205389D02*
X12196491Y-17167293D01*
X12196491Y-17167293D02*
X12186968Y-17148246D01*
X12186968Y-17148246D02*
X12177444Y-17138722D01*
X12177444Y-17138722D02*
X12158396Y-17129198D01*
X12434587Y-17243484D02*
X12434587Y-17043484D01*
X12520301Y-17243484D02*
X12520301Y-17138722D01*
X12520301Y-17138722D02*
X12510777Y-17119674D01*
X12510777Y-17119674D02*
X12491730Y-17110150D01*
X12491730Y-17110150D02*
X12463158Y-17110150D01*
X12463158Y-17110150D02*
X12444110Y-17119674D01*
X12444110Y-17119674D02*
X12434587Y-17129198D01*
X12644110Y-17243484D02*
X12625063Y-17233960D01*
X12625063Y-17233960D02*
X12615539Y-17224436D01*
X12615539Y-17224436D02*
X12606015Y-17205389D01*
X12606015Y-17205389D02*
X12606015Y-17148246D01*
X12606015Y-17148246D02*
X12615539Y-17129198D01*
X12615539Y-17129198D02*
X12625063Y-17119674D01*
X12625063Y-17119674D02*
X12644110Y-17110150D01*
X12644110Y-17110150D02*
X12672682Y-17110150D01*
X12672682Y-17110150D02*
X12691730Y-17119674D01*
X12691730Y-17119674D02*
X12701253Y-17129198D01*
X12701253Y-17129198D02*
X12710777Y-17148246D01*
X12710777Y-17148246D02*
X12710777Y-17205389D01*
X12710777Y-17205389D02*
X12701253Y-17224436D01*
X12701253Y-17224436D02*
X12691730Y-17233960D01*
X12691730Y-17233960D02*
X12672682Y-17243484D01*
X12672682Y-17243484D02*
X12644110Y-17243484D01*
X12825063Y-17243484D02*
X12806015Y-17233960D01*
X12806015Y-17233960D02*
X12796491Y-17214912D01*
X12796491Y-17214912D02*
X12796491Y-17043484D01*
X12977444Y-17233960D02*
X12958396Y-17243484D01*
X12958396Y-17243484D02*
X12920301Y-17243484D01*
X12920301Y-17243484D02*
X12901253Y-17233960D01*
X12901253Y-17233960D02*
X12891730Y-17214912D01*
X12891730Y-17214912D02*
X12891730Y-17138722D01*
X12891730Y-17138722D02*
X12901253Y-17119674D01*
X12901253Y-17119674D02*
X12920301Y-17110150D01*
X12920301Y-17110150D02*
X12958396Y-17110150D01*
X12958396Y-17110150D02*
X12977444Y-17119674D01*
X12977444Y-17119674D02*
X12986968Y-17138722D01*
X12986968Y-17138722D02*
X12986968Y-17157770D01*
X12986968Y-17157770D02*
X12891730Y-17176817D01*
X13063158Y-17233960D02*
X13082206Y-17243484D01*
X13082206Y-17243484D02*
X13120301Y-17243484D01*
X13120301Y-17243484D02*
X13139349Y-17233960D01*
X13139349Y-17233960D02*
X13148872Y-17214912D01*
X13148872Y-17214912D02*
X13148872Y-17205389D01*
X13148872Y-17205389D02*
X13139349Y-17186341D01*
X13139349Y-17186341D02*
X13120301Y-17176817D01*
X13120301Y-17176817D02*
X13091730Y-17176817D01*
X13091730Y-17176817D02*
X13072682Y-17167293D01*
X13072682Y-17167293D02*
X13063158Y-17148246D01*
X13063158Y-17148246D02*
X13063158Y-17138722D01*
X13063158Y-17138722D02*
X13072682Y-17119674D01*
X13072682Y-17119674D02*
X13091730Y-17110150D01*
X13091730Y-17110150D02*
X13120301Y-17110150D01*
X13120301Y-17110150D02*
X13139349Y-17119674D01*
X13215539Y-17319674D02*
X13225063Y-17310150D01*
X13225063Y-17310150D02*
X13244111Y-17281579D01*
X13244111Y-17281579D02*
X13253634Y-17262531D01*
X13253634Y-17262531D02*
X13263158Y-17233960D01*
X13263158Y-17233960D02*
X13272682Y-17186341D01*
X13272682Y-17186341D02*
X13272682Y-17148246D01*
X13272682Y-17148246D02*
X13263158Y-17100627D01*
X13263158Y-17100627D02*
X13253634Y-17072055D01*
X13253634Y-17072055D02*
X13244111Y-17053008D01*
X13244111Y-17053008D02*
X13225063Y-17024436D01*
X13225063Y-17024436D02*
X13215539Y-17014912D01*
X8150000Y-17516000D02*
X8250000Y-17416000D01*
X8150000Y-17316000D01*
X8050000Y-17416000D01*
X8150000Y-17516000D01*
X8491729Y-17307484D02*
X8615539Y-17307484D01*
X8615539Y-17307484D02*
X8548872Y-17383674D01*
X8548872Y-17383674D02*
X8577444Y-17383674D01*
X8577444Y-17383674D02*
X8596491Y-17393198D01*
X8596491Y-17393198D02*
X8606015Y-17402722D01*
X8606015Y-17402722D02*
X8615539Y-17421770D01*
X8615539Y-17421770D02*
X8615539Y-17469389D01*
X8615539Y-17469389D02*
X8606015Y-17488436D01*
X8606015Y-17488436D02*
X8596491Y-17497960D01*
X8596491Y-17497960D02*
X8577444Y-17507484D01*
X8577444Y-17507484D02*
X8520301Y-17507484D01*
X8520301Y-17507484D02*
X8501253Y-17497960D01*
X8501253Y-17497960D02*
X8491729Y-17488436D01*
X8701253Y-17488436D02*
X8710777Y-17497960D01*
X8710777Y-17497960D02*
X8701253Y-17507484D01*
X8701253Y-17507484D02*
X8691729Y-17497960D01*
X8691729Y-17497960D02*
X8701253Y-17488436D01*
X8701253Y-17488436D02*
X8701253Y-17507484D01*
X8786967Y-17326531D02*
X8796491Y-17317008D01*
X8796491Y-17317008D02*
X8815539Y-17307484D01*
X8815539Y-17307484D02*
X8863158Y-17307484D01*
X8863158Y-17307484D02*
X8882205Y-17317008D01*
X8882205Y-17317008D02*
X8891729Y-17326531D01*
X8891729Y-17326531D02*
X8901253Y-17345579D01*
X8901253Y-17345579D02*
X8901253Y-17364627D01*
X8901253Y-17364627D02*
X8891729Y-17393198D01*
X8891729Y-17393198D02*
X8777444Y-17507484D01*
X8777444Y-17507484D02*
X8901253Y-17507484D01*
X9025063Y-17307484D02*
X9044110Y-17307484D01*
X9044110Y-17307484D02*
X9063158Y-17317008D01*
X9063158Y-17317008D02*
X9072682Y-17326531D01*
X9072682Y-17326531D02*
X9082205Y-17345579D01*
X9082205Y-17345579D02*
X9091729Y-17383674D01*
X9091729Y-17383674D02*
X9091729Y-17431293D01*
X9091729Y-17431293D02*
X9082205Y-17469389D01*
X9082205Y-17469389D02*
X9072682Y-17488436D01*
X9072682Y-17488436D02*
X9063158Y-17497960D01*
X9063158Y-17497960D02*
X9044110Y-17507484D01*
X9044110Y-17507484D02*
X9025063Y-17507484D01*
X9025063Y-17507484D02*
X9006015Y-17497960D01*
X9006015Y-17497960D02*
X8996491Y-17488436D01*
X8996491Y-17488436D02*
X8986967Y-17469389D01*
X8986967Y-17469389D02*
X8977444Y-17431293D01*
X8977444Y-17431293D02*
X8977444Y-17383674D01*
X8977444Y-17383674D02*
X8986967Y-17345579D01*
X8986967Y-17345579D02*
X8996491Y-17326531D01*
X8996491Y-17326531D02*
X9006015Y-17317008D01*
X9006015Y-17317008D02*
X9025063Y-17307484D01*
X9215539Y-17307484D02*
X9234586Y-17307484D01*
X9234586Y-17307484D02*
X9253634Y-17317008D01*
X9253634Y-17317008D02*
X9263158Y-17326531D01*
X9263158Y-17326531D02*
X9272682Y-17345579D01*
X9272682Y-17345579D02*
X9282205Y-17383674D01*
X9282205Y-17383674D02*
X9282205Y-17431293D01*
X9282205Y-17431293D02*
X9272682Y-17469389D01*
X9272682Y-17469389D02*
X9263158Y-17488436D01*
X9263158Y-17488436D02*
X9253634Y-17497960D01*
X9253634Y-17497960D02*
X9234586Y-17507484D01*
X9234586Y-17507484D02*
X9215539Y-17507484D01*
X9215539Y-17507484D02*
X9196491Y-17497960D01*
X9196491Y-17497960D02*
X9186967Y-17488436D01*
X9186967Y-17488436D02*
X9177444Y-17469389D01*
X9177444Y-17469389D02*
X9167920Y-17431293D01*
X9167920Y-17431293D02*
X9167920Y-17383674D01*
X9167920Y-17383674D02*
X9177444Y-17345579D01*
X9177444Y-17345579D02*
X9186967Y-17326531D01*
X9186967Y-17326531D02*
X9196491Y-17317008D01*
X9196491Y-17317008D02*
X9215539Y-17307484D01*
X9367920Y-17507484D02*
X9367920Y-17374150D01*
X9367920Y-17393198D02*
X9377444Y-17383674D01*
X9377444Y-17383674D02*
X9396491Y-17374150D01*
X9396491Y-17374150D02*
X9425063Y-17374150D01*
X9425063Y-17374150D02*
X9444110Y-17383674D01*
X9444110Y-17383674D02*
X9453634Y-17402722D01*
X9453634Y-17402722D02*
X9453634Y-17507484D01*
X9453634Y-17402722D02*
X9463158Y-17383674D01*
X9463158Y-17383674D02*
X9482205Y-17374150D01*
X9482205Y-17374150D02*
X9510777Y-17374150D01*
X9510777Y-17374150D02*
X9529825Y-17383674D01*
X9529825Y-17383674D02*
X9539348Y-17402722D01*
X9539348Y-17402722D02*
X9539348Y-17507484D01*
X9634586Y-17507484D02*
X9634586Y-17374150D01*
X9634586Y-17393198D02*
X9644110Y-17383674D01*
X9644110Y-17383674D02*
X9663158Y-17374150D01*
X9663158Y-17374150D02*
X9691729Y-17374150D01*
X9691729Y-17374150D02*
X9710777Y-17383674D01*
X9710777Y-17383674D02*
X9720301Y-17402722D01*
X9720301Y-17402722D02*
X9720301Y-17507484D01*
X9720301Y-17402722D02*
X9729825Y-17383674D01*
X9729825Y-17383674D02*
X9748872Y-17374150D01*
X9748872Y-17374150D02*
X9777444Y-17374150D01*
X9777444Y-17374150D02*
X9796491Y-17383674D01*
X9796491Y-17383674D02*
X9806015Y-17402722D01*
X9806015Y-17402722D02*
X9806015Y-17507484D01*
X10196491Y-17297960D02*
X10025063Y-17555103D01*
X10453634Y-17307484D02*
X10472682Y-17307484D01*
X10472682Y-17307484D02*
X10491729Y-17317008D01*
X10491729Y-17317008D02*
X10501253Y-17326531D01*
X10501253Y-17326531D02*
X10510777Y-17345579D01*
X10510777Y-17345579D02*
X10520301Y-17383674D01*
X10520301Y-17383674D02*
X10520301Y-17431293D01*
X10520301Y-17431293D02*
X10510777Y-17469389D01*
X10510777Y-17469389D02*
X10501253Y-17488436D01*
X10501253Y-17488436D02*
X10491729Y-17497960D01*
X10491729Y-17497960D02*
X10472682Y-17507484D01*
X10472682Y-17507484D02*
X10453634Y-17507484D01*
X10453634Y-17507484D02*
X10434587Y-17497960D01*
X10434587Y-17497960D02*
X10425063Y-17488436D01*
X10425063Y-17488436D02*
X10415539Y-17469389D01*
X10415539Y-17469389D02*
X10406015Y-17431293D01*
X10406015Y-17431293D02*
X10406015Y-17383674D01*
X10406015Y-17383674D02*
X10415539Y-17345579D01*
X10415539Y-17345579D02*
X10425063Y-17326531D01*
X10425063Y-17326531D02*
X10434587Y-17317008D01*
X10434587Y-17317008D02*
X10453634Y-17307484D01*
X10606015Y-17488436D02*
X10615539Y-17497960D01*
X10615539Y-17497960D02*
X10606015Y-17507484D01*
X10606015Y-17507484D02*
X10596491Y-17497960D01*
X10596491Y-17497960D02*
X10606015Y-17488436D01*
X10606015Y-17488436D02*
X10606015Y-17507484D01*
X10806015Y-17507484D02*
X10691729Y-17507484D01*
X10748872Y-17507484D02*
X10748872Y-17307484D01*
X10748872Y-17307484D02*
X10729825Y-17336055D01*
X10729825Y-17336055D02*
X10710777Y-17355103D01*
X10710777Y-17355103D02*
X10691729Y-17364627D01*
X10882206Y-17326531D02*
X10891729Y-17317008D01*
X10891729Y-17317008D02*
X10910777Y-17307484D01*
X10910777Y-17307484D02*
X10958396Y-17307484D01*
X10958396Y-17307484D02*
X10977444Y-17317008D01*
X10977444Y-17317008D02*
X10986968Y-17326531D01*
X10986968Y-17326531D02*
X10996491Y-17345579D01*
X10996491Y-17345579D02*
X10996491Y-17364627D01*
X10996491Y-17364627D02*
X10986968Y-17393198D01*
X10986968Y-17393198D02*
X10872682Y-17507484D01*
X10872682Y-17507484D02*
X10996491Y-17507484D01*
X11167920Y-17307484D02*
X11129825Y-17307484D01*
X11129825Y-17307484D02*
X11110777Y-17317008D01*
X11110777Y-17317008D02*
X11101253Y-17326531D01*
X11101253Y-17326531D02*
X11082206Y-17355103D01*
X11082206Y-17355103D02*
X11072682Y-17393198D01*
X11072682Y-17393198D02*
X11072682Y-17469389D01*
X11072682Y-17469389D02*
X11082206Y-17488436D01*
X11082206Y-17488436D02*
X11091729Y-17497960D01*
X11091729Y-17497960D02*
X11110777Y-17507484D01*
X11110777Y-17507484D02*
X11148872Y-17507484D01*
X11148872Y-17507484D02*
X11167920Y-17497960D01*
X11167920Y-17497960D02*
X11177444Y-17488436D01*
X11177444Y-17488436D02*
X11186967Y-17469389D01*
X11186967Y-17469389D02*
X11186967Y-17421770D01*
X11186967Y-17421770D02*
X11177444Y-17402722D01*
X11177444Y-17402722D02*
X11167920Y-17393198D01*
X11167920Y-17393198D02*
X11148872Y-17383674D01*
X11148872Y-17383674D02*
X11110777Y-17383674D01*
X11110777Y-17383674D02*
X11091729Y-17393198D01*
X11091729Y-17393198D02*
X11082206Y-17402722D01*
X11082206Y-17402722D02*
X11072682Y-17421770D01*
X11310777Y-17307484D02*
X11329825Y-17307484D01*
X11329825Y-17307484D02*
X11348872Y-17317008D01*
X11348872Y-17317008D02*
X11358396Y-17326531D01*
X11358396Y-17326531D02*
X11367920Y-17345579D01*
X11367920Y-17345579D02*
X11377444Y-17383674D01*
X11377444Y-17383674D02*
X11377444Y-17431293D01*
X11377444Y-17431293D02*
X11367920Y-17469389D01*
X11367920Y-17469389D02*
X11358396Y-17488436D01*
X11358396Y-17488436D02*
X11348872Y-17497960D01*
X11348872Y-17497960D02*
X11329825Y-17507484D01*
X11329825Y-17507484D02*
X11310777Y-17507484D01*
X11310777Y-17507484D02*
X11291729Y-17497960D01*
X11291729Y-17497960D02*
X11282206Y-17488436D01*
X11282206Y-17488436D02*
X11272682Y-17469389D01*
X11272682Y-17469389D02*
X11263158Y-17431293D01*
X11263158Y-17431293D02*
X11263158Y-17383674D01*
X11263158Y-17383674D02*
X11272682Y-17345579D01*
X11272682Y-17345579D02*
X11282206Y-17326531D01*
X11282206Y-17326531D02*
X11291729Y-17317008D01*
X11291729Y-17317008D02*
X11310777Y-17307484D01*
X11453634Y-17307484D02*
X11453634Y-17345579D01*
X11529825Y-17307484D02*
X11529825Y-17345579D01*
X11825063Y-17583674D02*
X11815539Y-17574150D01*
X11815539Y-17574150D02*
X11796491Y-17545579D01*
X11796491Y-17545579D02*
X11786968Y-17526531D01*
X11786968Y-17526531D02*
X11777444Y-17497960D01*
X11777444Y-17497960D02*
X11767920Y-17450341D01*
X11767920Y-17450341D02*
X11767920Y-17412246D01*
X11767920Y-17412246D02*
X11777444Y-17364627D01*
X11777444Y-17364627D02*
X11786968Y-17336055D01*
X11786968Y-17336055D02*
X11796491Y-17317008D01*
X11796491Y-17317008D02*
X11815539Y-17288436D01*
X11815539Y-17288436D02*
X11825063Y-17278912D01*
X11986968Y-17374150D02*
X11986968Y-17507484D01*
X11939348Y-17297960D02*
X11891729Y-17440817D01*
X11891729Y-17440817D02*
X12015539Y-17440817D01*
X12244110Y-17507484D02*
X12244110Y-17307484D01*
X12329825Y-17507484D02*
X12329825Y-17402722D01*
X12329825Y-17402722D02*
X12320301Y-17383674D01*
X12320301Y-17383674D02*
X12301253Y-17374150D01*
X12301253Y-17374150D02*
X12272682Y-17374150D01*
X12272682Y-17374150D02*
X12253634Y-17383674D01*
X12253634Y-17383674D02*
X12244110Y-17393198D01*
X12453634Y-17507484D02*
X12434587Y-17497960D01*
X12434587Y-17497960D02*
X12425063Y-17488436D01*
X12425063Y-17488436D02*
X12415539Y-17469389D01*
X12415539Y-17469389D02*
X12415539Y-17412246D01*
X12415539Y-17412246D02*
X12425063Y-17393198D01*
X12425063Y-17393198D02*
X12434587Y-17383674D01*
X12434587Y-17383674D02*
X12453634Y-17374150D01*
X12453634Y-17374150D02*
X12482206Y-17374150D01*
X12482206Y-17374150D02*
X12501253Y-17383674D01*
X12501253Y-17383674D02*
X12510777Y-17393198D01*
X12510777Y-17393198D02*
X12520301Y-17412246D01*
X12520301Y-17412246D02*
X12520301Y-17469389D01*
X12520301Y-17469389D02*
X12510777Y-17488436D01*
X12510777Y-17488436D02*
X12501253Y-17497960D01*
X12501253Y-17497960D02*
X12482206Y-17507484D01*
X12482206Y-17507484D02*
X12453634Y-17507484D01*
X12634587Y-17507484D02*
X12615539Y-17497960D01*
X12615539Y-17497960D02*
X12606015Y-17478912D01*
X12606015Y-17478912D02*
X12606015Y-17307484D01*
X12786968Y-17497960D02*
X12767920Y-17507484D01*
X12767920Y-17507484D02*
X12729825Y-17507484D01*
X12729825Y-17507484D02*
X12710777Y-17497960D01*
X12710777Y-17497960D02*
X12701253Y-17478912D01*
X12701253Y-17478912D02*
X12701253Y-17402722D01*
X12701253Y-17402722D02*
X12710777Y-17383674D01*
X12710777Y-17383674D02*
X12729825Y-17374150D01*
X12729825Y-17374150D02*
X12767920Y-17374150D01*
X12767920Y-17374150D02*
X12786968Y-17383674D01*
X12786968Y-17383674D02*
X12796491Y-17402722D01*
X12796491Y-17402722D02*
X12796491Y-17421770D01*
X12796491Y-17421770D02*
X12701253Y-17440817D01*
X12872682Y-17497960D02*
X12891730Y-17507484D01*
X12891730Y-17507484D02*
X12929825Y-17507484D01*
X12929825Y-17507484D02*
X12948872Y-17497960D01*
X12948872Y-17497960D02*
X12958396Y-17478912D01*
X12958396Y-17478912D02*
X12958396Y-17469389D01*
X12958396Y-17469389D02*
X12948872Y-17450341D01*
X12948872Y-17450341D02*
X12929825Y-17440817D01*
X12929825Y-17440817D02*
X12901253Y-17440817D01*
X12901253Y-17440817D02*
X12882206Y-17431293D01*
X12882206Y-17431293D02*
X12872682Y-17412246D01*
X12872682Y-17412246D02*
X12872682Y-17402722D01*
X12872682Y-17402722D02*
X12882206Y-17383674D01*
X12882206Y-17383674D02*
X12901253Y-17374150D01*
X12901253Y-17374150D02*
X12929825Y-17374150D01*
X12929825Y-17374150D02*
X12948872Y-17383674D01*
X13025063Y-17583674D02*
X13034587Y-17574150D01*
X13034587Y-17574150D02*
X13053634Y-17545579D01*
X13053634Y-17545579D02*
X13063158Y-17526531D01*
X13063158Y-17526531D02*
X13072682Y-17497960D01*
X13072682Y-17497960D02*
X13082206Y-17450341D01*
X13082206Y-17450341D02*
X13082206Y-17412246D01*
X13082206Y-17412246D02*
X13072682Y-17364627D01*
X13072682Y-17364627D02*
X13063158Y-17336055D01*
X13063158Y-17336055D02*
X13053634Y-17317008D01*
X13053634Y-17317008D02*
X13034587Y-17288436D01*
X13034587Y-17288436D02*
X13025063Y-17278912D01*
M02*
