%TF.GenerationSoftware,KiCad,Pcbnew,7.0.9*%
%TF.CreationDate,2024-02-10T00:43:50-08:00*%
%TF.ProjectId,snes_controllers_to_usb,736e6573-5f63-46f6-9e74-726f6c6c6572,A*%
%TF.SameCoordinates,Original*%
%TF.FileFunction,Paste,Top*%
%TF.FilePolarity,Positive*%
%FSLAX46Y46*%
G04 Gerber Fmt 4.6, Leading zero omitted, Abs format (unit mm)*
G04 Created by KiCad (PCBNEW 7.0.9) date 2024-02-10 00:43:50*
%MOMM*%
%LPD*%
G01*
G04 APERTURE LIST*
G04 Aperture macros list*
%AMRoundRect*
0 Rectangle with rounded corners*
0 $1 Rounding radius*
0 $2 $3 $4 $5 $6 $7 $8 $9 X,Y pos of 4 corners*
0 Add a 4 corners polygon primitive as box body*
4,1,4,$2,$3,$4,$5,$6,$7,$8,$9,$2,$3,0*
0 Add four circle primitives for the rounded corners*
1,1,$1+$1,$2,$3*
1,1,$1+$1,$4,$5*
1,1,$1+$1,$6,$7*
1,1,$1+$1,$8,$9*
0 Add four rect primitives between the rounded corners*
20,1,$1+$1,$2,$3,$4,$5,0*
20,1,$1+$1,$4,$5,$6,$7,0*
20,1,$1+$1,$6,$7,$8,$9,0*
20,1,$1+$1,$8,$9,$2,$3,0*%
G04 Aperture macros list end*
%ADD10RoundRect,0.237500X0.237500X-0.250000X0.237500X0.250000X-0.237500X0.250000X-0.237500X-0.250000X0*%
%ADD11RoundRect,0.237500X0.250000X0.237500X-0.250000X0.237500X-0.250000X-0.237500X0.250000X-0.237500X0*%
%ADD12RoundRect,0.150000X0.587500X0.150000X-0.587500X0.150000X-0.587500X-0.150000X0.587500X-0.150000X0*%
%ADD13RoundRect,0.237500X-0.237500X0.250000X-0.237500X-0.250000X0.237500X-0.250000X0.237500X0.250000X0*%
%ADD14RoundRect,0.237500X0.237500X-0.287500X0.237500X0.287500X-0.237500X0.287500X-0.237500X-0.287500X0*%
%ADD15RoundRect,0.237500X-0.250000X-0.237500X0.250000X-0.237500X0.250000X0.237500X-0.250000X0.237500X0*%
%ADD16RoundRect,0.375000X-0.625000X-0.375000X0.625000X-0.375000X0.625000X0.375000X-0.625000X0.375000X0*%
%ADD17RoundRect,0.150000X0.150000X-0.587500X0.150000X0.587500X-0.150000X0.587500X-0.150000X-0.587500X0*%
%ADD18RoundRect,0.237500X-0.287500X-0.237500X0.287500X-0.237500X0.287500X0.237500X-0.287500X0.237500X0*%
G04 APERTURE END LIST*
D10*
%TO.C,R9*%
X148844000Y-78025000D03*
X148844000Y-76200000D03*
%TD*%
D11*
%TO.C,R11*%
X102917000Y-96520000D03*
X101092000Y-96520000D03*
%TD*%
D12*
%TO.C,Q4*%
X97379000Y-142682000D03*
X97379000Y-140782000D03*
X95504000Y-141732000D03*
%TD*%
%TO.C,Q3*%
X97432500Y-96491500D03*
X97432500Y-94591500D03*
X95557500Y-95541500D03*
%TD*%
D11*
%TO.C,R2*%
X110029000Y-73660000D03*
X108204000Y-73660000D03*
%TD*%
%TO.C,R12*%
X102409000Y-142748000D03*
X100584000Y-142748000D03*
%TD*%
D13*
%TO.C,R5*%
X99060000Y-89408000D03*
X99060000Y-91233000D03*
%TD*%
%TO.C,R3*%
X146304000Y-73660000D03*
X146304000Y-75485000D03*
%TD*%
D10*
%TO.C,R10*%
X103124000Y-78025000D03*
X103124000Y-76200000D03*
%TD*%
D14*
%TO.C,D4*%
X95504000Y-136370000D03*
X95504000Y-134620000D03*
%TD*%
%TO.C,D3*%
X95504000Y-91158000D03*
X95504000Y-89408000D03*
%TD*%
D11*
%TO.C,R1*%
X155956000Y-73660000D03*
X154131000Y-73660000D03*
%TD*%
D15*
%TO.C,R8*%
X97536000Y-145796000D03*
X99361000Y-145796000D03*
%TD*%
D16*
%TO.C,SW1*%
X146232000Y-131064000D03*
X154432000Y-131064000D03*
%TD*%
D15*
%TO.C,R7*%
X97536000Y-99568000D03*
X99361000Y-99568000D03*
%TD*%
D17*
%TO.C,Q2*%
X103124000Y-73660000D03*
X105024000Y-73660000D03*
X104074000Y-71785000D03*
%TD*%
D18*
%TO.C,D2*%
X108204000Y-70104000D03*
X109954000Y-70104000D03*
%TD*%
D13*
%TO.C,R6*%
X99060000Y-134620000D03*
X99060000Y-136445000D03*
%TD*%
%TO.C,R4*%
X100584000Y-73660000D03*
X100584000Y-75485000D03*
%TD*%
D18*
%TO.C,D1*%
X154206000Y-70104000D03*
X155956000Y-70104000D03*
%TD*%
D17*
%TO.C,Q1*%
X148844000Y-73660000D03*
X150744000Y-73660000D03*
X149794000Y-71785000D03*
%TD*%
M02*
